<svg xmlns="http://www.w3.org/2000/svg" viewBox="0 0 720 42" width="720" height="42" role="img"><rect x="0" y="0" width="720" height="42" rx="9" fill="#000000"/><rect x="18.00" y="10.00" width="2.00" height="2.00" fill="#64D2FF"/><rect x="20.00" y="10.00" width="2.00" height="2.00" fill="#64D2FF"/><rect x="22.00" y="10.00" width="2.00" height="2.00" fill="#64D2FF"/><rect x="24.00" y="10.00" width="2.00" height="2.00" fill="#64D2FF"/><rect x="16.00" y="12.00" width="2.00" height="2.00" fill="#64D2FF"/><rect x="18.00" y="12.00" width="2.00" height="2.00" fill="#64D2FF"/><rect x="20.00" y="12.00" width="2.00" height="2.00" fill="#64D2FF"/><rect x="22.00" y="12.00" width="2.00" height="2.00" fill="#64D2FF"/><rect x="24.00" y="12.00" width="2.00" height="2.00" fill="#64D2FF"/><rect x="26.00" y="12.00" width="2.00" height="2.00" fill="#64D2FF"/><rect x="16.00" y="14.00" width="2.00" height="2.00" fill="#64D2FF"/><rect x="20.00" y="14.00" width="2.00" height="2.00" fill="#64D2FF"/><rect x="22.00" y="14.00" width="2.00" height="2.00" fill="#64D2FF"/><rect x="26.00" y="14.00" width="2.00" height="2.00" fill="#64D2FF"/><rect x="16.00" y="16.00" width="2.00" height="2.00" fill="#64D2FF"/><rect x="18.00" y="16.00" width="2.00" height="2.00" fill="#64D2FF"/><rect x="20.00" y="16.00" width="2.00" height="2.00" fill="#64D2FF"/><rect x="22.00" y="16.00" width="2.00" height="2.00" fill="#64D2FF"/><rect x="24.00" y="16.00" width="2.00" height="2.00" fill="#64D2FF"/><rect x="26.00" y="16.00" width="2.00" height="2.00" fill="#64D2FF"/><rect x="14.00" y="18.00" width="2.00" height="2.00" fill="#64D2FF"/><rect x="16.00" y="18.00" width="2.00" height="2.00" fill="#64D2FF"/><rect x="18.00" y="18.00" width="2.00" height="2.00" fill="#64D2FF"/><rect x="20.00" y="18.00" width="2.00" height="2.00" fill="#64D2FF"/><rect x="22.00" y="18.00" width="2.00" height="2.00" fill="#64D2FF"/><rect x="24.00" y="18.00" width="2.00" height="2.00" fill="#64D2FF"/><rect x="26.00" y="18.00" width="2.00" height="2.00" fill="#64D2FF"/><rect x="28.00" y="18.00" width="2.00" height="2.00" fill="#64D2FF"/><rect x="12.00" y="20.00" width="2.00" height="2.00" fill="#64D2FF"/><rect x="14.00" y="20.00" width="2.00" height="2.00" fill="#64D2FF"/><rect x="16.00" y="20.00" width="2.00" height="2.00" fill="#64D2FF"/><rect x="18.00" y="20.00" width="2.00" height="2.00" fill="#64D2FF"/><rect x="20.00" y="20.00" width="2.00" height="2.00" fill="#64D2FF"/><rect x="22.00" y="20.00" width="2.00" height="2.00" fill="#64D2FF"/><rect x="24.00" y="20.00" width="2.00" height="2.00" fill="#64D2FF"/><rect x="26.00" y="20.00" width="2.00" height="2.00" fill="#64D2FF"/><rect x="28.00" y="20.00" width="2.00" height="2.00" fill="#64D2FF"/><rect x="12.00" y="22.00" width="2.00" height="2.00" fill="#64D2FF"/><rect x="14.00" y="22.00" width="2.00" height="2.00" fill="#64D2FF"/><rect x="16.00" y="22.00" width="2.00" height="2.00" fill="#64D2FF"/><rect x="18.00" y="22.00" width="2.00" height="2.00" fill="#64D2FF"/><rect x="20.00" y="22.00" width="2.00" height="2.00" fill="#64D2FF"/><rect x="22.00" y="22.00" width="2.00" height="2.00" fill="#64D2FF"/><rect x="24.00" y="22.00" width="2.00" height="2.00" fill="#64D2FF"/><rect x="26.00" y="22.00" width="2.00" height="2.00" fill="#64D2FF"/><rect x="28.00" y="22.00" width="2.00" height="2.00" fill="#64D2FF"/><rect x="14.00" y="24.00" width="2.00" height="2.00" fill="#64D2FF"/><rect x="16.00" y="24.00" width="2.00" height="2.00" fill="#64D2FF"/><rect x="18.00" y="24.00" width="2.00" height="2.00" fill="#64D2FF"/><rect x="20.00" y="24.00" width="2.00" height="2.00" fill="#64D2FF"/><rect x="22.00" y="24.00" width="2.00" height="2.00" fill="#64D2FF"/><rect x="24.00" y="24.00" width="2.00" height="2.00" fill="#64D2FF"/><rect x="26.00" y="24.00" width="2.00" height="2.00" fill="#64D2FF"/><rect x="28.00" y="24.00" width="2.00" height="2.00" fill="#64D2FF"/><rect x="16.00" y="26.00" width="2.00" height="2.00" fill="#64D2FF"/><rect x="18.00" y="26.00" width="2.00" height="2.00" fill="#64D2FF"/><rect x="20.00" y="26.00" width="2.00" height="2.00" fill="#64D2FF"/><rect x="22.00" y="26.00" width="2.00" height="2.00" fill="#64D2FF"/><rect x="24.00" y="26.00" width="2.00" height="2.00" fill="#64D2FF"/><rect x="26.00" y="26.00" width="2.00" height="2.00" fill="#64D2FF"/><rect x="14.00" y="28.00" width="2.00" height="2.00" fill="#64D2FF"/><rect x="16.00" y="28.00" width="2.00" height="2.00" fill="#64D2FF"/><rect x="26.00" y="28.00" width="2.00" height="2.00" fill="#64D2FF"/><rect x="28.00" y="28.00" width="2.00" height="2.00" fill="#64D2FF"/><rect x="14.00" y="30.00" width="2.00" height="2.00" fill="#64D2FF"/><rect x="16.00" y="30.00" width="2.00" height="2.00" fill="#64D2FF"/><text x="42" y="26" font-family="ui-monospace, 'SF Mono', SFMono-Regular, Menlo, Consolas, monospace" font-size="10.5" fill="#D8D8DC">Today 1.28M · $4.32</text><text x="196" y="26" font-family="-apple-system, 'SF Pro Text', 'Segoe UI', system-ui, sans-serif" font-size="11" font-weight="600" fill="#FFFFFF">🤖 Bash · my-project: git push origin main</text><rect x="478" y="10" width="64" height="22" rx="6" fill="#FF453A"/><text x="510.0" y="24.5" text-anchor="middle" font-family="-apple-system, 'SF Pro Text', 'Segoe UI', system-ui, sans-serif" font-size="11" font-weight="600" fill="#FFFFFF">✕ Deny</text><rect x="548" y="10" width="66" height="22" rx="6" fill="#48484A"/><text x="581.0" y="24.5" text-anchor="middle" font-family="-apple-system, 'SF Pro Text', 'Segoe UI', system-ui, sans-serif" font-size="11" font-weight="600" fill="#FFFFFF">Pass 14s</text><rect x="620" y="10" width="66" height="22" rx="6" fill="#30D158"/><text x="653.0" y="24.5" text-anchor="middle" font-family="-apple-system, 'SF Pro Text', 'Segoe UI', system-ui, sans-serif" font-size="11" font-weight="600" fill="#0B2513">✓ Accept</text><rect x="692" y="10" width="20" height="22" rx="6" fill="#48484A"/><text x="702.0" y="24.5" text-anchor="middle" font-family="-apple-system, 'SF Pro Text', 'Segoe UI', system-ui, sans-serif" font-size="11" font-weight="600" fill="#FFFFFF">✕</text></svg>
