<svg xmlns="http://www.w3.org/2000/svg" viewBox="0 0 1016 42" width="1016" height="42" role="img">
<rect x="0.0" y="0.0" width="1016.4" height="42.0" rx="9.1" fill="#000000"/>
<rect x="22.96" y="8.68" width="3.08" height="3.08" fill="#D97757"/>
<rect x="26.04" y="8.68" width="3.08" height="3.08" fill="#D97757"/>
<rect x="29.12" y="8.68" width="3.08" height="3.08" fill="#D97757"/>
<rect x="32.2" y="8.68" width="3.08" height="3.08" fill="#D97757"/>
<rect x="35.28" y="8.68" width="3.08" height="3.08" fill="#D97757"/>
<rect x="38.36" y="8.68" width="3.08" height="3.08" fill="#D97757"/>
<rect x="41.44" y="8.68" width="3.08" height="3.08" fill="#D97757"/>
<rect x="44.52" y="8.68" width="3.08" height="3.08" fill="#D97757"/>
<rect x="47.6" y="8.68" width="3.08" height="3.08" fill="#D97757"/>
<rect x="50.68" y="8.68" width="3.08" height="3.08" fill="#D97757"/>
<rect x="53.76" y="8.68" width="3.08" height="3.08" fill="#D97757"/>
<rect x="56.84" y="8.68" width="3.08" height="3.08" fill="#D97757"/>
<rect x="22.96" y="11.76" width="3.08" height="3.08" fill="#D97757"/>
<rect x="26.04" y="11.76" width="3.08" height="3.08" fill="#D97757"/>
<rect x="29.12" y="11.76" width="3.08" height="3.08" fill="#D97757"/>
<rect x="35.28" y="11.76" width="3.08" height="3.08" fill="#D97757"/>
<rect x="38.36" y="11.76" width="3.08" height="3.08" fill="#D97757"/>
<rect x="41.44" y="11.76" width="3.08" height="3.08" fill="#D97757"/>
<rect x="44.52" y="11.76" width="3.08" height="3.08" fill="#D97757"/>
<rect x="50.68" y="11.76" width="3.08" height="3.08" fill="#D97757"/>
<rect x="53.76" y="11.76" width="3.08" height="3.08" fill="#D97757"/>
<rect x="56.84" y="11.76" width="3.08" height="3.08" fill="#D97757"/>
<rect x="22.96" y="14.84" width="3.08" height="3.08" fill="#D97757"/>
<rect x="26.04" y="14.84" width="3.08" height="3.08" fill="#D97757"/>
<rect x="29.12" y="14.84" width="3.08" height="3.08" fill="#D97757"/>
<rect x="35.28" y="14.84" width="3.08" height="3.08" fill="#D97757"/>
<rect x="38.36" y="14.84" width="3.08" height="3.08" fill="#D97757"/>
<rect x="41.44" y="14.84" width="3.08" height="3.08" fill="#D97757"/>
<rect x="44.52" y="14.84" width="3.08" height="3.08" fill="#D97757"/>
<rect x="50.68" y="14.84" width="3.08" height="3.08" fill="#D97757"/>
<rect x="53.76" y="14.84" width="3.08" height="3.08" fill="#D97757"/>
<rect x="56.84" y="14.84" width="3.08" height="3.08" fill="#D97757"/>
<rect x="22.96" y="17.92" width="3.08" height="3.08" fill="#D97757"/>
<rect x="26.04" y="17.92" width="3.08" height="3.08" fill="#D97757"/>
<rect x="29.12" y="17.92" width="3.08" height="3.08" fill="#D97757"/>
<rect x="32.2" y="17.92" width="3.08" height="3.08" fill="#D97757"/>
<rect x="35.28" y="17.92" width="3.08" height="3.08" fill="#D97757"/>
<rect x="38.36" y="17.92" width="3.08" height="3.08" fill="#D97757"/>
<rect x="41.44" y="17.92" width="3.08" height="3.08" fill="#D97757"/>
<rect x="44.52" y="17.92" width="3.08" height="3.08" fill="#D97757"/>
<rect x="47.6" y="17.92" width="3.08" height="3.08" fill="#D97757"/>
<rect x="50.68" y="17.92" width="3.08" height="3.08" fill="#D97757"/>
<rect x="53.76" y="17.92" width="3.08" height="3.08" fill="#D97757"/>
<rect x="56.84" y="17.92" width="3.08" height="3.08" fill="#D97757"/>
<rect x="59.92" y="17.92" width="3.08" height="3.08" fill="#D97757"/>
<rect x="19.88" y="21.0" width="3.08" height="3.08" fill="#D97757"/>
<rect x="22.96" y="21.0" width="3.08" height="3.08" fill="#D97757"/>
<rect x="26.04" y="21.0" width="3.08" height="3.08" fill="#D97757"/>
<rect x="29.12" y="21.0" width="3.08" height="3.08" fill="#D97757"/>
<rect x="32.2" y="21.0" width="3.08" height="3.08" fill="#D97757"/>
<rect x="35.28" y="21.0" width="3.08" height="3.08" fill="#D97757"/>
<rect x="38.36" y="21.0" width="3.08" height="3.08" fill="#D97757"/>
<rect x="41.44" y="21.0" width="3.08" height="3.08" fill="#D97757"/>
<rect x="44.52" y="21.0" width="3.08" height="3.08" fill="#D97757"/>
<rect x="47.6" y="21.0" width="3.08" height="3.08" fill="#D97757"/>
<rect x="50.68" y="21.0" width="3.08" height="3.08" fill="#D97757"/>
<rect x="53.76" y="21.0" width="3.08" height="3.08" fill="#D97757"/>
<rect x="56.84" y="21.0" width="3.08" height="3.08" fill="#D97757"/>
<rect x="22.96" y="24.08" width="3.08" height="3.08" fill="#D97757"/>
<rect x="26.04" y="24.08" width="3.08" height="3.08" fill="#D97757"/>
<rect x="29.12" y="24.08" width="3.08" height="3.08" fill="#D97757"/>
<rect x="32.2" y="24.08" width="3.08" height="3.08" fill="#D97757"/>
<rect x="35.28" y="24.08" width="3.08" height="3.08" fill="#D97757"/>
<rect x="38.36" y="24.08" width="3.08" height="3.08" fill="#D97757"/>
<rect x="41.44" y="24.08" width="3.08" height="3.08" fill="#D97757"/>
<rect x="44.52" y="24.08" width="3.08" height="3.08" fill="#D97757"/>
<rect x="47.6" y="24.08" width="3.08" height="3.08" fill="#D97757"/>
<rect x="50.68" y="24.08" width="3.08" height="3.08" fill="#D97757"/>
<rect x="53.76" y="24.08" width="3.08" height="3.08" fill="#D97757"/>
<rect x="56.84" y="24.08" width="3.08" height="3.08" fill="#D97757"/>
<rect x="26.04" y="27.16" width="3.08" height="3.08" fill="#D97757"/>
<rect x="29.12" y="27.16" width="3.08" height="3.08" fill="#D97757"/>
<rect x="50.68" y="27.16" width="3.08" height="3.08" fill="#D97757"/>
<rect x="53.76" y="27.16" width="3.08" height="3.08" fill="#D97757"/>
<rect x="26.04" y="30.24" width="3.08" height="3.08" fill="#D97757"/>
<rect x="29.12" y="30.24" width="3.08" height="3.08" fill="#D97757"/>
<rect x="50.68" y="30.24" width="3.08" height="3.08" fill="#D97757"/>
<rect x="53.76" y="30.24" width="3.08" height="3.08" fill="#D97757"/>
<rect x="80.08" y="7.0" width="28.0" height="28.0" rx="7.0" fill="#D97757"/>
<line x1="85.68" y1="21.0" x2="102.48" y2="21.0" stroke="#ffffff" stroke-width="2.52" stroke-linecap="round"/>
<line x1="88.14" y1="15.06" x2="100.02" y2="26.94" stroke="#ffffff" stroke-width="2.52" stroke-linecap="round"/>
<line x1="94.08" y1="12.6" x2="94.08" y2="29.4" stroke="#ffffff" stroke-width="2.52" stroke-linecap="round"/>
<line x1="100.02" y1="15.06" x2="88.14" y2="26.94" stroke="#ffffff" stroke-width="2.52" stroke-linecap="round"/>
<text x="115.08" y="18.9" font-family="-apple-system,'Helvetica Neue',Arial,sans-serif" font-size="14.7" font-weight="700" fill="#f2f2f7" text-anchor="start">Claude</text>
<circle cx="119.56" cy="29.82" r="3.5" fill="#30D158"/>
<text x="126.98" y="33.32" font-family="-apple-system,'Helvetica Neue',Arial,sans-serif" font-size="10.5" font-weight="600" fill="#9a9aa8" text-anchor="start">Live</text>
<rect x="182.28" y="5.6" width="1.12" height="30.8" fill="#ffffff" opacity="0.14"/>
<text x="194.88" y="17.92" font-family="-apple-system,'Helvetica Neue',Arial,sans-serif" font-size="11.2" font-weight="600" fill="#9a9aa8" text-anchor="start">5h</text>
<text x="217.28" y="19.32" font-family="ui-monospace,SFMono-Regular,Menlo,monospace" font-size="14.7" font-weight="700" fill="#f2f2f7" text-anchor="start">85%</text>
<text x="194.88" y="36.12" font-family="-apple-system,'Helvetica Neue',Arial,sans-serif" font-size="11.2" font-weight="600" fill="#9a9aa8" text-anchor="start">Wk</text>
<text x="217.28" y="37.52" font-family="ui-monospace,SFMono-Regular,Menlo,monospace" font-size="14.7" font-weight="700" fill="#f2f2f7" text-anchor="start">47%</text>
<rect x="262.08" y="7.7" width="107.1" height="7.0" rx="3.5" fill="#FFD60A"/>
<rect x="371.98" y="7.7" width="16.1" height="7.0" rx="3.5" fill="#B8C6DE" opacity="0.85"/>
<text x="393.68" y="15.26" font-family="ui-monospace,SFMono-Regular,Menlo,monospace" font-size="10.5" font-weight="500" fill="#9a9aa8" text-anchor="start">15%L</text>
<rect x="262.08" y="26.6" width="59.22" height="7.0" rx="3.5" fill="#FF9F0A"/>
<rect x="324.1" y="26.6" width="63.98" height="7.0" rx="3.5" fill="#B8C6DE" opacity="0.85"/>
<text x="393.68" y="34.16" font-family="ui-monospace,SFMono-Regular,Menlo,monospace" font-size="10.5" font-weight="500" fill="#9a9aa8" text-anchor="start">53%L</text>
<rect x="438.48" y="5.6" width="1.12" height="30.8" fill="#ffffff" opacity="0.14"/>
<text x="451.08" y="16.1" font-family="-apple-system,'Helvetica Neue',Arial,sans-serif" font-size="9.1" font-weight="700" fill="#9a9aa8" letter-spacing="1.2" text-anchor="start">RESET</text>
<text x="451.08" y="35.7" font-family="ui-monospace,SFMono-Regular,Menlo,monospace" font-size="15.4" font-weight="700" fill="#f2f2f7" text-anchor="start">2h 07m</text>
<rect x="535.08" y="7.0" width="28.0" height="28.0" rx="7.0" fill="#ffffff"/>
<polygon points="555.87,24.92 549.08,28.84 542.29,24.92 542.29,17.08 549.08,13.16 555.87,17.08" fill="none" stroke="#000000" stroke-width="2.8" stroke-linejoin="round"/>
<text x="570.08" y="18.9" font-family="-apple-system,'Helvetica Neue',Arial,sans-serif" font-size="14.7" font-weight="700" fill="#f2f2f7" text-anchor="start">GPT Codex</text>
<circle cx="574.56" cy="29.82" r="3.5" fill="#30D158"/>
<text x="581.98" y="33.32" font-family="-apple-system,'Helvetica Neue',Arial,sans-serif" font-size="10.5" font-weight="600" fill="#9a9aa8" text-anchor="start">Live</text>
<rect x="662.48" y="5.6" width="1.12" height="30.8" fill="#ffffff" opacity="0.14"/>
<text x="675.08" y="17.92" font-family="-apple-system,'Helvetica Neue',Arial,sans-serif" font-size="11.2" font-weight="600" fill="#9a9aa8" text-anchor="start">5h</text>
<text x="697.48" y="19.32" font-family="ui-monospace,SFMono-Regular,Menlo,monospace" font-size="14.7" font-weight="700" fill="#f2f2f7" text-anchor="start">51%</text>
<text x="675.08" y="36.12" font-family="-apple-system,'Helvetica Neue',Arial,sans-serif" font-size="11.2" font-weight="600" fill="#9a9aa8" text-anchor="start">Wk</text>
<text x="697.48" y="37.52" font-family="ui-monospace,SFMono-Regular,Menlo,monospace" font-size="14.7" font-weight="700" fill="#f2f2f7" text-anchor="start">56%</text>
<rect x="742.28" y="7.7" width="64.26" height="7.0" rx="3.5" fill="#30D158"/>
<rect x="809.34" y="7.7" width="58.94" height="7.0" rx="3.5" fill="#B8C6DE" opacity="0.85"/>
<text x="873.88" y="15.26" font-family="ui-monospace,SFMono-Regular,Menlo,monospace" font-size="10.5" font-weight="500" fill="#9a9aa8" text-anchor="start">49%L</text>
<rect x="742.28" y="26.6" width="70.56" height="7.0" rx="3.5" fill="#30D158"/>
<rect x="815.64" y="26.6" width="52.64" height="7.0" rx="3.5" fill="#B8C6DE" opacity="0.85"/>
<text x="873.88" y="34.16" font-family="ui-monospace,SFMono-Regular,Menlo,monospace" font-size="10.5" font-weight="500" fill="#9a9aa8" text-anchor="start">44%L</text>
<rect x="918.68" y="5.6" width="1.12" height="30.8" fill="#ffffff" opacity="0.14"/>
<text x="931.28" y="16.1" font-family="-apple-system,'Helvetica Neue',Arial,sans-serif" font-size="9.1" font-weight="700" fill="#9a9aa8" letter-spacing="1.2" text-anchor="start">RESET</text>
<text x="931.28" y="35.7" font-family="ui-monospace,SFMono-Regular,Menlo,monospace" font-size="15.4" font-weight="700" fill="#f2f2f7" text-anchor="start">1h 46m</text>
</svg>