<svg xmlns="http://www.w3.org/2000/svg" viewBox="0 0 720 42" width="720" height="42" role="img"><rect x="0" y="0" width="720" height="42" rx="9" fill="#000000"/><rect x="18.00" y="10.00" width="2.00" height="2.00" fill="#64D2FF"/><rect x="20.00" y="10.00" width="2.00" height="2.00" fill="#64D2FF"/><rect x="22.00" y="10.00" width="2.00" height="2.00" fill="#64D2FF"/><rect x="24.00" y="10.00" width="2.00" height="2.00" fill="#64D2FF"/><rect x="16.00" y="12.00" width="2.00" height="2.00" fill="#64D2FF"/><rect x="18.00" y="12.00" width="2.00" height="2.00" fill="#64D2FF"/><rect x="20.00" y="12.00" width="2.00" height="2.00" fill="#64D2FF"/><rect x="22.00" y="12.00" width="2.00" height="2.00" fill="#64D2FF"/><rect x="24.00" y="12.00" width="2.00" height="2.00" fill="#64D2FF"/><rect x="26.00" y="12.00" width="2.00" height="2.00" fill="#64D2FF"/><rect x="16.00" y="14.00" width="2.00" height="2.00" fill="#64D2FF"/><rect x="20.00" y="14.00" width="2.00" height="2.00" fill="#64D2FF"/><rect x="22.00" y="14.00" width="2.00" height="2.00" fill="#64D2FF"/><rect x="26.00" y="14.00" width="2.00" height="2.00" fill="#64D2FF"/><rect x="16.00" y="16.00" width="2.00" height="2.00" fill="#64D2FF"/><rect x="18.00" y="16.00" width="2.00" height="2.00" fill="#64D2FF"/><rect x="20.00" y="16.00" width="2.00" height="2.00" fill="#64D2FF"/><rect x="22.00" y="16.00" width="2.00" height="2.00" fill="#64D2FF"/><rect x="24.00" y="16.00" width="2.00" height="2.00" fill="#64D2FF"/><rect x="26.00" y="16.00" width="2.00" height="2.00" fill="#64D2FF"/><rect x="14.00" y="18.00" width="2.00" height="2.00" fill="#64D2FF"/><rect x="16.00" y="18.00" width="2.00" height="2.00" fill="#64D2FF"/><rect x="18.00" y="18.00" width="2.00" height="2.00" fill="#64D2FF"/><rect x="20.00" y="18.00" width="2.00" height="2.00" fill="#64D2FF"/><rect x="22.00" y="18.00" width="2.00" height="2.00" fill="#64D2FF"/><rect x="24.00" y="18.00" width="2.00" height="2.00" fill="#64D2FF"/><rect x="26.00" y="18.00" width="2.00" height="2.00" fill="#64D2FF"/><rect x="28.00" y="18.00" width="2.00" height="2.00" fill="#64D2FF"/><rect x="12.00" y="20.00" width="2.00" height="2.00" fill="#64D2FF"/><rect x="14.00" y="20.00" width="2.00" height="2.00" fill="#64D2FF"/><rect x="16.00" y="20.00" width="2.00" height="2.00" fill="#64D2FF"/><rect x="18.00" y="20.00" width="2.00" height="2.00" fill="#64D2FF"/><rect x="20.00" y="20.00" width="2.00" height="2.00" fill="#64D2FF"/><rect x="22.00" y="20.00" width="2.00" height="2.00" fill="#64D2FF"/><rect x="24.00" y="20.00" width="2.00" height="2.00" fill="#64D2FF"/><rect x="26.00" y="20.00" width="2.00" height="2.00" fill="#64D2FF"/><rect x="28.00" y="20.00" width="2.00" height="2.00" fill="#64D2FF"/><rect x="12.00" y="22.00" width="2.00" height="2.00" fill="#64D2FF"/><rect x="14.00" y="22.00" width="2.00" height="2.00" fill="#64D2FF"/><rect x="16.00" y="22.00" width="2.00" height="2.00" fill="#64D2FF"/><rect x="18.00" y="22.00" width="2.00" height="2.00" fill="#64D2FF"/><rect x="20.00" y="22.00" width="2.00" height="2.00" fill="#64D2FF"/><rect x="22.00" y="22.00" width="2.00" height="2.00" fill="#64D2FF"/><rect x="24.00" y="22.00" width="2.00" height="2.00" fill="#64D2FF"/><rect x="26.00" y="22.00" width="2.00" height="2.00" fill="#64D2FF"/><rect x="28.00" y="22.00" width="2.00" height="2.00" fill="#64D2FF"/><rect x="14.00" y="24.00" width="2.00" height="2.00" fill="#64D2FF"/><rect x="16.00" y="24.00" width="2.00" height="2.00" fill="#64D2FF"/><rect x="18.00" y="24.00" width="2.00" height="2.00" fill="#64D2FF"/><rect x="20.00" y="24.00" width="2.00" height="2.00" fill="#64D2FF"/><rect x="22.00" y="24.00" width="2.00" height="2.00" fill="#64D2FF"/><rect x="24.00" y="24.00" width="2.00" height="2.00" fill="#64D2FF"/><rect x="26.00" y="24.00" width="2.00" height="2.00" fill="#64D2FF"/><rect x="28.00" y="24.00" width="2.00" height="2.00" fill="#64D2FF"/><rect x="16.00" y="26.00" width="2.00" height="2.00" fill="#64D2FF"/><rect x="18.00" y="26.00" width="2.00" height="2.00" fill="#64D2FF"/><rect x="20.00" y="26.00" width="2.00" height="2.00" fill="#64D2FF"/><rect x="22.00" y="26.00" width="2.00" height="2.00" fill="#64D2FF"/><rect x="24.00" y="26.00" width="2.00" height="2.00" fill="#64D2FF"/><rect x="26.00" y="26.00" width="2.00" height="2.00" fill="#64D2FF"/><rect x="14.00" y="28.00" width="2.00" height="2.00" fill="#64D2FF"/><rect x="16.00" y="28.00" width="2.00" height="2.00" fill="#64D2FF"/><rect x="26.00" y="28.00" width="2.00" height="2.00" fill="#64D2FF"/><rect x="28.00" y="28.00" width="2.00" height="2.00" fill="#64D2FF"/><rect x="14.00" y="30.00" width="2.00" height="2.00" fill="#64D2FF"/><rect x="16.00" y="30.00" width="2.00" height="2.00" fill="#64D2FF"/><text x="46" y="25.0" font-family="-apple-system, 'SF Pro Text', 'Segoe UI', system-ui, sans-serif" font-size="11.5" font-weight="600" fill="#98989D">5h</text><rect x="73" y="15.0" width="180" height="12" rx="6" fill="#F2F2F7" fill-opacity="0.10"/><rect x="73" y="15.5" width="7" height="11" rx="2" fill="#98989D"/><rect x="78" y="13.0" width="117" height="16" rx="8" fill="#0A84FF" opacity="0.3"><animate attributeName="opacity" values="0.22;0.45;0.22" dur="1.4s" repeatCount="indefinite"/></rect><rect x="80" y="15.0" width="113" height="12" rx="6" fill="#0A84FF" opacity="0.92"/><rect x="82" y="18.5" width="109" height="5" rx="2.5" fill="#FFFFFF" opacity="0.85"/><ellipse cx="88" cy="21.0" rx="7" ry="5.5" fill="#FFFFFF" opacity="0.55"><animate attributeName="cx" values="88;185.4;88" dur="1.9599999999999997s" repeatCount="indefinite"/></ellipse><text x="261" y="25.0" font-family="ui-monospace, 'SF Mono', SFMono-Regular, Menlo, Consolas, monospace" font-size="12" font-weight="600" fill="#F2F2F7">63% ↻1:42</text><rect x="356" y="20.0" width="8" height="2" fill="#98989D" fill-opacity="0.45"/><text x="376" y="25.0" font-family="-apple-system, 'SF Pro Text', 'Segoe UI', system-ui, sans-serif" font-size="11.5" font-weight="600" fill="#98989D">Wk</text><rect x="403" y="15.0" width="180" height="12" rx="6" fill="#F2F2F7" fill-opacity="0.10"/><rect x="403" y="15.5" width="7" height="11" rx="2" fill="#98989D"/><rect x="408" y="13.0" width="112" height="16" rx="8" fill="#0A84FF" opacity="0.3"><animate attributeName="opacity" values="0.22;0.45;0.22" dur="1.7s" repeatCount="indefinite"/></rect><rect x="410" y="15.0" width="108" height="12" rx="6" fill="#0A84FF" opacity="0.92"/><rect x="412" y="18.5" width="104" height="5" rx="2.5" fill="#FFFFFF" opacity="0.85"/><ellipse cx="418" cy="21.0" rx="7" ry="5.5" fill="#FFFFFF" opacity="0.55"><animate attributeName="cx" values="418;510.0;418" dur="2.38s" repeatCount="indefinite"/></ellipse><text x="591" y="25.0" font-family="ui-monospace, 'SF Mono', SFMono-Regular, Menlo, Consolas, monospace" font-size="12" font-weight="600" fill="#F2F2F7">60%</text><rect x="652" y="10" width="30" height="22" rx="6" fill="#48484A"/><text x="667.0" y="24.5" text-anchor="middle" font-family="-apple-system, 'SF Pro Text', 'Segoe UI', system-ui, sans-serif" font-size="11" font-weight="600" fill="#FFFFFF">⚙</text><rect x="688" y="10" width="24" height="22" rx="6" fill="#48484A"/><text x="700.0" y="24.5" text-anchor="middle" font-family="-apple-system, 'SF Pro Text', 'Segoe UI', system-ui, sans-serif" font-size="11" font-weight="600" fill="#FFFFFF">✕</text></svg>
