<svg xmlns="http://www.w3.org/2000/svg" viewBox="0 0 458 128" width="458" height="128" role="img"><rect x="0" y="0" width="458" height="128" rx="12" fill="#101014"/><rect x="34.00" y="36.00" width="6.00" height="6.00" fill="#D97757"/><rect x="40.00" y="36.00" width="6.00" height="6.00" fill="#D97757"/><rect x="46.00" y="36.00" width="6.00" height="6.00" fill="#D97757"/><rect x="52.00" y="36.00" width="6.00" height="6.00" fill="#D97757"/><rect x="58.00" y="36.00" width="6.00" height="6.00" fill="#D97757"/><rect x="64.00" y="36.00" width="6.00" height="6.00" fill="#D97757"/><rect x="70.00" y="36.00" width="6.00" height="6.00" fill="#D97757"/><rect x="76.00" y="36.00" width="6.00" height="6.00" fill="#D97757"/><rect x="82.00" y="36.00" width="6.00" height="6.00" fill="#D97757"/><rect x="88.00" y="36.00" width="6.00" height="6.00" fill="#D97757"/><rect x="94.00" y="36.00" width="6.00" height="6.00" fill="#D97757"/><rect x="100.00" y="36.00" width="6.00" height="6.00" fill="#D97757"/><rect x="34.00" y="42.00" width="6.00" height="6.00" fill="#D97757"/><rect x="40.00" y="42.00" width="6.00" height="6.00" fill="#D97757"/><rect x="46.00" y="42.00" width="6.00" height="6.00" fill="#D97757"/><rect x="58.00" y="42.00" width="6.00" height="6.00" fill="#D97757"/><rect x="64.00" y="42.00" width="6.00" height="6.00" fill="#D97757"/><rect x="70.00" y="42.00" width="6.00" height="6.00" fill="#D97757"/><rect x="76.00" y="42.00" width="6.00" height="6.00" fill="#D97757"/><rect x="88.00" y="42.00" width="6.00" height="6.00" fill="#D97757"/><rect x="94.00" y="42.00" width="6.00" height="6.00" fill="#D97757"/><rect x="100.00" y="42.00" width="6.00" height="6.00" fill="#D97757"/><rect x="34.00" y="48.00" width="6.00" height="6.00" fill="#D97757"/><rect x="40.00" y="48.00" width="6.00" height="6.00" fill="#D97757"/><rect x="46.00" y="48.00" width="6.00" height="6.00" fill="#D97757"/><rect x="58.00" y="48.00" width="6.00" height="6.00" fill="#D97757"/><rect x="64.00" y="48.00" width="6.00" height="6.00" fill="#D97757"/><rect x="70.00" y="48.00" width="6.00" height="6.00" fill="#D97757"/><rect x="76.00" y="48.00" width="6.00" height="6.00" fill="#D97757"/><rect x="88.00" y="48.00" width="6.00" height="6.00" fill="#D97757"/><rect x="94.00" y="48.00" width="6.00" height="6.00" fill="#D97757"/><rect x="100.00" y="48.00" width="6.00" height="6.00" fill="#D97757"/><rect x="34.00" y="54.00" width="6.00" height="6.00" fill="#D97757"/><rect x="40.00" y="54.00" width="6.00" height="6.00" fill="#D97757"/><rect x="46.00" y="54.00" width="6.00" height="6.00" fill="#D97757"/><rect x="52.00" y="54.00" width="6.00" height="6.00" fill="#D97757"/><rect x="58.00" y="54.00" width="6.00" height="6.00" fill="#D97757"/><rect x="64.00" y="54.00" width="6.00" height="6.00" fill="#D97757"/><rect x="70.00" y="54.00" width="6.00" height="6.00" fill="#D97757"/><rect x="76.00" y="54.00" width="6.00" height="6.00" fill="#D97757"/><rect x="82.00" y="54.00" width="6.00" height="6.00" fill="#D97757"/><rect x="88.00" y="54.00" width="6.00" height="6.00" fill="#D97757"/><rect x="94.00" y="54.00" width="6.00" height="6.00" fill="#D97757"/><rect x="100.00" y="54.00" width="6.00" height="6.00" fill="#D97757"/><rect x="106.00" y="54.00" width="6.00" height="6.00" fill="#D97757"/><rect x="28.00" y="60.00" width="6.00" height="6.00" fill="#D97757"/><rect x="34.00" y="60.00" width="6.00" height="6.00" fill="#D97757"/><rect x="40.00" y="60.00" width="6.00" height="6.00" fill="#D97757"/><rect x="46.00" y="60.00" width="6.00" height="6.00" fill="#D97757"/><rect x="52.00" y="60.00" width="6.00" height="6.00" fill="#D97757"/><rect x="58.00" y="60.00" width="6.00" height="6.00" fill="#D97757"/><rect x="64.00" y="60.00" width="6.00" height="6.00" fill="#D97757"/><rect x="70.00" y="60.00" width="6.00" height="6.00" fill="#D97757"/><rect x="76.00" y="60.00" width="6.00" height="6.00" fill="#D97757"/><rect x="82.00" y="60.00" width="6.00" height="6.00" fill="#D97757"/><rect x="88.00" y="60.00" width="6.00" height="6.00" fill="#D97757"/><rect x="94.00" y="60.00" width="6.00" height="6.00" fill="#D97757"/><rect x="100.00" y="60.00" width="6.00" height="6.00" fill="#D97757"/><rect x="34.00" y="66.00" width="6.00" height="6.00" fill="#D97757"/><rect x="40.00" y="66.00" width="6.00" height="6.00" fill="#D97757"/><rect x="46.00" y="66.00" width="6.00" height="6.00" fill="#D97757"/><rect x="52.00" y="66.00" width="6.00" height="6.00" fill="#D97757"/><rect x="58.00" y="66.00" width="6.00" height="6.00" fill="#D97757"/><rect x="64.00" y="66.00" width="6.00" height="6.00" fill="#D97757"/><rect x="70.00" y="66.00" width="6.00" height="6.00" fill="#D97757"/><rect x="76.00" y="66.00" width="6.00" height="6.00" fill="#D97757"/><rect x="82.00" y="66.00" width="6.00" height="6.00" fill="#D97757"/><rect x="88.00" y="66.00" width="6.00" height="6.00" fill="#D97757"/><rect x="94.00" y="66.00" width="6.00" height="6.00" fill="#D97757"/><rect x="100.00" y="66.00" width="6.00" height="6.00" fill="#D97757"/><rect x="40.00" y="72.00" width="6.00" height="6.00" fill="#D97757"/><rect x="46.00" y="72.00" width="6.00" height="6.00" fill="#D97757"/><rect x="88.00" y="72.00" width="6.00" height="6.00" fill="#D97757"/><rect x="94.00" y="72.00" width="6.00" height="6.00" fill="#D97757"/><rect x="40.00" y="78.00" width="6.00" height="6.00" fill="#D97757"/><rect x="46.00" y="78.00" width="6.00" height="6.00" fill="#D97757"/><rect x="88.00" y="78.00" width="6.00" height="6.00" fill="#D97757"/><rect x="94.00" y="78.00" width="6.00" height="6.00" fill="#D97757"/><text x="70.0" y="116" text-anchor="middle" font-family="-apple-system, 'SF Pro Text', 'Segoe UI', system-ui, sans-serif" font-size="12" fill="#98989D">Clawd</text><rect x="164.00" y="18.00" width="6.00" height="6.00" fill="#64D2FF"/><rect x="170.00" y="18.00" width="6.00" height="6.00" fill="#64D2FF"/><rect x="176.00" y="18.00" width="6.00" height="6.00" fill="#64D2FF"/><rect x="182.00" y="18.00" width="6.00" height="6.00" fill="#64D2FF"/><rect x="158.00" y="24.00" width="6.00" height="6.00" fill="#64D2FF"/><rect x="164.00" y="24.00" width="6.00" height="6.00" fill="#64D2FF"/><rect x="170.00" y="24.00" width="6.00" height="6.00" fill="#64D2FF"/><rect x="176.00" y="24.00" width="6.00" height="6.00" fill="#64D2FF"/><rect x="182.00" y="24.00" width="6.00" height="6.00" fill="#64D2FF"/><rect x="188.00" y="24.00" width="6.00" height="6.00" fill="#64D2FF"/><rect x="158.00" y="30.00" width="6.00" height="6.00" fill="#64D2FF"/><rect x="170.00" y="30.00" width="6.00" height="6.00" fill="#64D2FF"/><rect x="176.00" y="30.00" width="6.00" height="6.00" fill="#64D2FF"/><rect x="188.00" y="30.00" width="6.00" height="6.00" fill="#64D2FF"/><rect x="158.00" y="36.00" width="6.00" height="6.00" fill="#64D2FF"/><rect x="164.00" y="36.00" width="6.00" height="6.00" fill="#64D2FF"/><rect x="170.00" y="36.00" width="6.00" height="6.00" fill="#64D2FF"/><rect x="176.00" y="36.00" width="6.00" height="6.00" fill="#64D2FF"/><rect x="182.00" y="36.00" width="6.00" height="6.00" fill="#64D2FF"/><rect x="188.00" y="36.00" width="6.00" height="6.00" fill="#64D2FF"/><rect x="152.00" y="42.00" width="6.00" height="6.00" fill="#64D2FF"/><rect x="158.00" y="42.00" width="6.00" height="6.00" fill="#64D2FF"/><rect x="164.00" y="42.00" width="6.00" height="6.00" fill="#64D2FF"/><rect x="170.00" y="42.00" width="6.00" height="6.00" fill="#64D2FF"/><rect x="176.00" y="42.00" width="6.00" height="6.00" fill="#64D2FF"/><rect x="182.00" y="42.00" width="6.00" height="6.00" fill="#64D2FF"/><rect x="188.00" y="42.00" width="6.00" height="6.00" fill="#64D2FF"/><rect x="194.00" y="42.00" width="6.00" height="6.00" fill="#64D2FF"/><rect x="146.00" y="48.00" width="6.00" height="6.00" fill="#64D2FF"/><rect x="152.00" y="48.00" width="6.00" height="6.00" fill="#64D2FF"/><rect x="158.00" y="48.00" width="6.00" height="6.00" fill="#64D2FF"/><rect x="164.00" y="48.00" width="6.00" height="6.00" fill="#64D2FF"/><rect x="170.00" y="48.00" width="6.00" height="6.00" fill="#64D2FF"/><rect x="176.00" y="48.00" width="6.00" height="6.00" fill="#64D2FF"/><rect x="182.00" y="48.00" width="6.00" height="6.00" fill="#64D2FF"/><rect x="188.00" y="48.00" width="6.00" height="6.00" fill="#64D2FF"/><rect x="194.00" y="48.00" width="6.00" height="6.00" fill="#64D2FF"/><rect x="146.00" y="54.00" width="6.00" height="6.00" fill="#64D2FF"/><rect x="152.00" y="54.00" width="6.00" height="6.00" fill="#64D2FF"/><rect x="158.00" y="54.00" width="6.00" height="6.00" fill="#64D2FF"/><rect x="164.00" y="54.00" width="6.00" height="6.00" fill="#64D2FF"/><rect x="170.00" y="54.00" width="6.00" height="6.00" fill="#64D2FF"/><rect x="176.00" y="54.00" width="6.00" height="6.00" fill="#64D2FF"/><rect x="182.00" y="54.00" width="6.00" height="6.00" fill="#64D2FF"/><rect x="188.00" y="54.00" width="6.00" height="6.00" fill="#64D2FF"/><rect x="194.00" y="54.00" width="6.00" height="6.00" fill="#64D2FF"/><rect x="152.00" y="60.00" width="6.00" height="6.00" fill="#64D2FF"/><rect x="158.00" y="60.00" width="6.00" height="6.00" fill="#64D2FF"/><rect x="164.00" y="60.00" width="6.00" height="6.00" fill="#64D2FF"/><rect x="170.00" y="60.00" width="6.00" height="6.00" fill="#64D2FF"/><rect x="176.00" y="60.00" width="6.00" height="6.00" fill="#64D2FF"/><rect x="182.00" y="60.00" width="6.00" height="6.00" fill="#64D2FF"/><rect x="188.00" y="60.00" width="6.00" height="6.00" fill="#64D2FF"/><rect x="194.00" y="60.00" width="6.00" height="6.00" fill="#64D2FF"/><rect x="158.00" y="66.00" width="6.00" height="6.00" fill="#64D2FF"/><rect x="164.00" y="66.00" width="6.00" height="6.00" fill="#64D2FF"/><rect x="170.00" y="66.00" width="6.00" height="6.00" fill="#64D2FF"/><rect x="176.00" y="66.00" width="6.00" height="6.00" fill="#64D2FF"/><rect x="182.00" y="66.00" width="6.00" height="6.00" fill="#64D2FF"/><rect x="188.00" y="66.00" width="6.00" height="6.00" fill="#64D2FF"/><rect x="152.00" y="72.00" width="6.00" height="6.00" fill="#64D2FF"/><rect x="158.00" y="72.00" width="6.00" height="6.00" fill="#64D2FF"/><rect x="188.00" y="72.00" width="6.00" height="6.00" fill="#64D2FF"/><rect x="194.00" y="72.00" width="6.00" height="6.00" fill="#64D2FF"/><rect x="152.00" y="78.00" width="6.00" height="6.00" fill="#64D2FF"/><rect x="158.00" y="78.00" width="6.00" height="6.00" fill="#64D2FF"/><text x="176.0" y="116" text-anchor="middle" font-family="-apple-system, 'SF Pro Text', 'Segoe UI', system-ui, sans-serif" font-size="12" fill="#98989D">Penguin</text><rect x="270.00" y="30.00" width="6.00" height="6.00" fill="#00FF66"/><rect x="276.00" y="30.00" width="6.00" height="6.00" fill="#00FF66"/><rect x="264.00" y="36.00" width="6.00" height="6.00" fill="#00FF66"/><rect x="270.00" y="36.00" width="6.00" height="6.00" fill="#00FF66"/><rect x="276.00" y="36.00" width="6.00" height="6.00" fill="#00FF66"/><rect x="282.00" y="36.00" width="6.00" height="6.00" fill="#00FF66"/><rect x="270.00" y="42.00" width="6.00" height="6.00" fill="#00FF66"/><rect x="276.00" y="42.00" width="6.00" height="6.00" fill="#00FF66"/><rect x="318.00" y="42.00" width="6.00" height="6.00" fill="#00FF66"/><rect x="330.00" y="42.00" width="6.00" height="6.00" fill="#00FF66"/><rect x="276.00" y="48.00" width="6.00" height="6.00" fill="#00FF66"/><rect x="312.00" y="48.00" width="6.00" height="6.00" fill="#00FF66"/><rect x="318.00" y="48.00" width="6.00" height="6.00" fill="#00FF66"/><rect x="324.00" y="48.00" width="6.00" height="6.00" fill="#00FF66"/><rect x="330.00" y="48.00" width="6.00" height="6.00" fill="#00FF66"/><rect x="240.00" y="54.00" width="6.00" height="6.00" fill="#00FF66"/><rect x="276.00" y="54.00" width="6.00" height="6.00" fill="#00FF66"/><rect x="294.00" y="54.00" width="6.00" height="6.00" fill="#00FF66"/><rect x="300.00" y="54.00" width="6.00" height="6.00" fill="#00FF66"/><rect x="306.00" y="54.00" width="6.00" height="6.00" fill="#00FF66"/><rect x="312.00" y="54.00" width="6.00" height="6.00" fill="#00FF66"/><rect x="318.00" y="54.00" width="6.00" height="6.00" fill="#00FF66"/><rect x="324.00" y="54.00" width="6.00" height="6.00" fill="#00FF66"/><rect x="330.00" y="54.00" width="6.00" height="6.00" fill="#00FF66"/><rect x="336.00" y="54.00" width="6.00" height="6.00" fill="#00FF66"/><rect x="246.00" y="60.00" width="6.00" height="6.00" fill="#00FF66"/><rect x="252.00" y="60.00" width="6.00" height="6.00" fill="#00FF66"/><rect x="270.00" y="60.00" width="6.00" height="6.00" fill="#00FF66"/><rect x="276.00" y="60.00" width="6.00" height="6.00" fill="#00FF66"/><rect x="282.00" y="60.00" width="6.00" height="6.00" fill="#00FF66"/><rect x="288.00" y="60.00" width="6.00" height="6.00" fill="#00FF66"/><rect x="294.00" y="60.00" width="6.00" height="6.00" fill="#00FF66"/><rect x="300.00" y="60.00" width="6.00" height="6.00" fill="#00FF66"/><rect x="306.00" y="60.00" width="6.00" height="6.00" fill="#00FF66"/><rect x="312.00" y="60.00" width="6.00" height="6.00" fill="#00FF66"/><rect x="318.00" y="60.00" width="6.00" height="6.00" fill="#00FF66"/><rect x="324.00" y="60.00" width="6.00" height="6.00" fill="#00FF66"/><rect x="330.00" y="60.00" width="6.00" height="6.00" fill="#00FF66"/><rect x="336.00" y="60.00" width="6.00" height="6.00" fill="#00FF66"/><rect x="252.00" y="66.00" width="6.00" height="6.00" fill="#00FF66"/><rect x="258.00" y="66.00" width="6.00" height="6.00" fill="#00FF66"/><rect x="264.00" y="66.00" width="6.00" height="6.00" fill="#00FF66"/><rect x="270.00" y="66.00" width="6.00" height="6.00" fill="#00FF66"/><rect x="276.00" y="66.00" width="6.00" height="6.00" fill="#00FF66"/><rect x="282.00" y="66.00" width="6.00" height="6.00" fill="#00FF66"/><rect x="288.00" y="66.00" width="6.00" height="6.00" fill="#00FF66"/><rect x="294.00" y="66.00" width="6.00" height="6.00" fill="#00FF66"/><rect x="300.00" y="66.00" width="6.00" height="6.00" fill="#00FF66"/><rect x="306.00" y="66.00" width="6.00" height="6.00" fill="#00FF66"/><rect x="312.00" y="66.00" width="6.00" height="6.00" fill="#00FF66"/><rect x="318.00" y="66.00" width="6.00" height="6.00" fill="#00FF66"/><rect x="324.00" y="66.00" width="6.00" height="6.00" fill="#00FF66"/><rect x="330.00" y="66.00" width="6.00" height="6.00" fill="#00FF66"/><rect x="258.00" y="72.00" width="6.00" height="6.00" fill="#00FF66"/><rect x="264.00" y="72.00" width="6.00" height="6.00" fill="#00FF66"/><rect x="270.00" y="72.00" width="6.00" height="6.00" fill="#00FF66"/><rect x="276.00" y="72.00" width="6.00" height="6.00" fill="#00FF66"/><rect x="282.00" y="72.00" width="6.00" height="6.00" fill="#00FF66"/><rect x="288.00" y="72.00" width="6.00" height="6.00" fill="#00FF66"/><rect x="294.00" y="72.00" width="6.00" height="6.00" fill="#00FF66"/><rect x="300.00" y="72.00" width="6.00" height="6.00" fill="#00FF66"/><rect x="306.00" y="72.00" width="6.00" height="6.00" fill="#00FF66"/><rect x="312.00" y="72.00" width="6.00" height="6.00" fill="#00FF66"/><rect x="318.00" y="72.00" width="6.00" height="6.00" fill="#00FF66"/><rect x="264.00" y="78.00" width="6.00" height="6.00" fill="#00FF66"/><rect x="270.00" y="78.00" width="6.00" height="6.00" fill="#00FF66"/><rect x="306.00" y="78.00" width="6.00" height="6.00" fill="#00FF66"/><rect x="312.00" y="78.00" width="6.00" height="6.00" fill="#00FF66"/><text x="288.0" y="116" text-anchor="middle" font-family="-apple-system, 'SF Pro Text', 'Segoe UI', system-ui, sans-serif" font-size="12" fill="#98989D">Dragon</text><rect x="388.00" y="36.00" width="6.00" height="6.00" fill="#FF9F0A"/><rect x="394.00" y="36.00" width="6.00" height="6.00" fill="#FF9F0A"/><rect x="400.00" y="36.00" width="6.00" height="6.00" fill="#FF9F0A"/><rect x="406.00" y="36.00" width="6.00" height="6.00" fill="#FF9F0A"/><rect x="376.00" y="42.00" width="6.00" height="6.00" fill="#FF9F0A"/><rect x="382.00" y="42.00" width="6.00" height="6.00" fill="#FF9F0A"/><rect x="388.00" y="42.00" width="6.00" height="6.00" fill="#FF9F0A"/><rect x="394.00" y="42.00" width="6.00" height="6.00" fill="#FF9F0A"/><rect x="400.00" y="42.00" width="6.00" height="6.00" fill="#FF9F0A"/><rect x="406.00" y="42.00" width="6.00" height="6.00" fill="#FF9F0A"/><rect x="412.00" y="42.00" width="6.00" height="6.00" fill="#FF9F0A"/><rect x="418.00" y="42.00" width="6.00" height="6.00" fill="#FF9F0A"/><rect x="370.00" y="48.00" width="6.00" height="6.00" fill="#FF9F0A"/><rect x="376.00" y="48.00" width="6.00" height="6.00" fill="#FF9F0A"/><rect x="382.00" y="48.00" width="6.00" height="6.00" fill="#FF9F0A"/><rect x="388.00" y="48.00" width="6.00" height="6.00" fill="#FF9F0A"/><rect x="394.00" y="48.00" width="6.00" height="6.00" fill="#FF9F0A"/><rect x="400.00" y="48.00" width="6.00" height="6.00" fill="#FF9F0A"/><rect x="406.00" y="48.00" width="6.00" height="6.00" fill="#FF9F0A"/><rect x="412.00" y="48.00" width="6.00" height="6.00" fill="#FF9F0A"/><rect x="418.00" y="48.00" width="6.00" height="6.00" fill="#FF9F0A"/><rect x="424.00" y="48.00" width="6.00" height="6.00" fill="#FF9F0A"/><rect x="370.00" y="54.00" width="6.00" height="6.00" fill="#FF9F0A"/><rect x="376.00" y="54.00" width="6.00" height="6.00" fill="#FF9F0A"/><rect x="388.00" y="54.00" width="6.00" height="6.00" fill="#FF9F0A"/><rect x="394.00" y="54.00" width="6.00" height="6.00" fill="#FF9F0A"/><rect x="400.00" y="54.00" width="6.00" height="6.00" fill="#FF9F0A"/><rect x="406.00" y="54.00" width="6.00" height="6.00" fill="#FF9F0A"/><rect x="418.00" y="54.00" width="6.00" height="6.00" fill="#FF9F0A"/><rect x="424.00" y="54.00" width="6.00" height="6.00" fill="#FF9F0A"/><rect x="370.00" y="60.00" width="6.00" height="6.00" fill="#FF9F0A"/><rect x="376.00" y="60.00" width="6.00" height="6.00" fill="#FF9F0A"/><rect x="382.00" y="60.00" width="6.00" height="6.00" fill="#FF9F0A"/><rect x="388.00" y="60.00" width="6.00" height="6.00" fill="#FF9F0A"/><rect x="394.00" y="60.00" width="6.00" height="6.00" fill="#FF9F0A"/><rect x="400.00" y="60.00" width="6.00" height="6.00" fill="#FF9F0A"/><rect x="406.00" y="60.00" width="6.00" height="6.00" fill="#FF9F0A"/><rect x="412.00" y="60.00" width="6.00" height="6.00" fill="#FF9F0A"/><rect x="418.00" y="60.00" width="6.00" height="6.00" fill="#FF9F0A"/><rect x="424.00" y="60.00" width="6.00" height="6.00" fill="#FF9F0A"/><rect x="370.00" y="66.00" width="6.00" height="6.00" fill="#FF9F0A"/><rect x="376.00" y="66.00" width="6.00" height="6.00" fill="#FF9F0A"/><rect x="382.00" y="66.00" width="6.00" height="6.00" fill="#FF9F0A"/><rect x="388.00" y="66.00" width="6.00" height="6.00" fill="#FF9F0A"/><rect x="394.00" y="66.00" width="6.00" height="6.00" fill="#FF9F0A"/><rect x="400.00" y="66.00" width="6.00" height="6.00" fill="#FF9F0A"/><rect x="406.00" y="66.00" width="6.00" height="6.00" fill="#FF9F0A"/><rect x="412.00" y="66.00" width="6.00" height="6.00" fill="#FF9F0A"/><rect x="418.00" y="66.00" width="6.00" height="6.00" fill="#FF9F0A"/><rect x="424.00" y="66.00" width="6.00" height="6.00" fill="#FF9F0A"/><rect x="370.00" y="72.00" width="6.00" height="6.00" fill="#FF9F0A"/><rect x="376.00" y="72.00" width="6.00" height="6.00" fill="#FF9F0A"/><rect x="382.00" y="72.00" width="6.00" height="6.00" fill="#FF9F0A"/><rect x="388.00" y="72.00" width="6.00" height="6.00" fill="#FF9F0A"/><rect x="394.00" y="72.00" width="6.00" height="6.00" fill="#FF9F0A"/><rect x="400.00" y="72.00" width="6.00" height="6.00" fill="#FF9F0A"/><rect x="406.00" y="72.00" width="6.00" height="6.00" fill="#FF9F0A"/><rect x="412.00" y="72.00" width="6.00" height="6.00" fill="#FF9F0A"/><rect x="418.00" y="72.00" width="6.00" height="6.00" fill="#FF9F0A"/><rect x="424.00" y="72.00" width="6.00" height="6.00" fill="#FF9F0A"/><rect x="370.00" y="78.00" width="6.00" height="6.00" fill="#FF9F0A"/><rect x="382.00" y="78.00" width="6.00" height="6.00" fill="#FF9F0A"/><rect x="388.00" y="78.00" width="6.00" height="6.00" fill="#FF9F0A"/><rect x="400.00" y="78.00" width="6.00" height="6.00" fill="#FF9F0A"/><rect x="406.00" y="78.00" width="6.00" height="6.00" fill="#FF9F0A"/><rect x="418.00" y="78.00" width="6.00" height="6.00" fill="#FF9F0A"/><text x="400.0" y="116" text-anchor="middle" font-family="-apple-system, 'SF Pro Text', 'Segoe UI', system-ui, sans-serif" font-size="12" fill="#98989D">Ghost</text></svg>
