<svg xmlns="http://www.w3.org/2000/svg" viewBox="0 0 340 128" width="340" height="128" role="img"><rect x="0" y="0" width="340" height="128" rx="12" fill="#101014"/><rect x="46.00" y="18.00" width="6.00" height="6.00" fill="#64D2FF"/><rect x="52.00" y="18.00" width="6.00" height="6.00" fill="#64D2FF"/><rect x="58.00" y="18.00" width="6.00" height="6.00" fill="#64D2FF"/><rect x="64.00" y="18.00" width="6.00" height="6.00" fill="#64D2FF"/><rect x="40.00" y="24.00" width="6.00" height="6.00" fill="#64D2FF"/><rect x="46.00" y="24.00" width="6.00" height="6.00" fill="#64D2FF"/><rect x="52.00" y="24.00" width="6.00" height="6.00" fill="#64D2FF"/><rect x="58.00" y="24.00" width="6.00" height="6.00" fill="#64D2FF"/><rect x="64.00" y="24.00" width="6.00" height="6.00" fill="#64D2FF"/><rect x="70.00" y="24.00" width="6.00" height="6.00" fill="#64D2FF"/><rect x="40.00" y="30.00" width="6.00" height="6.00" fill="#64D2FF"/><rect x="52.00" y="30.00" width="6.00" height="6.00" fill="#64D2FF"/><rect x="58.00" y="30.00" width="6.00" height="6.00" fill="#64D2FF"/><rect x="70.00" y="30.00" width="6.00" height="6.00" fill="#64D2FF"/><rect x="40.00" y="36.00" width="6.00" height="6.00" fill="#64D2FF"/><rect x="46.00" y="36.00" width="6.00" height="6.00" fill="#64D2FF"/><rect x="52.00" y="36.00" width="6.00" height="6.00" fill="#64D2FF"/><rect x="58.00" y="36.00" width="6.00" height="6.00" fill="#64D2FF"/><rect x="64.00" y="36.00" width="6.00" height="6.00" fill="#64D2FF"/><rect x="70.00" y="36.00" width="6.00" height="6.00" fill="#64D2FF"/><rect x="34.00" y="42.00" width="6.00" height="6.00" fill="#64D2FF"/><rect x="40.00" y="42.00" width="6.00" height="6.00" fill="#64D2FF"/><rect x="46.00" y="42.00" width="6.00" height="6.00" fill="#64D2FF"/><rect x="52.00" y="42.00" width="6.00" height="6.00" fill="#64D2FF"/><rect x="58.00" y="42.00" width="6.00" height="6.00" fill="#64D2FF"/><rect x="64.00" y="42.00" width="6.00" height="6.00" fill="#64D2FF"/><rect x="70.00" y="42.00" width="6.00" height="6.00" fill="#64D2FF"/><rect x="76.00" y="42.00" width="6.00" height="6.00" fill="#64D2FF"/><rect x="28.00" y="48.00" width="6.00" height="6.00" fill="#64D2FF"/><rect x="34.00" y="48.00" width="6.00" height="6.00" fill="#64D2FF"/><rect x="40.00" y="48.00" width="6.00" height="6.00" fill="#64D2FF"/><rect x="46.00" y="48.00" width="6.00" height="6.00" fill="#64D2FF"/><rect x="52.00" y="48.00" width="6.00" height="6.00" fill="#64D2FF"/><rect x="58.00" y="48.00" width="6.00" height="6.00" fill="#64D2FF"/><rect x="64.00" y="48.00" width="6.00" height="6.00" fill="#64D2FF"/><rect x="70.00" y="48.00" width="6.00" height="6.00" fill="#64D2FF"/><rect x="76.00" y="48.00" width="6.00" height="6.00" fill="#64D2FF"/><rect x="28.00" y="54.00" width="6.00" height="6.00" fill="#64D2FF"/><rect x="34.00" y="54.00" width="6.00" height="6.00" fill="#64D2FF"/><rect x="40.00" y="54.00" width="6.00" height="6.00" fill="#64D2FF"/><rect x="46.00" y="54.00" width="6.00" height="6.00" fill="#64D2FF"/><rect x="52.00" y="54.00" width="6.00" height="6.00" fill="#64D2FF"/><rect x="58.00" y="54.00" width="6.00" height="6.00" fill="#64D2FF"/><rect x="64.00" y="54.00" width="6.00" height="6.00" fill="#64D2FF"/><rect x="70.00" y="54.00" width="6.00" height="6.00" fill="#64D2FF"/><rect x="76.00" y="54.00" width="6.00" height="6.00" fill="#64D2FF"/><rect x="34.00" y="60.00" width="6.00" height="6.00" fill="#64D2FF"/><rect x="40.00" y="60.00" width="6.00" height="6.00" fill="#64D2FF"/><rect x="46.00" y="60.00" width="6.00" height="6.00" fill="#64D2FF"/><rect x="52.00" y="60.00" width="6.00" height="6.00" fill="#64D2FF"/><rect x="58.00" y="60.00" width="6.00" height="6.00" fill="#64D2FF"/><rect x="64.00" y="60.00" width="6.00" height="6.00" fill="#64D2FF"/><rect x="70.00" y="60.00" width="6.00" height="6.00" fill="#64D2FF"/><rect x="76.00" y="60.00" width="6.00" height="6.00" fill="#64D2FF"/><rect x="40.00" y="66.00" width="6.00" height="6.00" fill="#64D2FF"/><rect x="46.00" y="66.00" width="6.00" height="6.00" fill="#64D2FF"/><rect x="52.00" y="66.00" width="6.00" height="6.00" fill="#64D2FF"/><rect x="58.00" y="66.00" width="6.00" height="6.00" fill="#64D2FF"/><rect x="64.00" y="66.00" width="6.00" height="6.00" fill="#64D2FF"/><rect x="70.00" y="66.00" width="6.00" height="6.00" fill="#64D2FF"/><rect x="34.00" y="72.00" width="6.00" height="6.00" fill="#64D2FF"/><rect x="40.00" y="72.00" width="6.00" height="6.00" fill="#64D2FF"/><rect x="70.00" y="72.00" width="6.00" height="6.00" fill="#64D2FF"/><rect x="76.00" y="72.00" width="6.00" height="6.00" fill="#64D2FF"/><rect x="34.00" y="78.00" width="6.00" height="6.00" fill="#64D2FF"/><rect x="40.00" y="78.00" width="6.00" height="6.00" fill="#64D2FF"/><text x="58.0" y="116" text-anchor="middle" font-family="-apple-system, 'SF Pro Text', 'Segoe UI', system-ui, sans-serif" font-size="12" fill="#98989D">Penguin</text><rect x="152.00" y="30.00" width="6.00" height="6.00" fill="#00FF66"/><rect x="158.00" y="30.00" width="6.00" height="6.00" fill="#00FF66"/><rect x="146.00" y="36.00" width="6.00" height="6.00" fill="#00FF66"/><rect x="152.00" y="36.00" width="6.00" height="6.00" fill="#00FF66"/><rect x="158.00" y="36.00" width="6.00" height="6.00" fill="#00FF66"/><rect x="164.00" y="36.00" width="6.00" height="6.00" fill="#00FF66"/><rect x="152.00" y="42.00" width="6.00" height="6.00" fill="#00FF66"/><rect x="158.00" y="42.00" width="6.00" height="6.00" fill="#00FF66"/><rect x="200.00" y="42.00" width="6.00" height="6.00" fill="#00FF66"/><rect x="212.00" y="42.00" width="6.00" height="6.00" fill="#00FF66"/><rect x="158.00" y="48.00" width="6.00" height="6.00" fill="#00FF66"/><rect x="194.00" y="48.00" width="6.00" height="6.00" fill="#00FF66"/><rect x="200.00" y="48.00" width="6.00" height="6.00" fill="#00FF66"/><rect x="206.00" y="48.00" width="6.00" height="6.00" fill="#00FF66"/><rect x="212.00" y="48.00" width="6.00" height="6.00" fill="#00FF66"/><rect x="122.00" y="54.00" width="6.00" height="6.00" fill="#00FF66"/><rect x="158.00" y="54.00" width="6.00" height="6.00" fill="#00FF66"/><rect x="176.00" y="54.00" width="6.00" height="6.00" fill="#00FF66"/><rect x="182.00" y="54.00" width="6.00" height="6.00" fill="#00FF66"/><rect x="188.00" y="54.00" width="6.00" height="6.00" fill="#00FF66"/><rect x="194.00" y="54.00" width="6.00" height="6.00" fill="#00FF66"/><rect x="200.00" y="54.00" width="6.00" height="6.00" fill="#00FF66"/><rect x="206.00" y="54.00" width="6.00" height="6.00" fill="#00FF66"/><rect x="212.00" y="54.00" width="6.00" height="6.00" fill="#00FF66"/><rect x="218.00" y="54.00" width="6.00" height="6.00" fill="#00FF66"/><rect x="128.00" y="60.00" width="6.00" height="6.00" fill="#00FF66"/><rect x="134.00" y="60.00" width="6.00" height="6.00" fill="#00FF66"/><rect x="152.00" y="60.00" width="6.00" height="6.00" fill="#00FF66"/><rect x="158.00" y="60.00" width="6.00" height="6.00" fill="#00FF66"/><rect x="164.00" y="60.00" width="6.00" height="6.00" fill="#00FF66"/><rect x="170.00" y="60.00" width="6.00" height="6.00" fill="#00FF66"/><rect x="176.00" y="60.00" width="6.00" height="6.00" fill="#00FF66"/><rect x="182.00" y="60.00" width="6.00" height="6.00" fill="#00FF66"/><rect x="188.00" y="60.00" width="6.00" height="6.00" fill="#00FF66"/><rect x="194.00" y="60.00" width="6.00" height="6.00" fill="#00FF66"/><rect x="200.00" y="60.00" width="6.00" height="6.00" fill="#00FF66"/><rect x="206.00" y="60.00" width="6.00" height="6.00" fill="#00FF66"/><rect x="212.00" y="60.00" width="6.00" height="6.00" fill="#00FF66"/><rect x="218.00" y="60.00" width="6.00" height="6.00" fill="#00FF66"/><rect x="134.00" y="66.00" width="6.00" height="6.00" fill="#00FF66"/><rect x="140.00" y="66.00" width="6.00" height="6.00" fill="#00FF66"/><rect x="146.00" y="66.00" width="6.00" height="6.00" fill="#00FF66"/><rect x="152.00" y="66.00" width="6.00" height="6.00" fill="#00FF66"/><rect x="158.00" y="66.00" width="6.00" height="6.00" fill="#00FF66"/><rect x="164.00" y="66.00" width="6.00" height="6.00" fill="#00FF66"/><rect x="170.00" y="66.00" width="6.00" height="6.00" fill="#00FF66"/><rect x="176.00" y="66.00" width="6.00" height="6.00" fill="#00FF66"/><rect x="182.00" y="66.00" width="6.00" height="6.00" fill="#00FF66"/><rect x="188.00" y="66.00" width="6.00" height="6.00" fill="#00FF66"/><rect x="194.00" y="66.00" width="6.00" height="6.00" fill="#00FF66"/><rect x="200.00" y="66.00" width="6.00" height="6.00" fill="#00FF66"/><rect x="206.00" y="66.00" width="6.00" height="6.00" fill="#00FF66"/><rect x="212.00" y="66.00" width="6.00" height="6.00" fill="#00FF66"/><rect x="140.00" y="72.00" width="6.00" height="6.00" fill="#00FF66"/><rect x="146.00" y="72.00" width="6.00" height="6.00" fill="#00FF66"/><rect x="152.00" y="72.00" width="6.00" height="6.00" fill="#00FF66"/><rect x="158.00" y="72.00" width="6.00" height="6.00" fill="#00FF66"/><rect x="164.00" y="72.00" width="6.00" height="6.00" fill="#00FF66"/><rect x="170.00" y="72.00" width="6.00" height="6.00" fill="#00FF66"/><rect x="176.00" y="72.00" width="6.00" height="6.00" fill="#00FF66"/><rect x="182.00" y="72.00" width="6.00" height="6.00" fill="#00FF66"/><rect x="188.00" y="72.00" width="6.00" height="6.00" fill="#00FF66"/><rect x="194.00" y="72.00" width="6.00" height="6.00" fill="#00FF66"/><rect x="200.00" y="72.00" width="6.00" height="6.00" fill="#00FF66"/><rect x="146.00" y="78.00" width="6.00" height="6.00" fill="#00FF66"/><rect x="152.00" y="78.00" width="6.00" height="6.00" fill="#00FF66"/><rect x="188.00" y="78.00" width="6.00" height="6.00" fill="#00FF66"/><rect x="194.00" y="78.00" width="6.00" height="6.00" fill="#00FF66"/><text x="170.0" y="116" text-anchor="middle" font-family="-apple-system, 'SF Pro Text', 'Segoe UI', system-ui, sans-serif" font-size="12" fill="#98989D">Dragon</text><rect x="270.00" y="36.00" width="6.00" height="6.00" fill="#FF9F0A"/><rect x="276.00" y="36.00" width="6.00" height="6.00" fill="#FF9F0A"/><rect x="282.00" y="36.00" width="6.00" height="6.00" fill="#FF9F0A"/><rect x="288.00" y="36.00" width="6.00" height="6.00" fill="#FF9F0A"/><rect x="258.00" y="42.00" width="6.00" height="6.00" fill="#FF9F0A"/><rect x="264.00" y="42.00" width="6.00" height="6.00" fill="#FF9F0A"/><rect x="270.00" y="42.00" width="6.00" height="6.00" fill="#FF9F0A"/><rect x="276.00" y="42.00" width="6.00" height="6.00" fill="#FF9F0A"/><rect x="282.00" y="42.00" width="6.00" height="6.00" fill="#FF9F0A"/><rect x="288.00" y="42.00" width="6.00" height="6.00" fill="#FF9F0A"/><rect x="294.00" y="42.00" width="6.00" height="6.00" fill="#FF9F0A"/><rect x="300.00" y="42.00" width="6.00" height="6.00" fill="#FF9F0A"/><rect x="252.00" y="48.00" width="6.00" height="6.00" fill="#FF9F0A"/><rect x="258.00" y="48.00" width="6.00" height="6.00" fill="#FF9F0A"/><rect x="264.00" y="48.00" width="6.00" height="6.00" fill="#FF9F0A"/><rect x="270.00" y="48.00" width="6.00" height="6.00" fill="#FF9F0A"/><rect x="276.00" y="48.00" width="6.00" height="6.00" fill="#FF9F0A"/><rect x="282.00" y="48.00" width="6.00" height="6.00" fill="#FF9F0A"/><rect x="288.00" y="48.00" width="6.00" height="6.00" fill="#FF9F0A"/><rect x="294.00" y="48.00" width="6.00" height="6.00" fill="#FF9F0A"/><rect x="300.00" y="48.00" width="6.00" height="6.00" fill="#FF9F0A"/><rect x="306.00" y="48.00" width="6.00" height="6.00" fill="#FF9F0A"/><rect x="252.00" y="54.00" width="6.00" height="6.00" fill="#FF9F0A"/><rect x="258.00" y="54.00" width="6.00" height="6.00" fill="#FF9F0A"/><rect x="270.00" y="54.00" width="6.00" height="6.00" fill="#FF9F0A"/><rect x="276.00" y="54.00" width="6.00" height="6.00" fill="#FF9F0A"/><rect x="282.00" y="54.00" width="6.00" height="6.00" fill="#FF9F0A"/><rect x="288.00" y="54.00" width="6.00" height="6.00" fill="#FF9F0A"/><rect x="300.00" y="54.00" width="6.00" height="6.00" fill="#FF9F0A"/><rect x="306.00" y="54.00" width="6.00" height="6.00" fill="#FF9F0A"/><rect x="252.00" y="60.00" width="6.00" height="6.00" fill="#FF9F0A"/><rect x="258.00" y="60.00" width="6.00" height="6.00" fill="#FF9F0A"/><rect x="264.00" y="60.00" width="6.00" height="6.00" fill="#FF9F0A"/><rect x="270.00" y="60.00" width="6.00" height="6.00" fill="#FF9F0A"/><rect x="276.00" y="60.00" width="6.00" height="6.00" fill="#FF9F0A"/><rect x="282.00" y="60.00" width="6.00" height="6.00" fill="#FF9F0A"/><rect x="288.00" y="60.00" width="6.00" height="6.00" fill="#FF9F0A"/><rect x="294.00" y="60.00" width="6.00" height="6.00" fill="#FF9F0A"/><rect x="300.00" y="60.00" width="6.00" height="6.00" fill="#FF9F0A"/><rect x="306.00" y="60.00" width="6.00" height="6.00" fill="#FF9F0A"/><rect x="252.00" y="66.00" width="6.00" height="6.00" fill="#FF9F0A"/><rect x="258.00" y="66.00" width="6.00" height="6.00" fill="#FF9F0A"/><rect x="264.00" y="66.00" width="6.00" height="6.00" fill="#FF9F0A"/><rect x="270.00" y="66.00" width="6.00" height="6.00" fill="#FF9F0A"/><rect x="276.00" y="66.00" width="6.00" height="6.00" fill="#FF9F0A"/><rect x="282.00" y="66.00" width="6.00" height="6.00" fill="#FF9F0A"/><rect x="288.00" y="66.00" width="6.00" height="6.00" fill="#FF9F0A"/><rect x="294.00" y="66.00" width="6.00" height="6.00" fill="#FF9F0A"/><rect x="300.00" y="66.00" width="6.00" height="6.00" fill="#FF9F0A"/><rect x="306.00" y="66.00" width="6.00" height="6.00" fill="#FF9F0A"/><rect x="252.00" y="72.00" width="6.00" height="6.00" fill="#FF9F0A"/><rect x="258.00" y="72.00" width="6.00" height="6.00" fill="#FF9F0A"/><rect x="264.00" y="72.00" width="6.00" height="6.00" fill="#FF9F0A"/><rect x="270.00" y="72.00" width="6.00" height="6.00" fill="#FF9F0A"/><rect x="276.00" y="72.00" width="6.00" height="6.00" fill="#FF9F0A"/><rect x="282.00" y="72.00" width="6.00" height="6.00" fill="#FF9F0A"/><rect x="288.00" y="72.00" width="6.00" height="6.00" fill="#FF9F0A"/><rect x="294.00" y="72.00" width="6.00" height="6.00" fill="#FF9F0A"/><rect x="300.00" y="72.00" width="6.00" height="6.00" fill="#FF9F0A"/><rect x="306.00" y="72.00" width="6.00" height="6.00" fill="#FF9F0A"/><rect x="252.00" y="78.00" width="6.00" height="6.00" fill="#FF9F0A"/><rect x="264.00" y="78.00" width="6.00" height="6.00" fill="#FF9F0A"/><rect x="270.00" y="78.00" width="6.00" height="6.00" fill="#FF9F0A"/><rect x="282.00" y="78.00" width="6.00" height="6.00" fill="#FF9F0A"/><rect x="288.00" y="78.00" width="6.00" height="6.00" fill="#FF9F0A"/><rect x="300.00" y="78.00" width="6.00" height="6.00" fill="#FF9F0A"/><text x="282.0" y="116" text-anchor="middle" font-family="-apple-system, 'SF Pro Text', 'Segoe UI', system-ui, sans-serif" font-size="12" fill="#98989D">Ghost</text></svg>
