<svg xmlns="http://www.w3.org/2000/svg" viewBox="0 0 207 210" width="207" height="210" role="img"><rect x="0" y="0" width="207" height="210" rx="10" fill="#1A1A1E"/><g transform="translate(10,10)"><rect x="0" y="1" width="97" height="28" rx="6" fill="#101014"/><rect x="10.40" y="6.20" width="1.60" height="1.60" fill="#64D2FF"/><rect x="12.00" y="6.20" width="1.60" height="1.60" fill="#64D2FF"/><rect x="13.60" y="6.20" width="1.60" height="1.60" fill="#64D2FF"/><rect x="15.20" y="6.20" width="1.60" height="1.60" fill="#64D2FF"/><rect x="8.80" y="7.80" width="1.60" height="1.60" fill="#64D2FF"/><rect x="10.40" y="7.80" width="1.60" height="1.60" fill="#64D2FF"/><rect x="12.00" y="7.80" width="1.60" height="1.60" fill="#64D2FF"/><rect x="13.60" y="7.80" width="1.60" height="1.60" fill="#64D2FF"/><rect x="15.20" y="7.80" width="1.60" height="1.60" fill="#64D2FF"/><rect x="16.80" y="7.80" width="1.60" height="1.60" fill="#64D2FF"/><rect x="8.80" y="9.40" width="1.60" height="1.60" fill="#64D2FF"/><rect x="12.00" y="9.40" width="1.60" height="1.60" fill="#64D2FF"/><rect x="13.60" y="9.40" width="1.60" height="1.60" fill="#64D2FF"/><rect x="16.80" y="9.40" width="1.60" height="1.60" fill="#64D2FF"/><rect x="8.80" y="11.00" width="1.60" height="1.60" fill="#64D2FF"/><rect x="10.40" y="11.00" width="1.60" height="1.60" fill="#64D2FF"/><rect x="12.00" y="11.00" width="1.60" height="1.60" fill="#64D2FF"/><rect x="13.60" y="11.00" width="1.60" height="1.60" fill="#64D2FF"/><rect x="15.20" y="11.00" width="1.60" height="1.60" fill="#64D2FF"/><rect x="16.80" y="11.00" width="1.60" height="1.60" fill="#64D2FF"/><rect x="7.20" y="12.60" width="1.60" height="1.60" fill="#64D2FF"/><rect x="8.80" y="12.60" width="1.60" height="1.60" fill="#64D2FF"/><rect x="10.40" y="12.60" width="1.60" height="1.60" fill="#64D2FF"/><rect x="12.00" y="12.60" width="1.60" height="1.60" fill="#64D2FF"/><rect x="13.60" y="12.60" width="1.60" height="1.60" fill="#64D2FF"/><rect x="15.20" y="12.60" width="1.60" height="1.60" fill="#64D2FF"/><rect x="16.80" y="12.60" width="1.60" height="1.60" fill="#64D2FF"/><rect x="18.40" y="12.60" width="1.60" height="1.60" fill="#64D2FF"/><rect x="5.60" y="14.20" width="1.60" height="1.60" fill="#64D2FF"/><rect x="7.20" y="14.20" width="1.60" height="1.60" fill="#64D2FF"/><rect x="8.80" y="14.20" width="1.60" height="1.60" fill="#64D2FF"/><rect x="10.40" y="14.20" width="1.60" height="1.60" fill="#64D2FF"/><rect x="12.00" y="14.20" width="1.60" height="1.60" fill="#64D2FF"/><rect x="13.60" y="14.20" width="1.60" height="1.60" fill="#64D2FF"/><rect x="15.20" y="14.20" width="1.60" height="1.60" fill="#64D2FF"/><rect x="16.80" y="14.20" width="1.60" height="1.60" fill="#64D2FF"/><rect x="18.40" y="14.20" width="1.60" height="1.60" fill="#64D2FF"/><rect x="5.60" y="15.80" width="1.60" height="1.60" fill="#64D2FF"/><rect x="7.20" y="15.80" width="1.60" height="1.60" fill="#64D2FF"/><rect x="8.80" y="15.80" width="1.60" height="1.60" fill="#64D2FF"/><rect x="10.40" y="15.80" width="1.60" height="1.60" fill="#64D2FF"/><rect x="12.00" y="15.80" width="1.60" height="1.60" fill="#64D2FF"/><rect x="13.60" y="15.80" width="1.60" height="1.60" fill="#64D2FF"/><rect x="15.20" y="15.80" width="1.60" height="1.60" fill="#64D2FF"/><rect x="16.80" y="15.80" width="1.60" height="1.60" fill="#64D2FF"/><rect x="18.40" y="15.80" width="1.60" height="1.60" fill="#64D2FF"/><rect x="7.20" y="17.40" width="1.60" height="1.60" fill="#64D2FF"/><rect x="8.80" y="17.40" width="1.60" height="1.60" fill="#64D2FF"/><rect x="10.40" y="17.40" width="1.60" height="1.60" fill="#64D2FF"/><rect x="12.00" y="17.40" width="1.60" height="1.60" fill="#64D2FF"/><rect x="13.60" y="17.40" width="1.60" height="1.60" fill="#64D2FF"/><rect x="15.20" y="17.40" width="1.60" height="1.60" fill="#64D2FF"/><rect x="16.80" y="17.40" width="1.60" height="1.60" fill="#64D2FF"/><rect x="18.40" y="17.40" width="1.60" height="1.60" fill="#64D2FF"/><rect x="8.80" y="19.00" width="1.60" height="1.60" fill="#64D2FF"/><rect x="10.40" y="19.00" width="1.60" height="1.60" fill="#64D2FF"/><rect x="12.00" y="19.00" width="1.60" height="1.60" fill="#64D2FF"/><rect x="13.60" y="19.00" width="1.60" height="1.60" fill="#64D2FF"/><rect x="15.20" y="19.00" width="1.60" height="1.60" fill="#64D2FF"/><rect x="16.80" y="19.00" width="1.60" height="1.60" fill="#64D2FF"/><rect x="7.20" y="20.60" width="1.60" height="1.60" fill="#64D2FF"/><rect x="8.80" y="20.60" width="1.60" height="1.60" fill="#64D2FF"/><rect x="16.80" y="20.60" width="1.60" height="1.60" fill="#64D2FF"/><rect x="18.40" y="20.60" width="1.60" height="1.60" fill="#64D2FF"/><rect x="7.20" y="22.20" width="1.60" height="1.60" fill="#64D2FF"/><rect x="8.80" y="22.20" width="1.60" height="1.60" fill="#64D2FF"/><rect x="28.200000000000003" y="5.5" width="64" height="8" rx="4.0" fill="#F2F2F7" fill-opacity="0.18"/><rect x="28.200000000000003" y="5.5" width="40.32" height="8" rx="4.0" fill="#0A84FF"/><text x="32.2" y="11.5" font-family="-apple-system, 'SF Pro Text', 'Segoe UI', system-ui, sans-serif" font-size="5.5" font-weight="700" fill="#101014">5h</text><text x="88.2" y="11.5" text-anchor="end" font-family="ui-monospace, 'SF Mono', SFMono-Regular, Menlo, Consolas, monospace" font-size="7" font-weight="700" fill="#F2F2F7">63%</text><rect x="28.200000000000003" y="17.0" width="64" height="8" rx="4.0" fill="#F2F2F7" fill-opacity="0.18"/><rect x="28.200000000000003" y="17.0" width="38.40" height="8" rx="4.0" fill="#0A84FF"/><text x="32.2" y="23.0" font-family="-apple-system, 'SF Pro Text', 'Segoe UI', system-ui, sans-serif" font-size="5.5" font-weight="700" fill="#101014">7d</text><text x="88.2" y="23.0" text-anchor="end" font-family="ui-monospace, 'SF Mono', SFMono-Regular, Menlo, Consolas, monospace" font-size="7" font-weight="700" fill="#F2F2F7">60%</text></g><text x="119" y="29" font-family="-apple-system, 'SF Pro Text', 'Segoe UI', system-ui, sans-serif" font-size="11" fill="#B9B9BE">Midnight</text><g transform="translate(10,50)"><rect x="0" y="1" width="97" height="28" rx="6" fill="#050B06"/><rect x="10.40" y="6.20" width="1.60" height="1.60" fill="#00FF66"/><rect x="12.00" y="6.20" width="1.60" height="1.60" fill="#00FF66"/><rect x="13.60" y="6.20" width="1.60" height="1.60" fill="#00FF66"/><rect x="15.20" y="6.20" width="1.60" height="1.60" fill="#00FF66"/><rect x="8.80" y="7.80" width="1.60" height="1.60" fill="#00FF66"/><rect x="10.40" y="7.80" width="1.60" height="1.60" fill="#00FF66"/><rect x="12.00" y="7.80" width="1.60" height="1.60" fill="#00FF66"/><rect x="13.60" y="7.80" width="1.60" height="1.60" fill="#00FF66"/><rect x="15.20" y="7.80" width="1.60" height="1.60" fill="#00FF66"/><rect x="16.80" y="7.80" width="1.60" height="1.60" fill="#00FF66"/><rect x="8.80" y="9.40" width="1.60" height="1.60" fill="#00FF66"/><rect x="12.00" y="9.40" width="1.60" height="1.60" fill="#00FF66"/><rect x="13.60" y="9.40" width="1.60" height="1.60" fill="#00FF66"/><rect x="16.80" y="9.40" width="1.60" height="1.60" fill="#00FF66"/><rect x="8.80" y="11.00" width="1.60" height="1.60" fill="#00FF66"/><rect x="10.40" y="11.00" width="1.60" height="1.60" fill="#00FF66"/><rect x="12.00" y="11.00" width="1.60" height="1.60" fill="#00FF66"/><rect x="13.60" y="11.00" width="1.60" height="1.60" fill="#00FF66"/><rect x="15.20" y="11.00" width="1.60" height="1.60" fill="#00FF66"/><rect x="16.80" y="11.00" width="1.60" height="1.60" fill="#00FF66"/><rect x="7.20" y="12.60" width="1.60" height="1.60" fill="#00FF66"/><rect x="8.80" y="12.60" width="1.60" height="1.60" fill="#00FF66"/><rect x="10.40" y="12.60" width="1.60" height="1.60" fill="#00FF66"/><rect x="12.00" y="12.60" width="1.60" height="1.60" fill="#00FF66"/><rect x="13.60" y="12.60" width="1.60" height="1.60" fill="#00FF66"/><rect x="15.20" y="12.60" width="1.60" height="1.60" fill="#00FF66"/><rect x="16.80" y="12.60" width="1.60" height="1.60" fill="#00FF66"/><rect x="18.40" y="12.60" width="1.60" height="1.60" fill="#00FF66"/><rect x="5.60" y="14.20" width="1.60" height="1.60" fill="#00FF66"/><rect x="7.20" y="14.20" width="1.60" height="1.60" fill="#00FF66"/><rect x="8.80" y="14.20" width="1.60" height="1.60" fill="#00FF66"/><rect x="10.40" y="14.20" width="1.60" height="1.60" fill="#00FF66"/><rect x="12.00" y="14.20" width="1.60" height="1.60" fill="#00FF66"/><rect x="13.60" y="14.20" width="1.60" height="1.60" fill="#00FF66"/><rect x="15.20" y="14.20" width="1.60" height="1.60" fill="#00FF66"/><rect x="16.80" y="14.20" width="1.60" height="1.60" fill="#00FF66"/><rect x="18.40" y="14.20" width="1.60" height="1.60" fill="#00FF66"/><rect x="5.60" y="15.80" width="1.60" height="1.60" fill="#00FF66"/><rect x="7.20" y="15.80" width="1.60" height="1.60" fill="#00FF66"/><rect x="8.80" y="15.80" width="1.60" height="1.60" fill="#00FF66"/><rect x="10.40" y="15.80" width="1.60" height="1.60" fill="#00FF66"/><rect x="12.00" y="15.80" width="1.60" height="1.60" fill="#00FF66"/><rect x="13.60" y="15.80" width="1.60" height="1.60" fill="#00FF66"/><rect x="15.20" y="15.80" width="1.60" height="1.60" fill="#00FF66"/><rect x="16.80" y="15.80" width="1.60" height="1.60" fill="#00FF66"/><rect x="18.40" y="15.80" width="1.60" height="1.60" fill="#00FF66"/><rect x="7.20" y="17.40" width="1.60" height="1.60" fill="#00FF66"/><rect x="8.80" y="17.40" width="1.60" height="1.60" fill="#00FF66"/><rect x="10.40" y="17.40" width="1.60" height="1.60" fill="#00FF66"/><rect x="12.00" y="17.40" width="1.60" height="1.60" fill="#00FF66"/><rect x="13.60" y="17.40" width="1.60" height="1.60" fill="#00FF66"/><rect x="15.20" y="17.40" width="1.60" height="1.60" fill="#00FF66"/><rect x="16.80" y="17.40" width="1.60" height="1.60" fill="#00FF66"/><rect x="18.40" y="17.40" width="1.60" height="1.60" fill="#00FF66"/><rect x="8.80" y="19.00" width="1.60" height="1.60" fill="#00FF66"/><rect x="10.40" y="19.00" width="1.60" height="1.60" fill="#00FF66"/><rect x="12.00" y="19.00" width="1.60" height="1.60" fill="#00FF66"/><rect x="13.60" y="19.00" width="1.60" height="1.60" fill="#00FF66"/><rect x="15.20" y="19.00" width="1.60" height="1.60" fill="#00FF66"/><rect x="16.80" y="19.00" width="1.60" height="1.60" fill="#00FF66"/><rect x="7.20" y="20.60" width="1.60" height="1.60" fill="#00FF66"/><rect x="8.80" y="20.60" width="1.60" height="1.60" fill="#00FF66"/><rect x="16.80" y="20.60" width="1.60" height="1.60" fill="#00FF66"/><rect x="18.40" y="20.60" width="1.60" height="1.60" fill="#00FF66"/><rect x="7.20" y="22.20" width="1.60" height="1.60" fill="#00FF66"/><rect x="8.80" y="22.20" width="1.60" height="1.60" fill="#00FF66"/><rect x="28.200000000000003" y="5.5" width="64" height="8" rx="4.0" fill="#B7FFC9" fill-opacity="0.18"/><rect x="28.200000000000003" y="5.5" width="40.32" height="8" rx="4.0" fill="#00FF66"/><text x="32.2" y="11.5" font-family="-apple-system, 'SF Pro Text', 'Segoe UI', system-ui, sans-serif" font-size="5.5" font-weight="700" fill="#050B06">5h</text><text x="88.2" y="11.5" text-anchor="end" font-family="ui-monospace, 'SF Mono', SFMono-Regular, Menlo, Consolas, monospace" font-size="7" font-weight="700" fill="#B7FFC9">63%</text><rect x="28.200000000000003" y="17.0" width="64" height="8" rx="4.0" fill="#B7FFC9" fill-opacity="0.18"/><rect x="28.200000000000003" y="17.0" width="38.40" height="8" rx="4.0" fill="#00FF66"/><text x="32.2" y="23.0" font-family="-apple-system, 'SF Pro Text', 'Segoe UI', system-ui, sans-serif" font-size="5.5" font-weight="700" fill="#050B06">7d</text><text x="88.2" y="23.0" text-anchor="end" font-family="ui-monospace, 'SF Mono', SFMono-Regular, Menlo, Consolas, monospace" font-size="7" font-weight="700" fill="#B7FFC9">60%</text></g><text x="119" y="69" font-family="-apple-system, 'SF Pro Text', 'Segoe UI', system-ui, sans-serif" font-size="11" fill="#B9B9BE">Matrix</text><g transform="translate(10,90)"><rect x="0" y="1" width="97" height="28" rx="6" fill="#1C1023"/><rect x="10.40" y="6.20" width="1.60" height="1.60" fill="#FF9F0A"/><rect x="12.00" y="6.20" width="1.60" height="1.60" fill="#FF9F0A"/><rect x="13.60" y="6.20" width="1.60" height="1.60" fill="#FF9F0A"/><rect x="15.20" y="6.20" width="1.60" height="1.60" fill="#FF9F0A"/><rect x="8.80" y="7.80" width="1.60" height="1.60" fill="#FF9F0A"/><rect x="10.40" y="7.80" width="1.60" height="1.60" fill="#FF9F0A"/><rect x="12.00" y="7.80" width="1.60" height="1.60" fill="#FF9F0A"/><rect x="13.60" y="7.80" width="1.60" height="1.60" fill="#FF9F0A"/><rect x="15.20" y="7.80" width="1.60" height="1.60" fill="#FF9F0A"/><rect x="16.80" y="7.80" width="1.60" height="1.60" fill="#FF9F0A"/><rect x="8.80" y="9.40" width="1.60" height="1.60" fill="#FF9F0A"/><rect x="12.00" y="9.40" width="1.60" height="1.60" fill="#FF9F0A"/><rect x="13.60" y="9.40" width="1.60" height="1.60" fill="#FF9F0A"/><rect x="16.80" y="9.40" width="1.60" height="1.60" fill="#FF9F0A"/><rect x="8.80" y="11.00" width="1.60" height="1.60" fill="#FF9F0A"/><rect x="10.40" y="11.00" width="1.60" height="1.60" fill="#FF9F0A"/><rect x="12.00" y="11.00" width="1.60" height="1.60" fill="#FF9F0A"/><rect x="13.60" y="11.00" width="1.60" height="1.60" fill="#FF9F0A"/><rect x="15.20" y="11.00" width="1.60" height="1.60" fill="#FF9F0A"/><rect x="16.80" y="11.00" width="1.60" height="1.60" fill="#FF9F0A"/><rect x="7.20" y="12.60" width="1.60" height="1.60" fill="#FF9F0A"/><rect x="8.80" y="12.60" width="1.60" height="1.60" fill="#FF9F0A"/><rect x="10.40" y="12.60" width="1.60" height="1.60" fill="#FF9F0A"/><rect x="12.00" y="12.60" width="1.60" height="1.60" fill="#FF9F0A"/><rect x="13.60" y="12.60" width="1.60" height="1.60" fill="#FF9F0A"/><rect x="15.20" y="12.60" width="1.60" height="1.60" fill="#FF9F0A"/><rect x="16.80" y="12.60" width="1.60" height="1.60" fill="#FF9F0A"/><rect x="18.40" y="12.60" width="1.60" height="1.60" fill="#FF9F0A"/><rect x="5.60" y="14.20" width="1.60" height="1.60" fill="#FF9F0A"/><rect x="7.20" y="14.20" width="1.60" height="1.60" fill="#FF9F0A"/><rect x="8.80" y="14.20" width="1.60" height="1.60" fill="#FF9F0A"/><rect x="10.40" y="14.20" width="1.60" height="1.60" fill="#FF9F0A"/><rect x="12.00" y="14.20" width="1.60" height="1.60" fill="#FF9F0A"/><rect x="13.60" y="14.20" width="1.60" height="1.60" fill="#FF9F0A"/><rect x="15.20" y="14.20" width="1.60" height="1.60" fill="#FF9F0A"/><rect x="16.80" y="14.20" width="1.60" height="1.60" fill="#FF9F0A"/><rect x="18.40" y="14.20" width="1.60" height="1.60" fill="#FF9F0A"/><rect x="5.60" y="15.80" width="1.60" height="1.60" fill="#FF9F0A"/><rect x="7.20" y="15.80" width="1.60" height="1.60" fill="#FF9F0A"/><rect x="8.80" y="15.80" width="1.60" height="1.60" fill="#FF9F0A"/><rect x="10.40" y="15.80" width="1.60" height="1.60" fill="#FF9F0A"/><rect x="12.00" y="15.80" width="1.60" height="1.60" fill="#FF9F0A"/><rect x="13.60" y="15.80" width="1.60" height="1.60" fill="#FF9F0A"/><rect x="15.20" y="15.80" width="1.60" height="1.60" fill="#FF9F0A"/><rect x="16.80" y="15.80" width="1.60" height="1.60" fill="#FF9F0A"/><rect x="18.40" y="15.80" width="1.60" height="1.60" fill="#FF9F0A"/><rect x="7.20" y="17.40" width="1.60" height="1.60" fill="#FF9F0A"/><rect x="8.80" y="17.40" width="1.60" height="1.60" fill="#FF9F0A"/><rect x="10.40" y="17.40" width="1.60" height="1.60" fill="#FF9F0A"/><rect x="12.00" y="17.40" width="1.60" height="1.60" fill="#FF9F0A"/><rect x="13.60" y="17.40" width="1.60" height="1.60" fill="#FF9F0A"/><rect x="15.20" y="17.40" width="1.60" height="1.60" fill="#FF9F0A"/><rect x="16.80" y="17.40" width="1.60" height="1.60" fill="#FF9F0A"/><rect x="18.40" y="17.40" width="1.60" height="1.60" fill="#FF9F0A"/><rect x="8.80" y="19.00" width="1.60" height="1.60" fill="#FF9F0A"/><rect x="10.40" y="19.00" width="1.60" height="1.60" fill="#FF9F0A"/><rect x="12.00" y="19.00" width="1.60" height="1.60" fill="#FF9F0A"/><rect x="13.60" y="19.00" width="1.60" height="1.60" fill="#FF9F0A"/><rect x="15.20" y="19.00" width="1.60" height="1.60" fill="#FF9F0A"/><rect x="16.80" y="19.00" width="1.60" height="1.60" fill="#FF9F0A"/><rect x="7.20" y="20.60" width="1.60" height="1.60" fill="#FF9F0A"/><rect x="8.80" y="20.60" width="1.60" height="1.60" fill="#FF9F0A"/><rect x="16.80" y="20.60" width="1.60" height="1.60" fill="#FF9F0A"/><rect x="18.40" y="20.60" width="1.60" height="1.60" fill="#FF9F0A"/><rect x="7.20" y="22.20" width="1.60" height="1.60" fill="#FF9F0A"/><rect x="8.80" y="22.20" width="1.60" height="1.60" fill="#FF9F0A"/><rect x="28.200000000000003" y="5.5" width="64" height="8" rx="4.0" fill="#FFE3D3" fill-opacity="0.18"/><rect x="28.200000000000003" y="5.5" width="40.32" height="8" rx="4.0" fill="#FF6B9D"/><text x="32.2" y="11.5" font-family="-apple-system, 'SF Pro Text', 'Segoe UI', system-ui, sans-serif" font-size="5.5" font-weight="700" fill="#1C1023">5h</text><text x="88.2" y="11.5" text-anchor="end" font-family="ui-monospace, 'SF Mono', SFMono-Regular, Menlo, Consolas, monospace" font-size="7" font-weight="700" fill="#FFE3D3">63%</text><rect x="28.200000000000003" y="17.0" width="64" height="8" rx="4.0" fill="#FFE3D3" fill-opacity="0.18"/><rect x="28.200000000000003" y="17.0" width="38.40" height="8" rx="4.0" fill="#FF6B9D"/><text x="32.2" y="23.0" font-family="-apple-system, 'SF Pro Text', 'Segoe UI', system-ui, sans-serif" font-size="5.5" font-weight="700" fill="#1C1023">7d</text><text x="88.2" y="23.0" text-anchor="end" font-family="ui-monospace, 'SF Mono', SFMono-Regular, Menlo, Consolas, monospace" font-size="7" font-weight="700" fill="#FFE3D3">60%</text></g><text x="119" y="109" font-family="-apple-system, 'SF Pro Text', 'Segoe UI', system-ui, sans-serif" font-size="11" fill="#B9B9BE">Neon Sunset</text><g transform="translate(10,130)"><rect x="0" y="1" width="97" height="28" rx="6" fill="#0A1622"/><rect x="10.40" y="6.20" width="1.60" height="1.60" fill="#5AC8FA"/><rect x="12.00" y="6.20" width="1.60" height="1.60" fill="#5AC8FA"/><rect x="13.60" y="6.20" width="1.60" height="1.60" fill="#5AC8FA"/><rect x="15.20" y="6.20" width="1.60" height="1.60" fill="#5AC8FA"/><rect x="8.80" y="7.80" width="1.60" height="1.60" fill="#5AC8FA"/><rect x="10.40" y="7.80" width="1.60" height="1.60" fill="#5AC8FA"/><rect x="12.00" y="7.80" width="1.60" height="1.60" fill="#5AC8FA"/><rect x="13.60" y="7.80" width="1.60" height="1.60" fill="#5AC8FA"/><rect x="15.20" y="7.80" width="1.60" height="1.60" fill="#5AC8FA"/><rect x="16.80" y="7.80" width="1.60" height="1.60" fill="#5AC8FA"/><rect x="8.80" y="9.40" width="1.60" height="1.60" fill="#5AC8FA"/><rect x="12.00" y="9.40" width="1.60" height="1.60" fill="#5AC8FA"/><rect x="13.60" y="9.40" width="1.60" height="1.60" fill="#5AC8FA"/><rect x="16.80" y="9.40" width="1.60" height="1.60" fill="#5AC8FA"/><rect x="8.80" y="11.00" width="1.60" height="1.60" fill="#5AC8FA"/><rect x="10.40" y="11.00" width="1.60" height="1.60" fill="#5AC8FA"/><rect x="12.00" y="11.00" width="1.60" height="1.60" fill="#5AC8FA"/><rect x="13.60" y="11.00" width="1.60" height="1.60" fill="#5AC8FA"/><rect x="15.20" y="11.00" width="1.60" height="1.60" fill="#5AC8FA"/><rect x="16.80" y="11.00" width="1.60" height="1.60" fill="#5AC8FA"/><rect x="7.20" y="12.60" width="1.60" height="1.60" fill="#5AC8FA"/><rect x="8.80" y="12.60" width="1.60" height="1.60" fill="#5AC8FA"/><rect x="10.40" y="12.60" width="1.60" height="1.60" fill="#5AC8FA"/><rect x="12.00" y="12.60" width="1.60" height="1.60" fill="#5AC8FA"/><rect x="13.60" y="12.60" width="1.60" height="1.60" fill="#5AC8FA"/><rect x="15.20" y="12.60" width="1.60" height="1.60" fill="#5AC8FA"/><rect x="16.80" y="12.60" width="1.60" height="1.60" fill="#5AC8FA"/><rect x="18.40" y="12.60" width="1.60" height="1.60" fill="#5AC8FA"/><rect x="5.60" y="14.20" width="1.60" height="1.60" fill="#5AC8FA"/><rect x="7.20" y="14.20" width="1.60" height="1.60" fill="#5AC8FA"/><rect x="8.80" y="14.20" width="1.60" height="1.60" fill="#5AC8FA"/><rect x="10.40" y="14.20" width="1.60" height="1.60" fill="#5AC8FA"/><rect x="12.00" y="14.20" width="1.60" height="1.60" fill="#5AC8FA"/><rect x="13.60" y="14.20" width="1.60" height="1.60" fill="#5AC8FA"/><rect x="15.20" y="14.20" width="1.60" height="1.60" fill="#5AC8FA"/><rect x="16.80" y="14.20" width="1.60" height="1.60" fill="#5AC8FA"/><rect x="18.40" y="14.20" width="1.60" height="1.60" fill="#5AC8FA"/><rect x="5.60" y="15.80" width="1.60" height="1.60" fill="#5AC8FA"/><rect x="7.20" y="15.80" width="1.60" height="1.60" fill="#5AC8FA"/><rect x="8.80" y="15.80" width="1.60" height="1.60" fill="#5AC8FA"/><rect x="10.40" y="15.80" width="1.60" height="1.60" fill="#5AC8FA"/><rect x="12.00" y="15.80" width="1.60" height="1.60" fill="#5AC8FA"/><rect x="13.60" y="15.80" width="1.60" height="1.60" fill="#5AC8FA"/><rect x="15.20" y="15.80" width="1.60" height="1.60" fill="#5AC8FA"/><rect x="16.80" y="15.80" width="1.60" height="1.60" fill="#5AC8FA"/><rect x="18.40" y="15.80" width="1.60" height="1.60" fill="#5AC8FA"/><rect x="7.20" y="17.40" width="1.60" height="1.60" fill="#5AC8FA"/><rect x="8.80" y="17.40" width="1.60" height="1.60" fill="#5AC8FA"/><rect x="10.40" y="17.40" width="1.60" height="1.60" fill="#5AC8FA"/><rect x="12.00" y="17.40" width="1.60" height="1.60" fill="#5AC8FA"/><rect x="13.60" y="17.40" width="1.60" height="1.60" fill="#5AC8FA"/><rect x="15.20" y="17.40" width="1.60" height="1.60" fill="#5AC8FA"/><rect x="16.80" y="17.40" width="1.60" height="1.60" fill="#5AC8FA"/><rect x="18.40" y="17.40" width="1.60" height="1.60" fill="#5AC8FA"/><rect x="8.80" y="19.00" width="1.60" height="1.60" fill="#5AC8FA"/><rect x="10.40" y="19.00" width="1.60" height="1.60" fill="#5AC8FA"/><rect x="12.00" y="19.00" width="1.60" height="1.60" fill="#5AC8FA"/><rect x="13.60" y="19.00" width="1.60" height="1.60" fill="#5AC8FA"/><rect x="15.20" y="19.00" width="1.60" height="1.60" fill="#5AC8FA"/><rect x="16.80" y="19.00" width="1.60" height="1.60" fill="#5AC8FA"/><rect x="7.20" y="20.60" width="1.60" height="1.60" fill="#5AC8FA"/><rect x="8.80" y="20.60" width="1.60" height="1.60" fill="#5AC8FA"/><rect x="16.80" y="20.60" width="1.60" height="1.60" fill="#5AC8FA"/><rect x="18.40" y="20.60" width="1.60" height="1.60" fill="#5AC8FA"/><rect x="7.20" y="22.20" width="1.60" height="1.60" fill="#5AC8FA"/><rect x="8.80" y="22.20" width="1.60" height="1.60" fill="#5AC8FA"/><rect x="28.200000000000003" y="5.5" width="64" height="8" rx="4.0" fill="#D9F3FF" fill-opacity="0.18"/><rect x="28.200000000000003" y="5.5" width="40.32" height="8" rx="4.0" fill="#64D2FF"/><text x="32.2" y="11.5" font-family="-apple-system, 'SF Pro Text', 'Segoe UI', system-ui, sans-serif" font-size="5.5" font-weight="700" fill="#0A1622">5h</text><text x="88.2" y="11.5" text-anchor="end" font-family="ui-monospace, 'SF Mono', SFMono-Regular, Menlo, Consolas, monospace" font-size="7" font-weight="700" fill="#D9F3FF">63%</text><rect x="28.200000000000003" y="17.0" width="64" height="8" rx="4.0" fill="#D9F3FF" fill-opacity="0.18"/><rect x="28.200000000000003" y="17.0" width="38.40" height="8" rx="4.0" fill="#64D2FF"/><text x="32.2" y="23.0" font-family="-apple-system, 'SF Pro Text', 'Segoe UI', system-ui, sans-serif" font-size="5.5" font-weight="700" fill="#0A1622">7d</text><text x="88.2" y="23.0" text-anchor="end" font-family="ui-monospace, 'SF Mono', SFMono-Regular, Menlo, Consolas, monospace" font-size="7" font-weight="700" fill="#D9F3FF">60%</text></g><text x="119" y="149" font-family="-apple-system, 'SF Pro Text', 'Segoe UI', system-ui, sans-serif" font-size="11" fill="#B9B9BE">Ocean</text><g transform="translate(10,170)"><rect x="0" y="1" width="97" height="28" rx="6" fill="#000000"/><rect x="10.40" y="6.20" width="1.60" height="1.60" fill="#FFFFFF"/><rect x="12.00" y="6.20" width="1.60" height="1.60" fill="#FFFFFF"/><rect x="13.60" y="6.20" width="1.60" height="1.60" fill="#FFFFFF"/><rect x="15.20" y="6.20" width="1.60" height="1.60" fill="#FFFFFF"/><rect x="8.80" y="7.80" width="1.60" height="1.60" fill="#FFFFFF"/><rect x="10.40" y="7.80" width="1.60" height="1.60" fill="#FFFFFF"/><rect x="12.00" y="7.80" width="1.60" height="1.60" fill="#FFFFFF"/><rect x="13.60" y="7.80" width="1.60" height="1.60" fill="#FFFFFF"/><rect x="15.20" y="7.80" width="1.60" height="1.60" fill="#FFFFFF"/><rect x="16.80" y="7.80" width="1.60" height="1.60" fill="#FFFFFF"/><rect x="8.80" y="9.40" width="1.60" height="1.60" fill="#FFFFFF"/><rect x="12.00" y="9.40" width="1.60" height="1.60" fill="#FFFFFF"/><rect x="13.60" y="9.40" width="1.60" height="1.60" fill="#FFFFFF"/><rect x="16.80" y="9.40" width="1.60" height="1.60" fill="#FFFFFF"/><rect x="8.80" y="11.00" width="1.60" height="1.60" fill="#FFFFFF"/><rect x="10.40" y="11.00" width="1.60" height="1.60" fill="#FFFFFF"/><rect x="12.00" y="11.00" width="1.60" height="1.60" fill="#FFFFFF"/><rect x="13.60" y="11.00" width="1.60" height="1.60" fill="#FFFFFF"/><rect x="15.20" y="11.00" width="1.60" height="1.60" fill="#FFFFFF"/><rect x="16.80" y="11.00" width="1.60" height="1.60" fill="#FFFFFF"/><rect x="7.20" y="12.60" width="1.60" height="1.60" fill="#FFFFFF"/><rect x="8.80" y="12.60" width="1.60" height="1.60" fill="#FFFFFF"/><rect x="10.40" y="12.60" width="1.60" height="1.60" fill="#FFFFFF"/><rect x="12.00" y="12.60" width="1.60" height="1.60" fill="#FFFFFF"/><rect x="13.60" y="12.60" width="1.60" height="1.60" fill="#FFFFFF"/><rect x="15.20" y="12.60" width="1.60" height="1.60" fill="#FFFFFF"/><rect x="16.80" y="12.60" width="1.60" height="1.60" fill="#FFFFFF"/><rect x="18.40" y="12.60" width="1.60" height="1.60" fill="#FFFFFF"/><rect x="5.60" y="14.20" width="1.60" height="1.60" fill="#FFFFFF"/><rect x="7.20" y="14.20" width="1.60" height="1.60" fill="#FFFFFF"/><rect x="8.80" y="14.20" width="1.60" height="1.60" fill="#FFFFFF"/><rect x="10.40" y="14.20" width="1.60" height="1.60" fill="#FFFFFF"/><rect x="12.00" y="14.20" width="1.60" height="1.60" fill="#FFFFFF"/><rect x="13.60" y="14.20" width="1.60" height="1.60" fill="#FFFFFF"/><rect x="15.20" y="14.20" width="1.60" height="1.60" fill="#FFFFFF"/><rect x="16.80" y="14.20" width="1.60" height="1.60" fill="#FFFFFF"/><rect x="18.40" y="14.20" width="1.60" height="1.60" fill="#FFFFFF"/><rect x="5.60" y="15.80" width="1.60" height="1.60" fill="#FFFFFF"/><rect x="7.20" y="15.80" width="1.60" height="1.60" fill="#FFFFFF"/><rect x="8.80" y="15.80" width="1.60" height="1.60" fill="#FFFFFF"/><rect x="10.40" y="15.80" width="1.60" height="1.60" fill="#FFFFFF"/><rect x="12.00" y="15.80" width="1.60" height="1.60" fill="#FFFFFF"/><rect x="13.60" y="15.80" width="1.60" height="1.60" fill="#FFFFFF"/><rect x="15.20" y="15.80" width="1.60" height="1.60" fill="#FFFFFF"/><rect x="16.80" y="15.80" width="1.60" height="1.60" fill="#FFFFFF"/><rect x="18.40" y="15.80" width="1.60" height="1.60" fill="#FFFFFF"/><rect x="7.20" y="17.40" width="1.60" height="1.60" fill="#FFFFFF"/><rect x="8.80" y="17.40" width="1.60" height="1.60" fill="#FFFFFF"/><rect x="10.40" y="17.40" width="1.60" height="1.60" fill="#FFFFFF"/><rect x="12.00" y="17.40" width="1.60" height="1.60" fill="#FFFFFF"/><rect x="13.60" y="17.40" width="1.60" height="1.60" fill="#FFFFFF"/><rect x="15.20" y="17.40" width="1.60" height="1.60" fill="#FFFFFF"/><rect x="16.80" y="17.40" width="1.60" height="1.60" fill="#FFFFFF"/><rect x="18.40" y="17.40" width="1.60" height="1.60" fill="#FFFFFF"/><rect x="8.80" y="19.00" width="1.60" height="1.60" fill="#FFFFFF"/><rect x="10.40" y="19.00" width="1.60" height="1.60" fill="#FFFFFF"/><rect x="12.00" y="19.00" width="1.60" height="1.60" fill="#FFFFFF"/><rect x="13.60" y="19.00" width="1.60" height="1.60" fill="#FFFFFF"/><rect x="15.20" y="19.00" width="1.60" height="1.60" fill="#FFFFFF"/><rect x="16.80" y="19.00" width="1.60" height="1.60" fill="#FFFFFF"/><rect x="7.20" y="20.60" width="1.60" height="1.60" fill="#FFFFFF"/><rect x="8.80" y="20.60" width="1.60" height="1.60" fill="#FFFFFF"/><rect x="16.80" y="20.60" width="1.60" height="1.60" fill="#FFFFFF"/><rect x="18.40" y="20.60" width="1.60" height="1.60" fill="#FFFFFF"/><rect x="7.20" y="22.20" width="1.60" height="1.60" fill="#FFFFFF"/><rect x="8.80" y="22.20" width="1.60" height="1.60" fill="#FFFFFF"/><rect x="28.200000000000003" y="5.5" width="64" height="8" rx="4.0" fill="#FFFFFF" fill-opacity="0.18"/><rect x="28.200000000000003" y="5.5" width="40.32" height="8" rx="4.0" fill="#FFFFFF"/><text x="32.2" y="11.5" font-family="-apple-system, 'SF Pro Text', 'Segoe UI', system-ui, sans-serif" font-size="5.5" font-weight="700" fill="#000000">5h</text><text x="88.2" y="11.5" text-anchor="end" font-family="ui-monospace, 'SF Mono', SFMono-Regular, Menlo, Consolas, monospace" font-size="7" font-weight="700" fill="#FFFFFF">63%</text><rect x="28.200000000000003" y="17.0" width="64" height="8" rx="4.0" fill="#FFFFFF" fill-opacity="0.18"/><rect x="28.200000000000003" y="17.0" width="38.40" height="8" rx="4.0" fill="#FFFFFF"/><text x="32.2" y="23.0" font-family="-apple-system, 'SF Pro Text', 'Segoe UI', system-ui, sans-serif" font-size="5.5" font-weight="700" fill="#000000">7d</text><text x="88.2" y="23.0" text-anchor="end" font-family="ui-monospace, 'SF Mono', SFMono-Regular, Menlo, Consolas, monospace" font-size="7" font-weight="700" fill="#FFFFFF">60%</text></g><text x="119" y="189" font-family="-apple-system, 'SF Pro Text', 'Segoe UI', system-ui, sans-serif" font-size="11" fill="#B9B9BE">Mono</text></svg>
