<svg xmlns="http://www.w3.org/2000/svg" viewBox="0 0 272 210" width="272" height="210" role="img"><rect x="0" y="0" width="272" height="210" rx="10" fill="#1A1A1E"/><g transform="translate(10,10)"><rect x="0" y="1" width="176" height="28" rx="6" fill="#101014"/><rect x="14.00" y="4.00" width="2.00" height="2.00" fill="#64D2FF"/><rect x="16.00" y="4.00" width="2.00" height="2.00" fill="#64D2FF"/><rect x="18.00" y="4.00" width="2.00" height="2.00" fill="#64D2FF"/><rect x="20.00" y="4.00" width="2.00" height="2.00" fill="#64D2FF"/><rect x="12.00" y="6.00" width="2.00" height="2.00" fill="#64D2FF"/><rect x="14.00" y="6.00" width="2.00" height="2.00" fill="#64D2FF"/><rect x="16.00" y="6.00" width="2.00" height="2.00" fill="#64D2FF"/><rect x="18.00" y="6.00" width="2.00" height="2.00" fill="#64D2FF"/><rect x="20.00" y="6.00" width="2.00" height="2.00" fill="#64D2FF"/><rect x="22.00" y="6.00" width="2.00" height="2.00" fill="#64D2FF"/><rect x="12.00" y="8.00" width="2.00" height="2.00" fill="#64D2FF"/><rect x="16.00" y="8.00" width="2.00" height="2.00" fill="#64D2FF"/><rect x="18.00" y="8.00" width="2.00" height="2.00" fill="#64D2FF"/><rect x="22.00" y="8.00" width="2.00" height="2.00" fill="#64D2FF"/><rect x="12.00" y="10.00" width="2.00" height="2.00" fill="#64D2FF"/><rect x="14.00" y="10.00" width="2.00" height="2.00" fill="#64D2FF"/><rect x="16.00" y="10.00" width="2.00" height="2.00" fill="#64D2FF"/><rect x="18.00" y="10.00" width="2.00" height="2.00" fill="#64D2FF"/><rect x="20.00" y="10.00" width="2.00" height="2.00" fill="#64D2FF"/><rect x="22.00" y="10.00" width="2.00" height="2.00" fill="#64D2FF"/><rect x="10.00" y="12.00" width="2.00" height="2.00" fill="#64D2FF"/><rect x="12.00" y="12.00" width="2.00" height="2.00" fill="#64D2FF"/><rect x="14.00" y="12.00" width="2.00" height="2.00" fill="#64D2FF"/><rect x="16.00" y="12.00" width="2.00" height="2.00" fill="#64D2FF"/><rect x="18.00" y="12.00" width="2.00" height="2.00" fill="#64D2FF"/><rect x="20.00" y="12.00" width="2.00" height="2.00" fill="#64D2FF"/><rect x="22.00" y="12.00" width="2.00" height="2.00" fill="#64D2FF"/><rect x="24.00" y="12.00" width="2.00" height="2.00" fill="#64D2FF"/><rect x="8.00" y="14.00" width="2.00" height="2.00" fill="#64D2FF"/><rect x="10.00" y="14.00" width="2.00" height="2.00" fill="#64D2FF"/><rect x="12.00" y="14.00" width="2.00" height="2.00" fill="#64D2FF"/><rect x="14.00" y="14.00" width="2.00" height="2.00" fill="#64D2FF"/><rect x="16.00" y="14.00" width="2.00" height="2.00" fill="#64D2FF"/><rect x="18.00" y="14.00" width="2.00" height="2.00" fill="#64D2FF"/><rect x="20.00" y="14.00" width="2.00" height="2.00" fill="#64D2FF"/><rect x="22.00" y="14.00" width="2.00" height="2.00" fill="#64D2FF"/><rect x="24.00" y="14.00" width="2.00" height="2.00" fill="#64D2FF"/><rect x="8.00" y="16.00" width="2.00" height="2.00" fill="#64D2FF"/><rect x="10.00" y="16.00" width="2.00" height="2.00" fill="#64D2FF"/><rect x="12.00" y="16.00" width="2.00" height="2.00" fill="#64D2FF"/><rect x="14.00" y="16.00" width="2.00" height="2.00" fill="#64D2FF"/><rect x="16.00" y="16.00" width="2.00" height="2.00" fill="#64D2FF"/><rect x="18.00" y="16.00" width="2.00" height="2.00" fill="#64D2FF"/><rect x="20.00" y="16.00" width="2.00" height="2.00" fill="#64D2FF"/><rect x="22.00" y="16.00" width="2.00" height="2.00" fill="#64D2FF"/><rect x="24.00" y="16.00" width="2.00" height="2.00" fill="#64D2FF"/><rect x="10.00" y="18.00" width="2.00" height="2.00" fill="#64D2FF"/><rect x="12.00" y="18.00" width="2.00" height="2.00" fill="#64D2FF"/><rect x="14.00" y="18.00" width="2.00" height="2.00" fill="#64D2FF"/><rect x="16.00" y="18.00" width="2.00" height="2.00" fill="#64D2FF"/><rect x="18.00" y="18.00" width="2.00" height="2.00" fill="#64D2FF"/><rect x="20.00" y="18.00" width="2.00" height="2.00" fill="#64D2FF"/><rect x="22.00" y="18.00" width="2.00" height="2.00" fill="#64D2FF"/><rect x="24.00" y="18.00" width="2.00" height="2.00" fill="#64D2FF"/><rect x="12.00" y="20.00" width="2.00" height="2.00" fill="#64D2FF"/><rect x="14.00" y="20.00" width="2.00" height="2.00" fill="#64D2FF"/><rect x="16.00" y="20.00" width="2.00" height="2.00" fill="#64D2FF"/><rect x="18.00" y="20.00" width="2.00" height="2.00" fill="#64D2FF"/><rect x="20.00" y="20.00" width="2.00" height="2.00" fill="#64D2FF"/><rect x="22.00" y="20.00" width="2.00" height="2.00" fill="#64D2FF"/><rect x="10.00" y="22.00" width="2.00" height="2.00" fill="#64D2FF"/><rect x="12.00" y="22.00" width="2.00" height="2.00" fill="#64D2FF"/><rect x="22.00" y="22.00" width="2.00" height="2.00" fill="#64D2FF"/><rect x="24.00" y="22.00" width="2.00" height="2.00" fill="#64D2FF"/><rect x="10.00" y="24.00" width="2.00" height="2.00" fill="#64D2FF"/><rect x="12.00" y="24.00" width="2.00" height="2.00" fill="#64D2FF"/><text x="36" y="13.0" font-family="-apple-system, 'SF Pro Text', 'Segoe UI', system-ui, sans-serif" font-size="6.5" font-weight="600" fill="#98989D">5h</text><rect x="47" y="8.5" width="30" height="5" rx="2.5" fill="#F2F2F7" fill-opacity="0.16"/><rect x="47" y="8.5" width="18.60" height="5" rx="2.5" fill="#0A84FF"/><text x="80" y="13.0" font-family="ui-monospace, 'SF Mono', SFMono-Regular, Menlo, Consolas, monospace" font-size="6.5" font-weight="600" fill="#F2F2F7">62%</text><text x="36" y="24.0" font-family="-apple-system, 'SF Pro Text', 'Segoe UI', system-ui, sans-serif" font-size="6.5" font-weight="600" fill="#98989D">7d</text><rect x="47" y="19.5" width="30" height="5" rx="2.5" fill="#F2F2F7" fill-opacity="0.16"/><rect x="47" y="19.5" width="10.20" height="5" rx="2.5" fill="#0A84FF"/><text x="80" y="24.0" font-family="ui-monospace, 'SF Mono', SFMono-Regular, Menlo, Consolas, monospace" font-size="6.5" font-weight="600" fill="#F2F2F7">34%</text><text x="108" y="13.5" font-family="ui-monospace, 'SF Mono', SFMono-Regular, Menlo, Consolas, monospace" font-size="9.5" font-weight="600" fill="#F2F2F7">sonnet-5</text><text x="108" y="24.5" font-family="ui-monospace, 'SF Mono', SFMono-Regular, Menlo, Consolas, monospace" font-size="8" fill="#98989D">1.28M · $4.32</text></g><text x="198" y="29" font-family="-apple-system, 'SF Pro Text', 'Segoe UI', system-ui, sans-serif" font-size="11" fill="#B9B9BE">Midnight</text><g transform="translate(10,50)"><rect x="0" y="1" width="176" height="28" rx="6" fill="#050B06"/><rect x="14.00" y="4.00" width="2.00" height="2.00" fill="#00FF66"/><rect x="16.00" y="4.00" width="2.00" height="2.00" fill="#00FF66"/><rect x="18.00" y="4.00" width="2.00" height="2.00" fill="#00FF66"/><rect x="20.00" y="4.00" width="2.00" height="2.00" fill="#00FF66"/><rect x="12.00" y="6.00" width="2.00" height="2.00" fill="#00FF66"/><rect x="14.00" y="6.00" width="2.00" height="2.00" fill="#00FF66"/><rect x="16.00" y="6.00" width="2.00" height="2.00" fill="#00FF66"/><rect x="18.00" y="6.00" width="2.00" height="2.00" fill="#00FF66"/><rect x="20.00" y="6.00" width="2.00" height="2.00" fill="#00FF66"/><rect x="22.00" y="6.00" width="2.00" height="2.00" fill="#00FF66"/><rect x="12.00" y="8.00" width="2.00" height="2.00" fill="#00FF66"/><rect x="16.00" y="8.00" width="2.00" height="2.00" fill="#00FF66"/><rect x="18.00" y="8.00" width="2.00" height="2.00" fill="#00FF66"/><rect x="22.00" y="8.00" width="2.00" height="2.00" fill="#00FF66"/><rect x="12.00" y="10.00" width="2.00" height="2.00" fill="#00FF66"/><rect x="14.00" y="10.00" width="2.00" height="2.00" fill="#00FF66"/><rect x="16.00" y="10.00" width="2.00" height="2.00" fill="#00FF66"/><rect x="18.00" y="10.00" width="2.00" height="2.00" fill="#00FF66"/><rect x="20.00" y="10.00" width="2.00" height="2.00" fill="#00FF66"/><rect x="22.00" y="10.00" width="2.00" height="2.00" fill="#00FF66"/><rect x="10.00" y="12.00" width="2.00" height="2.00" fill="#00FF66"/><rect x="12.00" y="12.00" width="2.00" height="2.00" fill="#00FF66"/><rect x="14.00" y="12.00" width="2.00" height="2.00" fill="#00FF66"/><rect x="16.00" y="12.00" width="2.00" height="2.00" fill="#00FF66"/><rect x="18.00" y="12.00" width="2.00" height="2.00" fill="#00FF66"/><rect x="20.00" y="12.00" width="2.00" height="2.00" fill="#00FF66"/><rect x="22.00" y="12.00" width="2.00" height="2.00" fill="#00FF66"/><rect x="24.00" y="12.00" width="2.00" height="2.00" fill="#00FF66"/><rect x="8.00" y="14.00" width="2.00" height="2.00" fill="#00FF66"/><rect x="10.00" y="14.00" width="2.00" height="2.00" fill="#00FF66"/><rect x="12.00" y="14.00" width="2.00" height="2.00" fill="#00FF66"/><rect x="14.00" y="14.00" width="2.00" height="2.00" fill="#00FF66"/><rect x="16.00" y="14.00" width="2.00" height="2.00" fill="#00FF66"/><rect x="18.00" y="14.00" width="2.00" height="2.00" fill="#00FF66"/><rect x="20.00" y="14.00" width="2.00" height="2.00" fill="#00FF66"/><rect x="22.00" y="14.00" width="2.00" height="2.00" fill="#00FF66"/><rect x="24.00" y="14.00" width="2.00" height="2.00" fill="#00FF66"/><rect x="8.00" y="16.00" width="2.00" height="2.00" fill="#00FF66"/><rect x="10.00" y="16.00" width="2.00" height="2.00" fill="#00FF66"/><rect x="12.00" y="16.00" width="2.00" height="2.00" fill="#00FF66"/><rect x="14.00" y="16.00" width="2.00" height="2.00" fill="#00FF66"/><rect x="16.00" y="16.00" width="2.00" height="2.00" fill="#00FF66"/><rect x="18.00" y="16.00" width="2.00" height="2.00" fill="#00FF66"/><rect x="20.00" y="16.00" width="2.00" height="2.00" fill="#00FF66"/><rect x="22.00" y="16.00" width="2.00" height="2.00" fill="#00FF66"/><rect x="24.00" y="16.00" width="2.00" height="2.00" fill="#00FF66"/><rect x="10.00" y="18.00" width="2.00" height="2.00" fill="#00FF66"/><rect x="12.00" y="18.00" width="2.00" height="2.00" fill="#00FF66"/><rect x="14.00" y="18.00" width="2.00" height="2.00" fill="#00FF66"/><rect x="16.00" y="18.00" width="2.00" height="2.00" fill="#00FF66"/><rect x="18.00" y="18.00" width="2.00" height="2.00" fill="#00FF66"/><rect x="20.00" y="18.00" width="2.00" height="2.00" fill="#00FF66"/><rect x="22.00" y="18.00" width="2.00" height="2.00" fill="#00FF66"/><rect x="24.00" y="18.00" width="2.00" height="2.00" fill="#00FF66"/><rect x="12.00" y="20.00" width="2.00" height="2.00" fill="#00FF66"/><rect x="14.00" y="20.00" width="2.00" height="2.00" fill="#00FF66"/><rect x="16.00" y="20.00" width="2.00" height="2.00" fill="#00FF66"/><rect x="18.00" y="20.00" width="2.00" height="2.00" fill="#00FF66"/><rect x="20.00" y="20.00" width="2.00" height="2.00" fill="#00FF66"/><rect x="22.00" y="20.00" width="2.00" height="2.00" fill="#00FF66"/><rect x="10.00" y="22.00" width="2.00" height="2.00" fill="#00FF66"/><rect x="12.00" y="22.00" width="2.00" height="2.00" fill="#00FF66"/><rect x="22.00" y="22.00" width="2.00" height="2.00" fill="#00FF66"/><rect x="24.00" y="22.00" width="2.00" height="2.00" fill="#00FF66"/><rect x="10.00" y="24.00" width="2.00" height="2.00" fill="#00FF66"/><rect x="12.00" y="24.00" width="2.00" height="2.00" fill="#00FF66"/><text x="36" y="13.0" font-family="-apple-system, 'SF Pro Text', 'Segoe UI', system-ui, sans-serif" font-size="6.5" font-weight="600" fill="#3FA34D">5h</text><rect x="47" y="8.5" width="30" height="5" rx="2.5" fill="#B7FFC9" fill-opacity="0.16"/><rect x="47" y="8.5" width="18.60" height="5" rx="2.5" fill="#00FF66"/><text x="80" y="13.0" font-family="ui-monospace, 'SF Mono', SFMono-Regular, Menlo, Consolas, monospace" font-size="6.5" font-weight="600" fill="#B7FFC9">62%</text><text x="36" y="24.0" font-family="-apple-system, 'SF Pro Text', 'Segoe UI', system-ui, sans-serif" font-size="6.5" font-weight="600" fill="#3FA34D">7d</text><rect x="47" y="19.5" width="30" height="5" rx="2.5" fill="#B7FFC9" fill-opacity="0.16"/><rect x="47" y="19.5" width="10.20" height="5" rx="2.5" fill="#00FF66"/><text x="80" y="24.0" font-family="ui-monospace, 'SF Mono', SFMono-Regular, Menlo, Consolas, monospace" font-size="6.5" font-weight="600" fill="#B7FFC9">34%</text><text x="108" y="13.5" font-family="ui-monospace, 'SF Mono', SFMono-Regular, Menlo, Consolas, monospace" font-size="9.5" font-weight="600" fill="#B7FFC9">sonnet-5</text><text x="108" y="24.5" font-family="ui-monospace, 'SF Mono', SFMono-Regular, Menlo, Consolas, monospace" font-size="8" fill="#3FA34D">1.28M · $4.32</text></g><text x="198" y="69" font-family="-apple-system, 'SF Pro Text', 'Segoe UI', system-ui, sans-serif" font-size="11" fill="#B9B9BE">Matrix</text><g transform="translate(10,90)"><rect x="0" y="1" width="176" height="28" rx="6" fill="#1C1023"/><rect x="14.00" y="4.00" width="2.00" height="2.00" fill="#FF9F0A"/><rect x="16.00" y="4.00" width="2.00" height="2.00" fill="#FF9F0A"/><rect x="18.00" y="4.00" width="2.00" height="2.00" fill="#FF9F0A"/><rect x="20.00" y="4.00" width="2.00" height="2.00" fill="#FF9F0A"/><rect x="12.00" y="6.00" width="2.00" height="2.00" fill="#FF9F0A"/><rect x="14.00" y="6.00" width="2.00" height="2.00" fill="#FF9F0A"/><rect x="16.00" y="6.00" width="2.00" height="2.00" fill="#FF9F0A"/><rect x="18.00" y="6.00" width="2.00" height="2.00" fill="#FF9F0A"/><rect x="20.00" y="6.00" width="2.00" height="2.00" fill="#FF9F0A"/><rect x="22.00" y="6.00" width="2.00" height="2.00" fill="#FF9F0A"/><rect x="12.00" y="8.00" width="2.00" height="2.00" fill="#FF9F0A"/><rect x="16.00" y="8.00" width="2.00" height="2.00" fill="#FF9F0A"/><rect x="18.00" y="8.00" width="2.00" height="2.00" fill="#FF9F0A"/><rect x="22.00" y="8.00" width="2.00" height="2.00" fill="#FF9F0A"/><rect x="12.00" y="10.00" width="2.00" height="2.00" fill="#FF9F0A"/><rect x="14.00" y="10.00" width="2.00" height="2.00" fill="#FF9F0A"/><rect x="16.00" y="10.00" width="2.00" height="2.00" fill="#FF9F0A"/><rect x="18.00" y="10.00" width="2.00" height="2.00" fill="#FF9F0A"/><rect x="20.00" y="10.00" width="2.00" height="2.00" fill="#FF9F0A"/><rect x="22.00" y="10.00" width="2.00" height="2.00" fill="#FF9F0A"/><rect x="10.00" y="12.00" width="2.00" height="2.00" fill="#FF9F0A"/><rect x="12.00" y="12.00" width="2.00" height="2.00" fill="#FF9F0A"/><rect x="14.00" y="12.00" width="2.00" height="2.00" fill="#FF9F0A"/><rect x="16.00" y="12.00" width="2.00" height="2.00" fill="#FF9F0A"/><rect x="18.00" y="12.00" width="2.00" height="2.00" fill="#FF9F0A"/><rect x="20.00" y="12.00" width="2.00" height="2.00" fill="#FF9F0A"/><rect x="22.00" y="12.00" width="2.00" height="2.00" fill="#FF9F0A"/><rect x="24.00" y="12.00" width="2.00" height="2.00" fill="#FF9F0A"/><rect x="8.00" y="14.00" width="2.00" height="2.00" fill="#FF9F0A"/><rect x="10.00" y="14.00" width="2.00" height="2.00" fill="#FF9F0A"/><rect x="12.00" y="14.00" width="2.00" height="2.00" fill="#FF9F0A"/><rect x="14.00" y="14.00" width="2.00" height="2.00" fill="#FF9F0A"/><rect x="16.00" y="14.00" width="2.00" height="2.00" fill="#FF9F0A"/><rect x="18.00" y="14.00" width="2.00" height="2.00" fill="#FF9F0A"/><rect x="20.00" y="14.00" width="2.00" height="2.00" fill="#FF9F0A"/><rect x="22.00" y="14.00" width="2.00" height="2.00" fill="#FF9F0A"/><rect x="24.00" y="14.00" width="2.00" height="2.00" fill="#FF9F0A"/><rect x="8.00" y="16.00" width="2.00" height="2.00" fill="#FF9F0A"/><rect x="10.00" y="16.00" width="2.00" height="2.00" fill="#FF9F0A"/><rect x="12.00" y="16.00" width="2.00" height="2.00" fill="#FF9F0A"/><rect x="14.00" y="16.00" width="2.00" height="2.00" fill="#FF9F0A"/><rect x="16.00" y="16.00" width="2.00" height="2.00" fill="#FF9F0A"/><rect x="18.00" y="16.00" width="2.00" height="2.00" fill="#FF9F0A"/><rect x="20.00" y="16.00" width="2.00" height="2.00" fill="#FF9F0A"/><rect x="22.00" y="16.00" width="2.00" height="2.00" fill="#FF9F0A"/><rect x="24.00" y="16.00" width="2.00" height="2.00" fill="#FF9F0A"/><rect x="10.00" y="18.00" width="2.00" height="2.00" fill="#FF9F0A"/><rect x="12.00" y="18.00" width="2.00" height="2.00" fill="#FF9F0A"/><rect x="14.00" y="18.00" width="2.00" height="2.00" fill="#FF9F0A"/><rect x="16.00" y="18.00" width="2.00" height="2.00" fill="#FF9F0A"/><rect x="18.00" y="18.00" width="2.00" height="2.00" fill="#FF9F0A"/><rect x="20.00" y="18.00" width="2.00" height="2.00" fill="#FF9F0A"/><rect x="22.00" y="18.00" width="2.00" height="2.00" fill="#FF9F0A"/><rect x="24.00" y="18.00" width="2.00" height="2.00" fill="#FF9F0A"/><rect x="12.00" y="20.00" width="2.00" height="2.00" fill="#FF9F0A"/><rect x="14.00" y="20.00" width="2.00" height="2.00" fill="#FF9F0A"/><rect x="16.00" y="20.00" width="2.00" height="2.00" fill="#FF9F0A"/><rect x="18.00" y="20.00" width="2.00" height="2.00" fill="#FF9F0A"/><rect x="20.00" y="20.00" width="2.00" height="2.00" fill="#FF9F0A"/><rect x="22.00" y="20.00" width="2.00" height="2.00" fill="#FF9F0A"/><rect x="10.00" y="22.00" width="2.00" height="2.00" fill="#FF9F0A"/><rect x="12.00" y="22.00" width="2.00" height="2.00" fill="#FF9F0A"/><rect x="22.00" y="22.00" width="2.00" height="2.00" fill="#FF9F0A"/><rect x="24.00" y="22.00" width="2.00" height="2.00" fill="#FF9F0A"/><rect x="10.00" y="24.00" width="2.00" height="2.00" fill="#FF9F0A"/><rect x="12.00" y="24.00" width="2.00" height="2.00" fill="#FF9F0A"/><text x="36" y="13.0" font-family="-apple-system, 'SF Pro Text', 'Segoe UI', system-ui, sans-serif" font-size="6.5" font-weight="600" fill="#C98F9A">5h</text><rect x="47" y="8.5" width="30" height="5" rx="2.5" fill="#FFE3D3" fill-opacity="0.16"/><rect x="47" y="8.5" width="18.60" height="5" rx="2.5" fill="#FF6B9D"/><text x="80" y="13.0" font-family="ui-monospace, 'SF Mono', SFMono-Regular, Menlo, Consolas, monospace" font-size="6.5" font-weight="600" fill="#FFE3D3">62%</text><text x="36" y="24.0" font-family="-apple-system, 'SF Pro Text', 'Segoe UI', system-ui, sans-serif" font-size="6.5" font-weight="600" fill="#C98F9A">7d</text><rect x="47" y="19.5" width="30" height="5" rx="2.5" fill="#FFE3D3" fill-opacity="0.16"/><rect x="47" y="19.5" width="10.20" height="5" rx="2.5" fill="#FF6B9D"/><text x="80" y="24.0" font-family="ui-monospace, 'SF Mono', SFMono-Regular, Menlo, Consolas, monospace" font-size="6.5" font-weight="600" fill="#FFE3D3">34%</text><text x="108" y="13.5" font-family="ui-monospace, 'SF Mono', SFMono-Regular, Menlo, Consolas, monospace" font-size="9.5" font-weight="600" fill="#FFE3D3">sonnet-5</text><text x="108" y="24.5" font-family="ui-monospace, 'SF Mono', SFMono-Regular, Menlo, Consolas, monospace" font-size="8" fill="#C98F9A">1.28M · $4.32</text></g><text x="198" y="109" font-family="-apple-system, 'SF Pro Text', 'Segoe UI', system-ui, sans-serif" font-size="11" fill="#B9B9BE">Neon Sunset</text><g transform="translate(10,130)"><rect x="0" y="1" width="176" height="28" rx="6" fill="#0A1622"/><rect x="14.00" y="4.00" width="2.00" height="2.00" fill="#5AC8FA"/><rect x="16.00" y="4.00" width="2.00" height="2.00" fill="#5AC8FA"/><rect x="18.00" y="4.00" width="2.00" height="2.00" fill="#5AC8FA"/><rect x="20.00" y="4.00" width="2.00" height="2.00" fill="#5AC8FA"/><rect x="12.00" y="6.00" width="2.00" height="2.00" fill="#5AC8FA"/><rect x="14.00" y="6.00" width="2.00" height="2.00" fill="#5AC8FA"/><rect x="16.00" y="6.00" width="2.00" height="2.00" fill="#5AC8FA"/><rect x="18.00" y="6.00" width="2.00" height="2.00" fill="#5AC8FA"/><rect x="20.00" y="6.00" width="2.00" height="2.00" fill="#5AC8FA"/><rect x="22.00" y="6.00" width="2.00" height="2.00" fill="#5AC8FA"/><rect x="12.00" y="8.00" width="2.00" height="2.00" fill="#5AC8FA"/><rect x="16.00" y="8.00" width="2.00" height="2.00" fill="#5AC8FA"/><rect x="18.00" y="8.00" width="2.00" height="2.00" fill="#5AC8FA"/><rect x="22.00" y="8.00" width="2.00" height="2.00" fill="#5AC8FA"/><rect x="12.00" y="10.00" width="2.00" height="2.00" fill="#5AC8FA"/><rect x="14.00" y="10.00" width="2.00" height="2.00" fill="#5AC8FA"/><rect x="16.00" y="10.00" width="2.00" height="2.00" fill="#5AC8FA"/><rect x="18.00" y="10.00" width="2.00" height="2.00" fill="#5AC8FA"/><rect x="20.00" y="10.00" width="2.00" height="2.00" fill="#5AC8FA"/><rect x="22.00" y="10.00" width="2.00" height="2.00" fill="#5AC8FA"/><rect x="10.00" y="12.00" width="2.00" height="2.00" fill="#5AC8FA"/><rect x="12.00" y="12.00" width="2.00" height="2.00" fill="#5AC8FA"/><rect x="14.00" y="12.00" width="2.00" height="2.00" fill="#5AC8FA"/><rect x="16.00" y="12.00" width="2.00" height="2.00" fill="#5AC8FA"/><rect x="18.00" y="12.00" width="2.00" height="2.00" fill="#5AC8FA"/><rect x="20.00" y="12.00" width="2.00" height="2.00" fill="#5AC8FA"/><rect x="22.00" y="12.00" width="2.00" height="2.00" fill="#5AC8FA"/><rect x="24.00" y="12.00" width="2.00" height="2.00" fill="#5AC8FA"/><rect x="8.00" y="14.00" width="2.00" height="2.00" fill="#5AC8FA"/><rect x="10.00" y="14.00" width="2.00" height="2.00" fill="#5AC8FA"/><rect x="12.00" y="14.00" width="2.00" height="2.00" fill="#5AC8FA"/><rect x="14.00" y="14.00" width="2.00" height="2.00" fill="#5AC8FA"/><rect x="16.00" y="14.00" width="2.00" height="2.00" fill="#5AC8FA"/><rect x="18.00" y="14.00" width="2.00" height="2.00" fill="#5AC8FA"/><rect x="20.00" y="14.00" width="2.00" height="2.00" fill="#5AC8FA"/><rect x="22.00" y="14.00" width="2.00" height="2.00" fill="#5AC8FA"/><rect x="24.00" y="14.00" width="2.00" height="2.00" fill="#5AC8FA"/><rect x="8.00" y="16.00" width="2.00" height="2.00" fill="#5AC8FA"/><rect x="10.00" y="16.00" width="2.00" height="2.00" fill="#5AC8FA"/><rect x="12.00" y="16.00" width="2.00" height="2.00" fill="#5AC8FA"/><rect x="14.00" y="16.00" width="2.00" height="2.00" fill="#5AC8FA"/><rect x="16.00" y="16.00" width="2.00" height="2.00" fill="#5AC8FA"/><rect x="18.00" y="16.00" width="2.00" height="2.00" fill="#5AC8FA"/><rect x="20.00" y="16.00" width="2.00" height="2.00" fill="#5AC8FA"/><rect x="22.00" y="16.00" width="2.00" height="2.00" fill="#5AC8FA"/><rect x="24.00" y="16.00" width="2.00" height="2.00" fill="#5AC8FA"/><rect x="10.00" y="18.00" width="2.00" height="2.00" fill="#5AC8FA"/><rect x="12.00" y="18.00" width="2.00" height="2.00" fill="#5AC8FA"/><rect x="14.00" y="18.00" width="2.00" height="2.00" fill="#5AC8FA"/><rect x="16.00" y="18.00" width="2.00" height="2.00" fill="#5AC8FA"/><rect x="18.00" y="18.00" width="2.00" height="2.00" fill="#5AC8FA"/><rect x="20.00" y="18.00" width="2.00" height="2.00" fill="#5AC8FA"/><rect x="22.00" y="18.00" width="2.00" height="2.00" fill="#5AC8FA"/><rect x="24.00" y="18.00" width="2.00" height="2.00" fill="#5AC8FA"/><rect x="12.00" y="20.00" width="2.00" height="2.00" fill="#5AC8FA"/><rect x="14.00" y="20.00" width="2.00" height="2.00" fill="#5AC8FA"/><rect x="16.00" y="20.00" width="2.00" height="2.00" fill="#5AC8FA"/><rect x="18.00" y="20.00" width="2.00" height="2.00" fill="#5AC8FA"/><rect x="20.00" y="20.00" width="2.00" height="2.00" fill="#5AC8FA"/><rect x="22.00" y="20.00" width="2.00" height="2.00" fill="#5AC8FA"/><rect x="10.00" y="22.00" width="2.00" height="2.00" fill="#5AC8FA"/><rect x="12.00" y="22.00" width="2.00" height="2.00" fill="#5AC8FA"/><rect x="22.00" y="22.00" width="2.00" height="2.00" fill="#5AC8FA"/><rect x="24.00" y="22.00" width="2.00" height="2.00" fill="#5AC8FA"/><rect x="10.00" y="24.00" width="2.00" height="2.00" fill="#5AC8FA"/><rect x="12.00" y="24.00" width="2.00" height="2.00" fill="#5AC8FA"/><text x="36" y="13.0" font-family="-apple-system, 'SF Pro Text', 'Segoe UI', system-ui, sans-serif" font-size="6.5" font-weight="600" fill="#6FA8C7">5h</text><rect x="47" y="8.5" width="30" height="5" rx="2.5" fill="#D9F3FF" fill-opacity="0.16"/><rect x="47" y="8.5" width="18.60" height="5" rx="2.5" fill="#64D2FF"/><text x="80" y="13.0" font-family="ui-monospace, 'SF Mono', SFMono-Regular, Menlo, Consolas, monospace" font-size="6.5" font-weight="600" fill="#D9F3FF">62%</text><text x="36" y="24.0" font-family="-apple-system, 'SF Pro Text', 'Segoe UI', system-ui, sans-serif" font-size="6.5" font-weight="600" fill="#6FA8C7">7d</text><rect x="47" y="19.5" width="30" height="5" rx="2.5" fill="#D9F3FF" fill-opacity="0.16"/><rect x="47" y="19.5" width="10.20" height="5" rx="2.5" fill="#64D2FF"/><text x="80" y="24.0" font-family="ui-monospace, 'SF Mono', SFMono-Regular, Menlo, Consolas, monospace" font-size="6.5" font-weight="600" fill="#D9F3FF">34%</text><text x="108" y="13.5" font-family="ui-monospace, 'SF Mono', SFMono-Regular, Menlo, Consolas, monospace" font-size="9.5" font-weight="600" fill="#D9F3FF">sonnet-5</text><text x="108" y="24.5" font-family="ui-monospace, 'SF Mono', SFMono-Regular, Menlo, Consolas, monospace" font-size="8" fill="#6FA8C7">1.28M · $4.32</text></g><text x="198" y="149" font-family="-apple-system, 'SF Pro Text', 'Segoe UI', system-ui, sans-serif" font-size="11" fill="#B9B9BE">Ocean</text><g transform="translate(10,170)"><rect x="0" y="1" width="176" height="28" rx="6" fill="#000000"/><rect x="14.00" y="4.00" width="2.00" height="2.00" fill="#FFFFFF"/><rect x="16.00" y="4.00" width="2.00" height="2.00" fill="#FFFFFF"/><rect x="18.00" y="4.00" width="2.00" height="2.00" fill="#FFFFFF"/><rect x="20.00" y="4.00" width="2.00" height="2.00" fill="#FFFFFF"/><rect x="12.00" y="6.00" width="2.00" height="2.00" fill="#FFFFFF"/><rect x="14.00" y="6.00" width="2.00" height="2.00" fill="#FFFFFF"/><rect x="16.00" y="6.00" width="2.00" height="2.00" fill="#FFFFFF"/><rect x="18.00" y="6.00" width="2.00" height="2.00" fill="#FFFFFF"/><rect x="20.00" y="6.00" width="2.00" height="2.00" fill="#FFFFFF"/><rect x="22.00" y="6.00" width="2.00" height="2.00" fill="#FFFFFF"/><rect x="12.00" y="8.00" width="2.00" height="2.00" fill="#FFFFFF"/><rect x="16.00" y="8.00" width="2.00" height="2.00" fill="#FFFFFF"/><rect x="18.00" y="8.00" width="2.00" height="2.00" fill="#FFFFFF"/><rect x="22.00" y="8.00" width="2.00" height="2.00" fill="#FFFFFF"/><rect x="12.00" y="10.00" width="2.00" height="2.00" fill="#FFFFFF"/><rect x="14.00" y="10.00" width="2.00" height="2.00" fill="#FFFFFF"/><rect x="16.00" y="10.00" width="2.00" height="2.00" fill="#FFFFFF"/><rect x="18.00" y="10.00" width="2.00" height="2.00" fill="#FFFFFF"/><rect x="20.00" y="10.00" width="2.00" height="2.00" fill="#FFFFFF"/><rect x="22.00" y="10.00" width="2.00" height="2.00" fill="#FFFFFF"/><rect x="10.00" y="12.00" width="2.00" height="2.00" fill="#FFFFFF"/><rect x="12.00" y="12.00" width="2.00" height="2.00" fill="#FFFFFF"/><rect x="14.00" y="12.00" width="2.00" height="2.00" fill="#FFFFFF"/><rect x="16.00" y="12.00" width="2.00" height="2.00" fill="#FFFFFF"/><rect x="18.00" y="12.00" width="2.00" height="2.00" fill="#FFFFFF"/><rect x="20.00" y="12.00" width="2.00" height="2.00" fill="#FFFFFF"/><rect x="22.00" y="12.00" width="2.00" height="2.00" fill="#FFFFFF"/><rect x="24.00" y="12.00" width="2.00" height="2.00" fill="#FFFFFF"/><rect x="8.00" y="14.00" width="2.00" height="2.00" fill="#FFFFFF"/><rect x="10.00" y="14.00" width="2.00" height="2.00" fill="#FFFFFF"/><rect x="12.00" y="14.00" width="2.00" height="2.00" fill="#FFFFFF"/><rect x="14.00" y="14.00" width="2.00" height="2.00" fill="#FFFFFF"/><rect x="16.00" y="14.00" width="2.00" height="2.00" fill="#FFFFFF"/><rect x="18.00" y="14.00" width="2.00" height="2.00" fill="#FFFFFF"/><rect x="20.00" y="14.00" width="2.00" height="2.00" fill="#FFFFFF"/><rect x="22.00" y="14.00" width="2.00" height="2.00" fill="#FFFFFF"/><rect x="24.00" y="14.00" width="2.00" height="2.00" fill="#FFFFFF"/><rect x="8.00" y="16.00" width="2.00" height="2.00" fill="#FFFFFF"/><rect x="10.00" y="16.00" width="2.00" height="2.00" fill="#FFFFFF"/><rect x="12.00" y="16.00" width="2.00" height="2.00" fill="#FFFFFF"/><rect x="14.00" y="16.00" width="2.00" height="2.00" fill="#FFFFFF"/><rect x="16.00" y="16.00" width="2.00" height="2.00" fill="#FFFFFF"/><rect x="18.00" y="16.00" width="2.00" height="2.00" fill="#FFFFFF"/><rect x="20.00" y="16.00" width="2.00" height="2.00" fill="#FFFFFF"/><rect x="22.00" y="16.00" width="2.00" height="2.00" fill="#FFFFFF"/><rect x="24.00" y="16.00" width="2.00" height="2.00" fill="#FFFFFF"/><rect x="10.00" y="18.00" width="2.00" height="2.00" fill="#FFFFFF"/><rect x="12.00" y="18.00" width="2.00" height="2.00" fill="#FFFFFF"/><rect x="14.00" y="18.00" width="2.00" height="2.00" fill="#FFFFFF"/><rect x="16.00" y="18.00" width="2.00" height="2.00" fill="#FFFFFF"/><rect x="18.00" y="18.00" width="2.00" height="2.00" fill="#FFFFFF"/><rect x="20.00" y="18.00" width="2.00" height="2.00" fill="#FFFFFF"/><rect x="22.00" y="18.00" width="2.00" height="2.00" fill="#FFFFFF"/><rect x="24.00" y="18.00" width="2.00" height="2.00" fill="#FFFFFF"/><rect x="12.00" y="20.00" width="2.00" height="2.00" fill="#FFFFFF"/><rect x="14.00" y="20.00" width="2.00" height="2.00" fill="#FFFFFF"/><rect x="16.00" y="20.00" width="2.00" height="2.00" fill="#FFFFFF"/><rect x="18.00" y="20.00" width="2.00" height="2.00" fill="#FFFFFF"/><rect x="20.00" y="20.00" width="2.00" height="2.00" fill="#FFFFFF"/><rect x="22.00" y="20.00" width="2.00" height="2.00" fill="#FFFFFF"/><rect x="10.00" y="22.00" width="2.00" height="2.00" fill="#FFFFFF"/><rect x="12.00" y="22.00" width="2.00" height="2.00" fill="#FFFFFF"/><rect x="22.00" y="22.00" width="2.00" height="2.00" fill="#FFFFFF"/><rect x="24.00" y="22.00" width="2.00" height="2.00" fill="#FFFFFF"/><rect x="10.00" y="24.00" width="2.00" height="2.00" fill="#FFFFFF"/><rect x="12.00" y="24.00" width="2.00" height="2.00" fill="#FFFFFF"/><text x="36" y="13.0" font-family="-apple-system, 'SF Pro Text', 'Segoe UI', system-ui, sans-serif" font-size="6.5" font-weight="600" fill="#8E8E93">5h</text><rect x="47" y="8.5" width="30" height="5" rx="2.5" fill="#FFFFFF" fill-opacity="0.16"/><rect x="47" y="8.5" width="18.60" height="5" rx="2.5" fill="#FFFFFF"/><text x="80" y="13.0" font-family="ui-monospace, 'SF Mono', SFMono-Regular, Menlo, Consolas, monospace" font-size="6.5" font-weight="600" fill="#FFFFFF">62%</text><text x="36" y="24.0" font-family="-apple-system, 'SF Pro Text', 'Segoe UI', system-ui, sans-serif" font-size="6.5" font-weight="600" fill="#8E8E93">7d</text><rect x="47" y="19.5" width="30" height="5" rx="2.5" fill="#FFFFFF" fill-opacity="0.16"/><rect x="47" y="19.5" width="10.20" height="5" rx="2.5" fill="#FFFFFF"/><text x="80" y="24.0" font-family="ui-monospace, 'SF Mono', SFMono-Regular, Menlo, Consolas, monospace" font-size="6.5" font-weight="600" fill="#FFFFFF">34%</text><text x="108" y="13.5" font-family="ui-monospace, 'SF Mono', SFMono-Regular, Menlo, Consolas, monospace" font-size="9.5" font-weight="600" fill="#FFFFFF">sonnet-5</text><text x="108" y="24.5" font-family="ui-monospace, 'SF Mono', SFMono-Regular, Menlo, Consolas, monospace" font-size="8" fill="#8E8E93">1.28M · $4.32</text></g><text x="198" y="189" font-family="-apple-system, 'SF Pro Text', 'Segoe UI', system-ui, sans-serif" font-size="11" fill="#B9B9BE">Mono</text></svg>
