<svg xmlns="http://www.w3.org/2000/svg" viewBox="0 0 560 342" width="560" height="342" role="img"><rect x="0" y="0" width="560" height="342" rx="12" fill="#0b0b12"/><text x="14" y="14" font-family="-apple-system, 'SF Pro Text', 'Segoe UI', system-ui, sans-serif" font-size="11.5" fill="#9a9aa8">COMPACT · Control Strip (~97pt) — ตอนหด</text><text x="190" y="44" font-family="-apple-system, 'SF Pro Text', 'Segoe UI', system-ui, sans-serif" font-size="11.5" fill="#9a9aa8">bars ปกติ (classic)</text><g transform="translate(14,24)"><rect x="0" y="1" width="97" height="28" rx="6" fill="#101014"/><rect x="10.40" y="6.20" width="1.60" height="1.60" fill="#64D2FF"/><rect x="12.00" y="6.20" width="1.60" height="1.60" fill="#64D2FF"/><rect x="13.60" y="6.20" width="1.60" height="1.60" fill="#64D2FF"/><rect x="15.20" y="6.20" width="1.60" height="1.60" fill="#64D2FF"/><rect x="8.80" y="7.80" width="1.60" height="1.60" fill="#64D2FF"/><rect x="10.40" y="7.80" width="1.60" height="1.60" fill="#64D2FF"/><rect x="12.00" y="7.80" width="1.60" height="1.60" fill="#64D2FF"/><rect x="13.60" y="7.80" width="1.60" height="1.60" fill="#64D2FF"/><rect x="15.20" y="7.80" width="1.60" height="1.60" fill="#64D2FF"/><rect x="16.80" y="7.80" width="1.60" height="1.60" fill="#64D2FF"/><rect x="8.80" y="9.40" width="1.60" height="1.60" fill="#64D2FF"/><rect x="12.00" y="9.40" width="1.60" height="1.60" fill="#64D2FF"/><rect x="13.60" y="9.40" width="1.60" height="1.60" fill="#64D2FF"/><rect x="16.80" y="9.40" width="1.60" height="1.60" fill="#64D2FF"/><rect x="8.80" y="11.00" width="1.60" height="1.60" fill="#64D2FF"/><rect x="10.40" y="11.00" width="1.60" height="1.60" fill="#64D2FF"/><rect x="12.00" y="11.00" width="1.60" height="1.60" fill="#64D2FF"/><rect x="13.60" y="11.00" width="1.60" height="1.60" fill="#64D2FF"/><rect x="15.20" y="11.00" width="1.60" height="1.60" fill="#64D2FF"/><rect x="16.80" y="11.00" width="1.60" height="1.60" fill="#64D2FF"/><rect x="7.20" y="12.60" width="1.60" height="1.60" fill="#64D2FF"/><rect x="8.80" y="12.60" width="1.60" height="1.60" fill="#64D2FF"/><rect x="10.40" y="12.60" width="1.60" height="1.60" fill="#64D2FF"/><rect x="12.00" y="12.60" width="1.60" height="1.60" fill="#64D2FF"/><rect x="13.60" y="12.60" width="1.60" height="1.60" fill="#64D2FF"/><rect x="15.20" y="12.60" width="1.60" height="1.60" fill="#64D2FF"/><rect x="16.80" y="12.60" width="1.60" height="1.60" fill="#64D2FF"/><rect x="18.40" y="12.60" width="1.60" height="1.60" fill="#64D2FF"/><rect x="5.60" y="14.20" width="1.60" height="1.60" fill="#64D2FF"/><rect x="7.20" y="14.20" width="1.60" height="1.60" fill="#64D2FF"/><rect x="8.80" y="14.20" width="1.60" height="1.60" fill="#64D2FF"/><rect x="10.40" y="14.20" width="1.60" height="1.60" fill="#64D2FF"/><rect x="12.00" y="14.20" width="1.60" height="1.60" fill="#64D2FF"/><rect x="13.60" y="14.20" width="1.60" height="1.60" fill="#64D2FF"/><rect x="15.20" y="14.20" width="1.60" height="1.60" fill="#64D2FF"/><rect x="16.80" y="14.20" width="1.60" height="1.60" fill="#64D2FF"/><rect x="18.40" y="14.20" width="1.60" height="1.60" fill="#64D2FF"/><rect x="5.60" y="15.80" width="1.60" height="1.60" fill="#64D2FF"/><rect x="7.20" y="15.80" width="1.60" height="1.60" fill="#64D2FF"/><rect x="8.80" y="15.80" width="1.60" height="1.60" fill="#64D2FF"/><rect x="10.40" y="15.80" width="1.60" height="1.60" fill="#64D2FF"/><rect x="12.00" y="15.80" width="1.60" height="1.60" fill="#64D2FF"/><rect x="13.60" y="15.80" width="1.60" height="1.60" fill="#64D2FF"/><rect x="15.20" y="15.80" width="1.60" height="1.60" fill="#64D2FF"/><rect x="16.80" y="15.80" width="1.60" height="1.60" fill="#64D2FF"/><rect x="18.40" y="15.80" width="1.60" height="1.60" fill="#64D2FF"/><rect x="7.20" y="17.40" width="1.60" height="1.60" fill="#64D2FF"/><rect x="8.80" y="17.40" width="1.60" height="1.60" fill="#64D2FF"/><rect x="10.40" y="17.40" width="1.60" height="1.60" fill="#64D2FF"/><rect x="12.00" y="17.40" width="1.60" height="1.60" fill="#64D2FF"/><rect x="13.60" y="17.40" width="1.60" height="1.60" fill="#64D2FF"/><rect x="15.20" y="17.40" width="1.60" height="1.60" fill="#64D2FF"/><rect x="16.80" y="17.40" width="1.60" height="1.60" fill="#64D2FF"/><rect x="18.40" y="17.40" width="1.60" height="1.60" fill="#64D2FF"/><rect x="8.80" y="19.00" width="1.60" height="1.60" fill="#64D2FF"/><rect x="10.40" y="19.00" width="1.60" height="1.60" fill="#64D2FF"/><rect x="12.00" y="19.00" width="1.60" height="1.60" fill="#64D2FF"/><rect x="13.60" y="19.00" width="1.60" height="1.60" fill="#64D2FF"/><rect x="15.20" y="19.00" width="1.60" height="1.60" fill="#64D2FF"/><rect x="16.80" y="19.00" width="1.60" height="1.60" fill="#64D2FF"/><rect x="7.20" y="20.60" width="1.60" height="1.60" fill="#64D2FF"/><rect x="8.80" y="20.60" width="1.60" height="1.60" fill="#64D2FF"/><rect x="16.80" y="20.60" width="1.60" height="1.60" fill="#64D2FF"/><rect x="18.40" y="20.60" width="1.60" height="1.60" fill="#64D2FF"/><rect x="7.20" y="22.20" width="1.60" height="1.60" fill="#64D2FF"/><rect x="8.80" y="22.20" width="1.60" height="1.60" fill="#64D2FF"/><rect x="28.200000000000003" y="5.5" width="64" height="8" rx="4.0" fill="#F2F2F7" fill-opacity="0.18"/><rect x="28.200000000000003" y="5.5" width="40.32" height="8" rx="4.0" fill="#0A84FF"/><text x="32.2" y="11.5" font-family="-apple-system, 'SF Pro Text', 'Segoe UI', system-ui, sans-serif" font-size="5.5" font-weight="700" fill="#101014">5h</text><text x="88.2" y="11.5" text-anchor="end" font-family="ui-monospace, 'SF Mono', SFMono-Regular, Menlo, Consolas, monospace" font-size="7" font-weight="700" fill="#F2F2F7">63%</text><rect x="28.200000000000003" y="17.0" width="64" height="8" rx="4.0" fill="#F2F2F7" fill-opacity="0.18"/><rect x="28.200000000000003" y="17.0" width="38.40" height="8" rx="4.0" fill="#0A84FF"/><text x="32.2" y="23.0" font-family="-apple-system, 'SF Pro Text', 'Segoe UI', system-ui, sans-serif" font-size="5.5" font-weight="700" fill="#101014">7d</text><text x="88.2" y="23.0" text-anchor="end" font-family="ui-monospace, 'SF Mono', SFMono-Regular, Menlo, Consolas, monospace" font-size="7" font-weight="700" fill="#F2F2F7">60%</text></g><text x="190" y="88" font-family="-apple-system, 'SF Pro Text', 'Segoe UI', system-ui, sans-serif" font-size="11.5" fill="#9a9aa8">ใกล้เต็ม/เต็ม limit → ส้ม 75% แดง 90%</text><g transform="translate(14,68)"><rect x="0" y="1" width="97" height="28" rx="6" fill="#101014"/><rect x="10.40" y="6.20" width="1.60" height="1.60" fill="#64D2FF"/><rect x="12.00" y="6.20" width="1.60" height="1.60" fill="#64D2FF"/><rect x="13.60" y="6.20" width="1.60" height="1.60" fill="#64D2FF"/><rect x="15.20" y="6.20" width="1.60" height="1.60" fill="#64D2FF"/><rect x="8.80" y="7.80" width="1.60" height="1.60" fill="#64D2FF"/><rect x="10.40" y="7.80" width="1.60" height="1.60" fill="#64D2FF"/><rect x="12.00" y="7.80" width="1.60" height="1.60" fill="#64D2FF"/><rect x="13.60" y="7.80" width="1.60" height="1.60" fill="#64D2FF"/><rect x="15.20" y="7.80" width="1.60" height="1.60" fill="#64D2FF"/><rect x="16.80" y="7.80" width="1.60" height="1.60" fill="#64D2FF"/><rect x="8.80" y="9.40" width="1.60" height="1.60" fill="#64D2FF"/><rect x="12.00" y="9.40" width="1.60" height="1.60" fill="#64D2FF"/><rect x="13.60" y="9.40" width="1.60" height="1.60" fill="#64D2FF"/><rect x="16.80" y="9.40" width="1.60" height="1.60" fill="#64D2FF"/><rect x="8.80" y="11.00" width="1.60" height="1.60" fill="#64D2FF"/><rect x="10.40" y="11.00" width="1.60" height="1.60" fill="#64D2FF"/><rect x="12.00" y="11.00" width="1.60" height="1.60" fill="#64D2FF"/><rect x="13.60" y="11.00" width="1.60" height="1.60" fill="#64D2FF"/><rect x="15.20" y="11.00" width="1.60" height="1.60" fill="#64D2FF"/><rect x="16.80" y="11.00" width="1.60" height="1.60" fill="#64D2FF"/><rect x="7.20" y="12.60" width="1.60" height="1.60" fill="#64D2FF"/><rect x="8.80" y="12.60" width="1.60" height="1.60" fill="#64D2FF"/><rect x="10.40" y="12.60" width="1.60" height="1.60" fill="#64D2FF"/><rect x="12.00" y="12.60" width="1.60" height="1.60" fill="#64D2FF"/><rect x="13.60" y="12.60" width="1.60" height="1.60" fill="#64D2FF"/><rect x="15.20" y="12.60" width="1.60" height="1.60" fill="#64D2FF"/><rect x="16.80" y="12.60" width="1.60" height="1.60" fill="#64D2FF"/><rect x="18.40" y="12.60" width="1.60" height="1.60" fill="#64D2FF"/><rect x="5.60" y="14.20" width="1.60" height="1.60" fill="#64D2FF"/><rect x="7.20" y="14.20" width="1.60" height="1.60" fill="#64D2FF"/><rect x="8.80" y="14.20" width="1.60" height="1.60" fill="#64D2FF"/><rect x="10.40" y="14.20" width="1.60" height="1.60" fill="#64D2FF"/><rect x="12.00" y="14.20" width="1.60" height="1.60" fill="#64D2FF"/><rect x="13.60" y="14.20" width="1.60" height="1.60" fill="#64D2FF"/><rect x="15.20" y="14.20" width="1.60" height="1.60" fill="#64D2FF"/><rect x="16.80" y="14.20" width="1.60" height="1.60" fill="#64D2FF"/><rect x="18.40" y="14.20" width="1.60" height="1.60" fill="#64D2FF"/><rect x="5.60" y="15.80" width="1.60" height="1.60" fill="#64D2FF"/><rect x="7.20" y="15.80" width="1.60" height="1.60" fill="#64D2FF"/><rect x="8.80" y="15.80" width="1.60" height="1.60" fill="#64D2FF"/><rect x="10.40" y="15.80" width="1.60" height="1.60" fill="#64D2FF"/><rect x="12.00" y="15.80" width="1.60" height="1.60" fill="#64D2FF"/><rect x="13.60" y="15.80" width="1.60" height="1.60" fill="#64D2FF"/><rect x="15.20" y="15.80" width="1.60" height="1.60" fill="#64D2FF"/><rect x="16.80" y="15.80" width="1.60" height="1.60" fill="#64D2FF"/><rect x="18.40" y="15.80" width="1.60" height="1.60" fill="#64D2FF"/><rect x="7.20" y="17.40" width="1.60" height="1.60" fill="#64D2FF"/><rect x="8.80" y="17.40" width="1.60" height="1.60" fill="#64D2FF"/><rect x="10.40" y="17.40" width="1.60" height="1.60" fill="#64D2FF"/><rect x="12.00" y="17.40" width="1.60" height="1.60" fill="#64D2FF"/><rect x="13.60" y="17.40" width="1.60" height="1.60" fill="#64D2FF"/><rect x="15.20" y="17.40" width="1.60" height="1.60" fill="#64D2FF"/><rect x="16.80" y="17.40" width="1.60" height="1.60" fill="#64D2FF"/><rect x="18.40" y="17.40" width="1.60" height="1.60" fill="#64D2FF"/><rect x="8.80" y="19.00" width="1.60" height="1.60" fill="#64D2FF"/><rect x="10.40" y="19.00" width="1.60" height="1.60" fill="#64D2FF"/><rect x="12.00" y="19.00" width="1.60" height="1.60" fill="#64D2FF"/><rect x="13.60" y="19.00" width="1.60" height="1.60" fill="#64D2FF"/><rect x="15.20" y="19.00" width="1.60" height="1.60" fill="#64D2FF"/><rect x="16.80" y="19.00" width="1.60" height="1.60" fill="#64D2FF"/><rect x="7.20" y="20.60" width="1.60" height="1.60" fill="#64D2FF"/><rect x="8.80" y="20.60" width="1.60" height="1.60" fill="#64D2FF"/><rect x="16.80" y="20.60" width="1.60" height="1.60" fill="#64D2FF"/><rect x="18.40" y="20.60" width="1.60" height="1.60" fill="#64D2FF"/><rect x="7.20" y="22.20" width="1.60" height="1.60" fill="#64D2FF"/><rect x="8.80" y="22.20" width="1.60" height="1.60" fill="#64D2FF"/><rect x="28.200000000000003" y="5.5" width="64" height="8" rx="4.0" fill="#F2F2F7" fill-opacity="0.18"/><rect x="28.200000000000003" y="5.5" width="55.04" height="8" rx="4.0" fill="#FF9F0A"/><text x="32.2" y="11.5" font-family="-apple-system, 'SF Pro Text', 'Segoe UI', system-ui, sans-serif" font-size="5.5" font-weight="700" fill="#101014">5h</text><text x="88.2" y="11.5" text-anchor="end" font-family="ui-monospace, 'SF Mono', SFMono-Regular, Menlo, Consolas, monospace" font-size="7" font-weight="700" fill="#101014">86%</text><rect x="28.200000000000003" y="17.0" width="64" height="8" rx="4.0" fill="#F2F2F7" fill-opacity="0.18"/><rect x="28.200000000000003" y="17.0" width="64.00" height="8" rx="4.0" fill="#FF453A"/><text x="32.2" y="23.0" font-family="-apple-system, 'SF Pro Text', 'Segoe UI', system-ui, sans-serif" font-size="5.5" font-weight="700" fill="#101014">7d</text><text x="88.2" y="23.0" text-anchor="end" font-family="ui-monospace, 'SF Mono', SFMono-Regular, Menlo, Consolas, monospace" font-size="7" font-weight="700" fill="#101014">100%</text></g><text x="190" y="132" font-family="-apple-system, 'SF Pro Text', 'Segoe UI', system-ui, sans-serif" font-size="11.5" fill="#9a9aa8">ทุก ~4 วิ แท่ง 5h สลับ % ⇄ เวลารีเซ็ต</text><g transform="translate(14,112)"><rect x="0" y="1" width="97" height="28" rx="6" fill="#101014"/><rect x="10.40" y="6.20" width="1.60" height="1.60" fill="#64D2FF"/><rect x="12.00" y="6.20" width="1.60" height="1.60" fill="#64D2FF"/><rect x="13.60" y="6.20" width="1.60" height="1.60" fill="#64D2FF"/><rect x="15.20" y="6.20" width="1.60" height="1.60" fill="#64D2FF"/><rect x="8.80" y="7.80" width="1.60" height="1.60" fill="#64D2FF"/><rect x="10.40" y="7.80" width="1.60" height="1.60" fill="#64D2FF"/><rect x="12.00" y="7.80" width="1.60" height="1.60" fill="#64D2FF"/><rect x="13.60" y="7.80" width="1.60" height="1.60" fill="#64D2FF"/><rect x="15.20" y="7.80" width="1.60" height="1.60" fill="#64D2FF"/><rect x="16.80" y="7.80" width="1.60" height="1.60" fill="#64D2FF"/><rect x="8.80" y="9.40" width="1.60" height="1.60" fill="#64D2FF"/><rect x="12.00" y="9.40" width="1.60" height="1.60" fill="#64D2FF"/><rect x="13.60" y="9.40" width="1.60" height="1.60" fill="#64D2FF"/><rect x="16.80" y="9.40" width="1.60" height="1.60" fill="#64D2FF"/><rect x="8.80" y="11.00" width="1.60" height="1.60" fill="#64D2FF"/><rect x="10.40" y="11.00" width="1.60" height="1.60" fill="#64D2FF"/><rect x="12.00" y="11.00" width="1.60" height="1.60" fill="#64D2FF"/><rect x="13.60" y="11.00" width="1.60" height="1.60" fill="#64D2FF"/><rect x="15.20" y="11.00" width="1.60" height="1.60" fill="#64D2FF"/><rect x="16.80" y="11.00" width="1.60" height="1.60" fill="#64D2FF"/><rect x="7.20" y="12.60" width="1.60" height="1.60" fill="#64D2FF"/><rect x="8.80" y="12.60" width="1.60" height="1.60" fill="#64D2FF"/><rect x="10.40" y="12.60" width="1.60" height="1.60" fill="#64D2FF"/><rect x="12.00" y="12.60" width="1.60" height="1.60" fill="#64D2FF"/><rect x="13.60" y="12.60" width="1.60" height="1.60" fill="#64D2FF"/><rect x="15.20" y="12.60" width="1.60" height="1.60" fill="#64D2FF"/><rect x="16.80" y="12.60" width="1.60" height="1.60" fill="#64D2FF"/><rect x="18.40" y="12.60" width="1.60" height="1.60" fill="#64D2FF"/><rect x="5.60" y="14.20" width="1.60" height="1.60" fill="#64D2FF"/><rect x="7.20" y="14.20" width="1.60" height="1.60" fill="#64D2FF"/><rect x="8.80" y="14.20" width="1.60" height="1.60" fill="#64D2FF"/><rect x="10.40" y="14.20" width="1.60" height="1.60" fill="#64D2FF"/><rect x="12.00" y="14.20" width="1.60" height="1.60" fill="#64D2FF"/><rect x="13.60" y="14.20" width="1.60" height="1.60" fill="#64D2FF"/><rect x="15.20" y="14.20" width="1.60" height="1.60" fill="#64D2FF"/><rect x="16.80" y="14.20" width="1.60" height="1.60" fill="#64D2FF"/><rect x="18.40" y="14.20" width="1.60" height="1.60" fill="#64D2FF"/><rect x="5.60" y="15.80" width="1.60" height="1.60" fill="#64D2FF"/><rect x="7.20" y="15.80" width="1.60" height="1.60" fill="#64D2FF"/><rect x="8.80" y="15.80" width="1.60" height="1.60" fill="#64D2FF"/><rect x="10.40" y="15.80" width="1.60" height="1.60" fill="#64D2FF"/><rect x="12.00" y="15.80" width="1.60" height="1.60" fill="#64D2FF"/><rect x="13.60" y="15.80" width="1.60" height="1.60" fill="#64D2FF"/><rect x="15.20" y="15.80" width="1.60" height="1.60" fill="#64D2FF"/><rect x="16.80" y="15.80" width="1.60" height="1.60" fill="#64D2FF"/><rect x="18.40" y="15.80" width="1.60" height="1.60" fill="#64D2FF"/><rect x="7.20" y="17.40" width="1.60" height="1.60" fill="#64D2FF"/><rect x="8.80" y="17.40" width="1.60" height="1.60" fill="#64D2FF"/><rect x="10.40" y="17.40" width="1.60" height="1.60" fill="#64D2FF"/><rect x="12.00" y="17.40" width="1.60" height="1.60" fill="#64D2FF"/><rect x="13.60" y="17.40" width="1.60" height="1.60" fill="#64D2FF"/><rect x="15.20" y="17.40" width="1.60" height="1.60" fill="#64D2FF"/><rect x="16.80" y="17.40" width="1.60" height="1.60" fill="#64D2FF"/><rect x="18.40" y="17.40" width="1.60" height="1.60" fill="#64D2FF"/><rect x="8.80" y="19.00" width="1.60" height="1.60" fill="#64D2FF"/><rect x="10.40" y="19.00" width="1.60" height="1.60" fill="#64D2FF"/><rect x="12.00" y="19.00" width="1.60" height="1.60" fill="#64D2FF"/><rect x="13.60" y="19.00" width="1.60" height="1.60" fill="#64D2FF"/><rect x="15.20" y="19.00" width="1.60" height="1.60" fill="#64D2FF"/><rect x="16.80" y="19.00" width="1.60" height="1.60" fill="#64D2FF"/><rect x="7.20" y="20.60" width="1.60" height="1.60" fill="#64D2FF"/><rect x="8.80" y="20.60" width="1.60" height="1.60" fill="#64D2FF"/><rect x="16.80" y="20.60" width="1.60" height="1.60" fill="#64D2FF"/><rect x="18.40" y="20.60" width="1.60" height="1.60" fill="#64D2FF"/><rect x="7.20" y="22.20" width="1.60" height="1.60" fill="#64D2FF"/><rect x="8.80" y="22.20" width="1.60" height="1.60" fill="#64D2FF"/><rect x="28.200000000000003" y="5.5" width="64" height="8" rx="4.0" fill="#F2F2F7" fill-opacity="0.18"/><rect x="28.200000000000003" y="5.5" width="40.32" height="8" rx="4.0" fill="#0A84FF"/><text x="32.2" y="11.5" font-family="-apple-system, 'SF Pro Text', 'Segoe UI', system-ui, sans-serif" font-size="5.5" font-weight="700" fill="#101014">5h</text><text x="88.2" y="11.5" text-anchor="end" font-family="ui-monospace, 'SF Mono', SFMono-Regular, Menlo, Consolas, monospace" font-size="7" font-weight="700" fill="#F2F2F7">↻1:42</text><rect x="28.200000000000003" y="17.0" width="64" height="8" rx="4.0" fill="#F2F2F7" fill-opacity="0.18"/><rect x="28.200000000000003" y="17.0" width="38.40" height="8" rx="4.0" fill="#0A84FF"/><text x="32.2" y="23.0" font-family="-apple-system, 'SF Pro Text', 'Segoe UI', system-ui, sans-serif" font-size="5.5" font-weight="700" fill="#101014">7d</text><text x="88.2" y="23.0" text-anchor="end" font-family="ui-monospace, 'SF Mono', SFMono-Regular, Menlo, Consolas, monospace" font-size="7" font-weight="700" fill="#F2F2F7">60%</text></g><text x="190" y="176" font-family="-apple-system, 'SF Pro Text', 'Segoe UI', system-ui, sans-serif" font-size="11.5" fill="#9a9aa8">lightsaber mode ⚔️ (เรือง + วูบวาบ)</text><g transform="translate(14,156)"><rect x="0" y="1" width="97" height="28" rx="6" fill="#101014"/><rect x="10.40" y="6.20" width="1.60" height="1.60" fill="#64D2FF"/><rect x="12.00" y="6.20" width="1.60" height="1.60" fill="#64D2FF"/><rect x="13.60" y="6.20" width="1.60" height="1.60" fill="#64D2FF"/><rect x="15.20" y="6.20" width="1.60" height="1.60" fill="#64D2FF"/><rect x="8.80" y="7.80" width="1.60" height="1.60" fill="#64D2FF"/><rect x="10.40" y="7.80" width="1.60" height="1.60" fill="#64D2FF"/><rect x="12.00" y="7.80" width="1.60" height="1.60" fill="#64D2FF"/><rect x="13.60" y="7.80" width="1.60" height="1.60" fill="#64D2FF"/><rect x="15.20" y="7.80" width="1.60" height="1.60" fill="#64D2FF"/><rect x="16.80" y="7.80" width="1.60" height="1.60" fill="#64D2FF"/><rect x="8.80" y="9.40" width="1.60" height="1.60" fill="#64D2FF"/><rect x="12.00" y="9.40" width="1.60" height="1.60" fill="#64D2FF"/><rect x="13.60" y="9.40" width="1.60" height="1.60" fill="#64D2FF"/><rect x="16.80" y="9.40" width="1.60" height="1.60" fill="#64D2FF"/><rect x="8.80" y="11.00" width="1.60" height="1.60" fill="#64D2FF"/><rect x="10.40" y="11.00" width="1.60" height="1.60" fill="#64D2FF"/><rect x="12.00" y="11.00" width="1.60" height="1.60" fill="#64D2FF"/><rect x="13.60" y="11.00" width="1.60" height="1.60" fill="#64D2FF"/><rect x="15.20" y="11.00" width="1.60" height="1.60" fill="#64D2FF"/><rect x="16.80" y="11.00" width="1.60" height="1.60" fill="#64D2FF"/><rect x="7.20" y="12.60" width="1.60" height="1.60" fill="#64D2FF"/><rect x="8.80" y="12.60" width="1.60" height="1.60" fill="#64D2FF"/><rect x="10.40" y="12.60" width="1.60" height="1.60" fill="#64D2FF"/><rect x="12.00" y="12.60" width="1.60" height="1.60" fill="#64D2FF"/><rect x="13.60" y="12.60" width="1.60" height="1.60" fill="#64D2FF"/><rect x="15.20" y="12.60" width="1.60" height="1.60" fill="#64D2FF"/><rect x="16.80" y="12.60" width="1.60" height="1.60" fill="#64D2FF"/><rect x="18.40" y="12.60" width="1.60" height="1.60" fill="#64D2FF"/><rect x="5.60" y="14.20" width="1.60" height="1.60" fill="#64D2FF"/><rect x="7.20" y="14.20" width="1.60" height="1.60" fill="#64D2FF"/><rect x="8.80" y="14.20" width="1.60" height="1.60" fill="#64D2FF"/><rect x="10.40" y="14.20" width="1.60" height="1.60" fill="#64D2FF"/><rect x="12.00" y="14.20" width="1.60" height="1.60" fill="#64D2FF"/><rect x="13.60" y="14.20" width="1.60" height="1.60" fill="#64D2FF"/><rect x="15.20" y="14.20" width="1.60" height="1.60" fill="#64D2FF"/><rect x="16.80" y="14.20" width="1.60" height="1.60" fill="#64D2FF"/><rect x="18.40" y="14.20" width="1.60" height="1.60" fill="#64D2FF"/><rect x="5.60" y="15.80" width="1.60" height="1.60" fill="#64D2FF"/><rect x="7.20" y="15.80" width="1.60" height="1.60" fill="#64D2FF"/><rect x="8.80" y="15.80" width="1.60" height="1.60" fill="#64D2FF"/><rect x="10.40" y="15.80" width="1.60" height="1.60" fill="#64D2FF"/><rect x="12.00" y="15.80" width="1.60" height="1.60" fill="#64D2FF"/><rect x="13.60" y="15.80" width="1.60" height="1.60" fill="#64D2FF"/><rect x="15.20" y="15.80" width="1.60" height="1.60" fill="#64D2FF"/><rect x="16.80" y="15.80" width="1.60" height="1.60" fill="#64D2FF"/><rect x="18.40" y="15.80" width="1.60" height="1.60" fill="#64D2FF"/><rect x="7.20" y="17.40" width="1.60" height="1.60" fill="#64D2FF"/><rect x="8.80" y="17.40" width="1.60" height="1.60" fill="#64D2FF"/><rect x="10.40" y="17.40" width="1.60" height="1.60" fill="#64D2FF"/><rect x="12.00" y="17.40" width="1.60" height="1.60" fill="#64D2FF"/><rect x="13.60" y="17.40" width="1.60" height="1.60" fill="#64D2FF"/><rect x="15.20" y="17.40" width="1.60" height="1.60" fill="#64D2FF"/><rect x="16.80" y="17.40" width="1.60" height="1.60" fill="#64D2FF"/><rect x="18.40" y="17.40" width="1.60" height="1.60" fill="#64D2FF"/><rect x="8.80" y="19.00" width="1.60" height="1.60" fill="#64D2FF"/><rect x="10.40" y="19.00" width="1.60" height="1.60" fill="#64D2FF"/><rect x="12.00" y="19.00" width="1.60" height="1.60" fill="#64D2FF"/><rect x="13.60" y="19.00" width="1.60" height="1.60" fill="#64D2FF"/><rect x="15.20" y="19.00" width="1.60" height="1.60" fill="#64D2FF"/><rect x="16.80" y="19.00" width="1.60" height="1.60" fill="#64D2FF"/><rect x="7.20" y="20.60" width="1.60" height="1.60" fill="#64D2FF"/><rect x="8.80" y="20.60" width="1.60" height="1.60" fill="#64D2FF"/><rect x="16.80" y="20.60" width="1.60" height="1.60" fill="#64D2FF"/><rect x="18.40" y="20.60" width="1.60" height="1.60" fill="#64D2FF"/><rect x="7.20" y="22.20" width="1.60" height="1.60" fill="#64D2FF"/><rect x="8.80" y="22.20" width="1.60" height="1.60" fill="#64D2FF"/><rect x="28.200000000000003" y="5.5" width="64" height="8" rx="4.0" fill="#F2F2F7" fill-opacity="0.12"/><rect x="28.200000000000003" y="6.0" width="5" height="7" rx="1.5" fill="#98989D"/><rect x="31.700000000000003" y="4.0" width="40.2" height="11" rx="5.5" fill="#0A84FF" opacity="0.32"><animate attributeName="opacity" values="0.22;0.42;0.22" dur="1.3s" repeatCount="indefinite"/></rect><rect x="33.2" y="5.5" width="37.2" height="8" rx="4.0" fill="#0A84FF" opacity="0.92"/><rect x="34.7" y="7.9" width="34.2" height="3.2" rx="1.6" fill="#FFFFFF" opacity="0.85"/><text x="32.2" y="11.5" font-family="-apple-system, 'SF Pro Text', 'Segoe UI', system-ui, sans-serif" font-size="5.5" font-weight="700" fill="#101014">5h</text><text x="88.2" y="11.5" text-anchor="end" font-family="ui-monospace, 'SF Mono', SFMono-Regular, Menlo, Consolas, monospace" font-size="7" font-weight="700" fill="#F2F2F7">63%</text><rect x="28.200000000000003" y="17.0" width="64" height="8" rx="4.0" fill="#F2F2F7" fill-opacity="0.12"/><rect x="28.200000000000003" y="17.5" width="5" height="7" rx="1.5" fill="#98989D"/><rect x="31.700000000000003" y="15.5" width="38.4" height="11" rx="5.5" fill="#0A84FF" opacity="0.32"><animate attributeName="opacity" values="0.22;0.42;0.22" dur="1.7s" repeatCount="indefinite"/></rect><rect x="33.2" y="17.0" width="35.4" height="8" rx="4.0" fill="#0A84FF" opacity="0.92"/><rect x="34.7" y="19.4" width="32.4" height="3.2" rx="1.6" fill="#FFFFFF" opacity="0.85"/><text x="32.2" y="23.0" font-family="-apple-system, 'SF Pro Text', 'Segoe UI', system-ui, sans-serif" font-size="5.5" font-weight="700" fill="#101014">7d</text><text x="88.2" y="23.0" text-anchor="end" font-family="ui-monospace, 'SF Mono', SFMono-Regular, Menlo, Consolas, monospace" font-size="7" font-weight="700" fill="#F2F2F7">60%</text></g><text x="190" y="220" font-family="-apple-system, 'SF Pro Text', 'Segoe UI', system-ui, sans-serif" font-size="11.5" fill="#9a9aa8">text mode (ปิด bars): model + วันนี้</text><g transform="translate(14,200)"><rect x="0" y="1" width="100" height="28" rx="6" fill="#101014"/><rect x="13.00" y="4.00" width="2.00" height="2.00" fill="#64D2FF"/><rect x="15.00" y="4.00" width="2.00" height="2.00" fill="#64D2FF"/><rect x="17.00" y="4.00" width="2.00" height="2.00" fill="#64D2FF"/><rect x="19.00" y="4.00" width="2.00" height="2.00" fill="#64D2FF"/><rect x="11.00" y="6.00" width="2.00" height="2.00" fill="#64D2FF"/><rect x="13.00" y="6.00" width="2.00" height="2.00" fill="#64D2FF"/><rect x="15.00" y="6.00" width="2.00" height="2.00" fill="#64D2FF"/><rect x="17.00" y="6.00" width="2.00" height="2.00" fill="#64D2FF"/><rect x="19.00" y="6.00" width="2.00" height="2.00" fill="#64D2FF"/><rect x="21.00" y="6.00" width="2.00" height="2.00" fill="#64D2FF"/><rect x="11.00" y="8.00" width="2.00" height="2.00" fill="#64D2FF"/><rect x="15.00" y="8.00" width="2.00" height="2.00" fill="#64D2FF"/><rect x="17.00" y="8.00" width="2.00" height="2.00" fill="#64D2FF"/><rect x="21.00" y="8.00" width="2.00" height="2.00" fill="#64D2FF"/><rect x="11.00" y="10.00" width="2.00" height="2.00" fill="#64D2FF"/><rect x="13.00" y="10.00" width="2.00" height="2.00" fill="#64D2FF"/><rect x="15.00" y="10.00" width="2.00" height="2.00" fill="#64D2FF"/><rect x="17.00" y="10.00" width="2.00" height="2.00" fill="#64D2FF"/><rect x="19.00" y="10.00" width="2.00" height="2.00" fill="#64D2FF"/><rect x="21.00" y="10.00" width="2.00" height="2.00" fill="#64D2FF"/><rect x="9.00" y="12.00" width="2.00" height="2.00" fill="#64D2FF"/><rect x="11.00" y="12.00" width="2.00" height="2.00" fill="#64D2FF"/><rect x="13.00" y="12.00" width="2.00" height="2.00" fill="#64D2FF"/><rect x="15.00" y="12.00" width="2.00" height="2.00" fill="#64D2FF"/><rect x="17.00" y="12.00" width="2.00" height="2.00" fill="#64D2FF"/><rect x="19.00" y="12.00" width="2.00" height="2.00" fill="#64D2FF"/><rect x="21.00" y="12.00" width="2.00" height="2.00" fill="#64D2FF"/><rect x="23.00" y="12.00" width="2.00" height="2.00" fill="#64D2FF"/><rect x="7.00" y="14.00" width="2.00" height="2.00" fill="#64D2FF"/><rect x="9.00" y="14.00" width="2.00" height="2.00" fill="#64D2FF"/><rect x="11.00" y="14.00" width="2.00" height="2.00" fill="#64D2FF"/><rect x="13.00" y="14.00" width="2.00" height="2.00" fill="#64D2FF"/><rect x="15.00" y="14.00" width="2.00" height="2.00" fill="#64D2FF"/><rect x="17.00" y="14.00" width="2.00" height="2.00" fill="#64D2FF"/><rect x="19.00" y="14.00" width="2.00" height="2.00" fill="#64D2FF"/><rect x="21.00" y="14.00" width="2.00" height="2.00" fill="#64D2FF"/><rect x="23.00" y="14.00" width="2.00" height="2.00" fill="#64D2FF"/><rect x="7.00" y="16.00" width="2.00" height="2.00" fill="#64D2FF"/><rect x="9.00" y="16.00" width="2.00" height="2.00" fill="#64D2FF"/><rect x="11.00" y="16.00" width="2.00" height="2.00" fill="#64D2FF"/><rect x="13.00" y="16.00" width="2.00" height="2.00" fill="#64D2FF"/><rect x="15.00" y="16.00" width="2.00" height="2.00" fill="#64D2FF"/><rect x="17.00" y="16.00" width="2.00" height="2.00" fill="#64D2FF"/><rect x="19.00" y="16.00" width="2.00" height="2.00" fill="#64D2FF"/><rect x="21.00" y="16.00" width="2.00" height="2.00" fill="#64D2FF"/><rect x="23.00" y="16.00" width="2.00" height="2.00" fill="#64D2FF"/><rect x="9.00" y="18.00" width="2.00" height="2.00" fill="#64D2FF"/><rect x="11.00" y="18.00" width="2.00" height="2.00" fill="#64D2FF"/><rect x="13.00" y="18.00" width="2.00" height="2.00" fill="#64D2FF"/><rect x="15.00" y="18.00" width="2.00" height="2.00" fill="#64D2FF"/><rect x="17.00" y="18.00" width="2.00" height="2.00" fill="#64D2FF"/><rect x="19.00" y="18.00" width="2.00" height="2.00" fill="#64D2FF"/><rect x="21.00" y="18.00" width="2.00" height="2.00" fill="#64D2FF"/><rect x="23.00" y="18.00" width="2.00" height="2.00" fill="#64D2FF"/><rect x="11.00" y="20.00" width="2.00" height="2.00" fill="#64D2FF"/><rect x="13.00" y="20.00" width="2.00" height="2.00" fill="#64D2FF"/><rect x="15.00" y="20.00" width="2.00" height="2.00" fill="#64D2FF"/><rect x="17.00" y="20.00" width="2.00" height="2.00" fill="#64D2FF"/><rect x="19.00" y="20.00" width="2.00" height="2.00" fill="#64D2FF"/><rect x="21.00" y="20.00" width="2.00" height="2.00" fill="#64D2FF"/><rect x="9.00" y="22.00" width="2.00" height="2.00" fill="#64D2FF"/><rect x="11.00" y="22.00" width="2.00" height="2.00" fill="#64D2FF"/><rect x="21.00" y="22.00" width="2.00" height="2.00" fill="#64D2FF"/><rect x="23.00" y="22.00" width="2.00" height="2.00" fill="#64D2FF"/><rect x="9.00" y="24.00" width="2.00" height="2.00" fill="#64D2FF"/><rect x="11.00" y="24.00" width="2.00" height="2.00" fill="#64D2FF"/><text x="35" y="13" font-family="ui-monospace, 'SF Mono', SFMono-Regular, Menlo, Consolas, monospace" font-size="11" font-weight="600" fill="#F2F2F7">sonnet-5</text><text x="35" y="24.5" font-family="ui-monospace, 'SF Mono', SFMono-Regular, Menlo, Consolas, monospace" font-size="8" fill="#98989D">1.28M · $4.32</text></g><text x="190" y="264" font-family="-apple-system, 'SF Pro Text', 'Segoe UI', system-ui, sans-serif" font-size="11.5" fill="#9a9aa8">Claude ขอสิทธิ์ → กะพริบ, แตะเพื่อตัดสิน</text><g transform="translate(14,244)"><rect x="0" y="1" width="148" height="28" rx="6" opacity="0.95" fill="#0A84FF"/><rect x="13.00" y="4.00" width="2.00" height="2.00" fill="#FFFFFF"/><rect x="15.00" y="4.00" width="2.00" height="2.00" fill="#FFFFFF"/><rect x="17.00" y="4.00" width="2.00" height="2.00" fill="#FFFFFF"/><rect x="19.00" y="4.00" width="2.00" height="2.00" fill="#FFFFFF"/><rect x="11.00" y="6.00" width="2.00" height="2.00" fill="#FFFFFF"/><rect x="13.00" y="6.00" width="2.00" height="2.00" fill="#FFFFFF"/><rect x="15.00" y="6.00" width="2.00" height="2.00" fill="#FFFFFF"/><rect x="17.00" y="6.00" width="2.00" height="2.00" fill="#FFFFFF"/><rect x="19.00" y="6.00" width="2.00" height="2.00" fill="#FFFFFF"/><rect x="21.00" y="6.00" width="2.00" height="2.00" fill="#FFFFFF"/><rect x="11.00" y="8.00" width="2.00" height="2.00" fill="#FFFFFF"/><rect x="15.00" y="8.00" width="2.00" height="2.00" fill="#FFFFFF"/><rect x="17.00" y="8.00" width="2.00" height="2.00" fill="#FFFFFF"/><rect x="21.00" y="8.00" width="2.00" height="2.00" fill="#FFFFFF"/><rect x="11.00" y="10.00" width="2.00" height="2.00" fill="#FFFFFF"/><rect x="13.00" y="10.00" width="2.00" height="2.00" fill="#FFFFFF"/><rect x="15.00" y="10.00" width="2.00" height="2.00" fill="#FFFFFF"/><rect x="17.00" y="10.00" width="2.00" height="2.00" fill="#FFFFFF"/><rect x="19.00" y="10.00" width="2.00" height="2.00" fill="#FFFFFF"/><rect x="21.00" y="10.00" width="2.00" height="2.00" fill="#FFFFFF"/><rect x="9.00" y="12.00" width="2.00" height="2.00" fill="#FFFFFF"/><rect x="11.00" y="12.00" width="2.00" height="2.00" fill="#FFFFFF"/><rect x="13.00" y="12.00" width="2.00" height="2.00" fill="#FFFFFF"/><rect x="15.00" y="12.00" width="2.00" height="2.00" fill="#FFFFFF"/><rect x="17.00" y="12.00" width="2.00" height="2.00" fill="#FFFFFF"/><rect x="19.00" y="12.00" width="2.00" height="2.00" fill="#FFFFFF"/><rect x="21.00" y="12.00" width="2.00" height="2.00" fill="#FFFFFF"/><rect x="23.00" y="12.00" width="2.00" height="2.00" fill="#FFFFFF"/><rect x="7.00" y="14.00" width="2.00" height="2.00" fill="#FFFFFF"/><rect x="9.00" y="14.00" width="2.00" height="2.00" fill="#FFFFFF"/><rect x="11.00" y="14.00" width="2.00" height="2.00" fill="#FFFFFF"/><rect x="13.00" y="14.00" width="2.00" height="2.00" fill="#FFFFFF"/><rect x="15.00" y="14.00" width="2.00" height="2.00" fill="#FFFFFF"/><rect x="17.00" y="14.00" width="2.00" height="2.00" fill="#FFFFFF"/><rect x="19.00" y="14.00" width="2.00" height="2.00" fill="#FFFFFF"/><rect x="21.00" y="14.00" width="2.00" height="2.00" fill="#FFFFFF"/><rect x="23.00" y="14.00" width="2.00" height="2.00" fill="#FFFFFF"/><rect x="7.00" y="16.00" width="2.00" height="2.00" fill="#FFFFFF"/><rect x="9.00" y="16.00" width="2.00" height="2.00" fill="#FFFFFF"/><rect x="11.00" y="16.00" width="2.00" height="2.00" fill="#FFFFFF"/><rect x="13.00" y="16.00" width="2.00" height="2.00" fill="#FFFFFF"/><rect x="15.00" y="16.00" width="2.00" height="2.00" fill="#FFFFFF"/><rect x="17.00" y="16.00" width="2.00" height="2.00" fill="#FFFFFF"/><rect x="19.00" y="16.00" width="2.00" height="2.00" fill="#FFFFFF"/><rect x="21.00" y="16.00" width="2.00" height="2.00" fill="#FFFFFF"/><rect x="23.00" y="16.00" width="2.00" height="2.00" fill="#FFFFFF"/><rect x="9.00" y="18.00" width="2.00" height="2.00" fill="#FFFFFF"/><rect x="11.00" y="18.00" width="2.00" height="2.00" fill="#FFFFFF"/><rect x="13.00" y="18.00" width="2.00" height="2.00" fill="#FFFFFF"/><rect x="15.00" y="18.00" width="2.00" height="2.00" fill="#FFFFFF"/><rect x="17.00" y="18.00" width="2.00" height="2.00" fill="#FFFFFF"/><rect x="19.00" y="18.00" width="2.00" height="2.00" fill="#FFFFFF"/><rect x="21.00" y="18.00" width="2.00" height="2.00" fill="#FFFFFF"/><rect x="23.00" y="18.00" width="2.00" height="2.00" fill="#FFFFFF"/><rect x="11.00" y="20.00" width="2.00" height="2.00" fill="#FFFFFF"/><rect x="13.00" y="20.00" width="2.00" height="2.00" fill="#FFFFFF"/><rect x="15.00" y="20.00" width="2.00" height="2.00" fill="#FFFFFF"/><rect x="17.00" y="20.00" width="2.00" height="2.00" fill="#FFFFFF"/><rect x="19.00" y="20.00" width="2.00" height="2.00" fill="#FFFFFF"/><rect x="21.00" y="20.00" width="2.00" height="2.00" fill="#FFFFFF"/><rect x="9.00" y="22.00" width="2.00" height="2.00" fill="#FFFFFF"/><rect x="11.00" y="22.00" width="2.00" height="2.00" fill="#FFFFFF"/><rect x="21.00" y="22.00" width="2.00" height="2.00" fill="#FFFFFF"/><rect x="23.00" y="22.00" width="2.00" height="2.00" fill="#FFFFFF"/><rect x="9.00" y="24.00" width="2.00" height="2.00" fill="#FFFFFF"/><rect x="11.00" y="24.00" width="2.00" height="2.00" fill="#FFFFFF"/><text x="35" y="13" font-family="ui-monospace, 'SF Mono', SFMono-Regular, Menlo, Consolas, monospace" font-size="11" font-weight="600" fill="#FFFFFF">Bash · my-project</text><text x="35" y="24.5" font-family="ui-monospace, 'SF Mono', SFMono-Regular, Menlo, Consolas, monospace" font-size="8" fill="#FFFFFF" fill-opacity="0.85">tap to review</text></g><text x="190" y="308" font-family="-apple-system, 'SF Pro Text', 'Segoe UI', system-ui, sans-serif" font-size="11.5" fill="#9a9aa8">toast: Claude ทำงานเสร็จ / แจ้งเตือน</text><g transform="translate(14,288)"><rect x="0" y="1" width="152" height="28" rx="6" fill="#101014"/><rect x="13.00" y="4.00" width="2.00" height="2.00" fill="#64D2FF"/><rect x="15.00" y="4.00" width="2.00" height="2.00" fill="#64D2FF"/><rect x="17.00" y="4.00" width="2.00" height="2.00" fill="#64D2FF"/><rect x="19.00" y="4.00" width="2.00" height="2.00" fill="#64D2FF"/><rect x="11.00" y="6.00" width="2.00" height="2.00" fill="#64D2FF"/><rect x="13.00" y="6.00" width="2.00" height="2.00" fill="#64D2FF"/><rect x="15.00" y="6.00" width="2.00" height="2.00" fill="#64D2FF"/><rect x="17.00" y="6.00" width="2.00" height="2.00" fill="#64D2FF"/><rect x="19.00" y="6.00" width="2.00" height="2.00" fill="#64D2FF"/><rect x="21.00" y="6.00" width="2.00" height="2.00" fill="#64D2FF"/><rect x="11.00" y="8.00" width="2.00" height="2.00" fill="#64D2FF"/><rect x="15.00" y="8.00" width="2.00" height="2.00" fill="#64D2FF"/><rect x="17.00" y="8.00" width="2.00" height="2.00" fill="#64D2FF"/><rect x="21.00" y="8.00" width="2.00" height="2.00" fill="#64D2FF"/><rect x="11.00" y="10.00" width="2.00" height="2.00" fill="#64D2FF"/><rect x="13.00" y="10.00" width="2.00" height="2.00" fill="#64D2FF"/><rect x="15.00" y="10.00" width="2.00" height="2.00" fill="#64D2FF"/><rect x="17.00" y="10.00" width="2.00" height="2.00" fill="#64D2FF"/><rect x="19.00" y="10.00" width="2.00" height="2.00" fill="#64D2FF"/><rect x="21.00" y="10.00" width="2.00" height="2.00" fill="#64D2FF"/><rect x="9.00" y="12.00" width="2.00" height="2.00" fill="#64D2FF"/><rect x="11.00" y="12.00" width="2.00" height="2.00" fill="#64D2FF"/><rect x="13.00" y="12.00" width="2.00" height="2.00" fill="#64D2FF"/><rect x="15.00" y="12.00" width="2.00" height="2.00" fill="#64D2FF"/><rect x="17.00" y="12.00" width="2.00" height="2.00" fill="#64D2FF"/><rect x="19.00" y="12.00" width="2.00" height="2.00" fill="#64D2FF"/><rect x="21.00" y="12.00" width="2.00" height="2.00" fill="#64D2FF"/><rect x="23.00" y="12.00" width="2.00" height="2.00" fill="#64D2FF"/><rect x="7.00" y="14.00" width="2.00" height="2.00" fill="#64D2FF"/><rect x="9.00" y="14.00" width="2.00" height="2.00" fill="#64D2FF"/><rect x="11.00" y="14.00" width="2.00" height="2.00" fill="#64D2FF"/><rect x="13.00" y="14.00" width="2.00" height="2.00" fill="#64D2FF"/><rect x="15.00" y="14.00" width="2.00" height="2.00" fill="#64D2FF"/><rect x="17.00" y="14.00" width="2.00" height="2.00" fill="#64D2FF"/><rect x="19.00" y="14.00" width="2.00" height="2.00" fill="#64D2FF"/><rect x="21.00" y="14.00" width="2.00" height="2.00" fill="#64D2FF"/><rect x="23.00" y="14.00" width="2.00" height="2.00" fill="#64D2FF"/><rect x="7.00" y="16.00" width="2.00" height="2.00" fill="#64D2FF"/><rect x="9.00" y="16.00" width="2.00" height="2.00" fill="#64D2FF"/><rect x="11.00" y="16.00" width="2.00" height="2.00" fill="#64D2FF"/><rect x="13.00" y="16.00" width="2.00" height="2.00" fill="#64D2FF"/><rect x="15.00" y="16.00" width="2.00" height="2.00" fill="#64D2FF"/><rect x="17.00" y="16.00" width="2.00" height="2.00" fill="#64D2FF"/><rect x="19.00" y="16.00" width="2.00" height="2.00" fill="#64D2FF"/><rect x="21.00" y="16.00" width="2.00" height="2.00" fill="#64D2FF"/><rect x="23.00" y="16.00" width="2.00" height="2.00" fill="#64D2FF"/><rect x="9.00" y="18.00" width="2.00" height="2.00" fill="#64D2FF"/><rect x="11.00" y="18.00" width="2.00" height="2.00" fill="#64D2FF"/><rect x="13.00" y="18.00" width="2.00" height="2.00" fill="#64D2FF"/><rect x="15.00" y="18.00" width="2.00" height="2.00" fill="#64D2FF"/><rect x="17.00" y="18.00" width="2.00" height="2.00" fill="#64D2FF"/><rect x="19.00" y="18.00" width="2.00" height="2.00" fill="#64D2FF"/><rect x="21.00" y="18.00" width="2.00" height="2.00" fill="#64D2FF"/><rect x="23.00" y="18.00" width="2.00" height="2.00" fill="#64D2FF"/><rect x="11.00" y="20.00" width="2.00" height="2.00" fill="#64D2FF"/><rect x="13.00" y="20.00" width="2.00" height="2.00" fill="#64D2FF"/><rect x="15.00" y="20.00" width="2.00" height="2.00" fill="#64D2FF"/><rect x="17.00" y="20.00" width="2.00" height="2.00" fill="#64D2FF"/><rect x="19.00" y="20.00" width="2.00" height="2.00" fill="#64D2FF"/><rect x="21.00" y="20.00" width="2.00" height="2.00" fill="#64D2FF"/><rect x="9.00" y="22.00" width="2.00" height="2.00" fill="#64D2FF"/><rect x="11.00" y="22.00" width="2.00" height="2.00" fill="#64D2FF"/><rect x="21.00" y="22.00" width="2.00" height="2.00" fill="#64D2FF"/><rect x="23.00" y="22.00" width="2.00" height="2.00" fill="#64D2FF"/><rect x="9.00" y="24.00" width="2.00" height="2.00" fill="#64D2FF"/><rect x="11.00" y="24.00" width="2.00" height="2.00" fill="#64D2FF"/><text x="35" y="19" font-family="ui-monospace, 'SF Mono', SFMono-Regular, Menlo, Consolas, monospace" font-size="11" font-weight="600" fill="#F2F2F7">✅ Claude finished</text></g></svg>
