<svg xmlns="http://www.w3.org/2000/svg" viewBox="0 0 560 560" width="560" height="560" role="img"><rect x="0" y="0" width="560" height="560" rx="12" fill="#0b0b12"/><text x="14" y="16" font-family="-apple-system, 'SF Pro Text', 'Segoe UI', system-ui, sans-serif" font-size="11.5" fill="#9a9aa8">MENU BAR · icon = pet ที่เลือก + 5h%/Wk%</text><g transform="translate(14,28)"><rect x="0" y="0" width="380" height="26" rx="6" fill="#1b1b22"/><text x="12" y="17.5" font-family="-apple-system, 'SF Pro Text', 'Segoe UI', system-ui, sans-serif" font-size="12" fill="#6a6a75">⌘  File  Edit  View</text><rect x="241.00" y="6.20" width="1.25" height="1.25" fill="#E8E8F2"/><rect x="242.25" y="6.20" width="1.25" height="1.25" fill="#E8E8F2"/><rect x="243.50" y="6.20" width="1.25" height="1.25" fill="#E8E8F2"/><rect x="244.75" y="6.20" width="1.25" height="1.25" fill="#E8E8F2"/><rect x="239.75" y="7.45" width="1.25" height="1.25" fill="#E8E8F2"/><rect x="241.00" y="7.45" width="1.25" height="1.25" fill="#E8E8F2"/><rect x="242.25" y="7.45" width="1.25" height="1.25" fill="#E8E8F2"/><rect x="243.50" y="7.45" width="1.25" height="1.25" fill="#E8E8F2"/><rect x="244.75" y="7.45" width="1.25" height="1.25" fill="#E8E8F2"/><rect x="246.00" y="7.45" width="1.25" height="1.25" fill="#E8E8F2"/><rect x="239.75" y="8.70" width="1.25" height="1.25" fill="#E8E8F2"/><rect x="242.25" y="8.70" width="1.25" height="1.25" fill="#E8E8F2"/><rect x="243.50" y="8.70" width="1.25" height="1.25" fill="#E8E8F2"/><rect x="246.00" y="8.70" width="1.25" height="1.25" fill="#E8E8F2"/><rect x="239.75" y="9.95" width="1.25" height="1.25" fill="#E8E8F2"/><rect x="241.00" y="9.95" width="1.25" height="1.25" fill="#E8E8F2"/><rect x="242.25" y="9.95" width="1.25" height="1.25" fill="#E8E8F2"/><rect x="243.50" y="9.95" width="1.25" height="1.25" fill="#E8E8F2"/><rect x="244.75" y="9.95" width="1.25" height="1.25" fill="#E8E8F2"/><rect x="246.00" y="9.95" width="1.25" height="1.25" fill="#E8E8F2"/><rect x="238.50" y="11.20" width="1.25" height="1.25" fill="#E8E8F2"/><rect x="239.75" y="11.20" width="1.25" height="1.25" fill="#E8E8F2"/><rect x="241.00" y="11.20" width="1.25" height="1.25" fill="#E8E8F2"/><rect x="242.25" y="11.20" width="1.25" height="1.25" fill="#E8E8F2"/><rect x="243.50" y="11.20" width="1.25" height="1.25" fill="#E8E8F2"/><rect x="244.75" y="11.20" width="1.25" height="1.25" fill="#E8E8F2"/><rect x="246.00" y="11.20" width="1.25" height="1.25" fill="#E8E8F2"/><rect x="247.25" y="11.20" width="1.25" height="1.25" fill="#E8E8F2"/><rect x="237.25" y="12.45" width="1.25" height="1.25" fill="#E8E8F2"/><rect x="238.50" y="12.45" width="1.25" height="1.25" fill="#E8E8F2"/><rect x="239.75" y="12.45" width="1.25" height="1.25" fill="#E8E8F2"/><rect x="241.00" y="12.45" width="1.25" height="1.25" fill="#E8E8F2"/><rect x="242.25" y="12.45" width="1.25" height="1.25" fill="#E8E8F2"/><rect x="243.50" y="12.45" width="1.25" height="1.25" fill="#E8E8F2"/><rect x="244.75" y="12.45" width="1.25" height="1.25" fill="#E8E8F2"/><rect x="246.00" y="12.45" width="1.25" height="1.25" fill="#E8E8F2"/><rect x="247.25" y="12.45" width="1.25" height="1.25" fill="#E8E8F2"/><rect x="237.25" y="13.70" width="1.25" height="1.25" fill="#E8E8F2"/><rect x="238.50" y="13.70" width="1.25" height="1.25" fill="#E8E8F2"/><rect x="239.75" y="13.70" width="1.25" height="1.25" fill="#E8E8F2"/><rect x="241.00" y="13.70" width="1.25" height="1.25" fill="#E8E8F2"/><rect x="242.25" y="13.70" width="1.25" height="1.25" fill="#E8E8F2"/><rect x="243.50" y="13.70" width="1.25" height="1.25" fill="#E8E8F2"/><rect x="244.75" y="13.70" width="1.25" height="1.25" fill="#E8E8F2"/><rect x="246.00" y="13.70" width="1.25" height="1.25" fill="#E8E8F2"/><rect x="247.25" y="13.70" width="1.25" height="1.25" fill="#E8E8F2"/><rect x="238.50" y="14.95" width="1.25" height="1.25" fill="#E8E8F2"/><rect x="239.75" y="14.95" width="1.25" height="1.25" fill="#E8E8F2"/><rect x="241.00" y="14.95" width="1.25" height="1.25" fill="#E8E8F2"/><rect x="242.25" y="14.95" width="1.25" height="1.25" fill="#E8E8F2"/><rect x="243.50" y="14.95" width="1.25" height="1.25" fill="#E8E8F2"/><rect x="244.75" y="14.95" width="1.25" height="1.25" fill="#E8E8F2"/><rect x="246.00" y="14.95" width="1.25" height="1.25" fill="#E8E8F2"/><rect x="247.25" y="14.95" width="1.25" height="1.25" fill="#E8E8F2"/><rect x="239.75" y="16.20" width="1.25" height="1.25" fill="#E8E8F2"/><rect x="241.00" y="16.20" width="1.25" height="1.25" fill="#E8E8F2"/><rect x="242.25" y="16.20" width="1.25" height="1.25" fill="#E8E8F2"/><rect x="243.50" y="16.20" width="1.25" height="1.25" fill="#E8E8F2"/><rect x="244.75" y="16.20" width="1.25" height="1.25" fill="#E8E8F2"/><rect x="246.00" y="16.20" width="1.25" height="1.25" fill="#E8E8F2"/><rect x="238.50" y="17.45" width="1.25" height="1.25" fill="#E8E8F2"/><rect x="239.75" y="17.45" width="1.25" height="1.25" fill="#E8E8F2"/><rect x="246.00" y="17.45" width="1.25" height="1.25" fill="#E8E8F2"/><rect x="247.25" y="17.45" width="1.25" height="1.25" fill="#E8E8F2"/><rect x="238.50" y="18.70" width="1.25" height="1.25" fill="#E8E8F2"/><rect x="239.75" y="18.70" width="1.25" height="1.25" fill="#E8E8F2"/><text x="256" y="17.5" font-family="ui-monospace, 'SF Mono', SFMono-Regular, Menlo, Consolas, monospace" font-size="12" fill="#E8E8F2">63%/60%</text><text x="322" y="17.5" font-family="-apple-system, 'SF Pro Text', 'Segoe UI', system-ui, sans-serif" font-size="12" fill="#6a6a75">🔋 14:32</text></g><text x="410" y="45" font-family="-apple-system, 'SF Pro Text', 'Segoe UI', system-ui, sans-serif" font-size="11.5" fill="#9a9aa8">ปกติ</text><g transform="translate(14,64)"><rect x="0" y="0" width="380" height="26" rx="6" fill="#1b1b22"/><text x="12" y="17.5" font-family="-apple-system, 'SF Pro Text', 'Segoe UI', system-ui, sans-serif" font-size="12" fill="#6a6a75">⌘  File  Edit  View</text><rect x="241.00" y="6.20" width="1.25" height="1.25" fill="#E8E8F2"/><rect x="242.25" y="6.20" width="1.25" height="1.25" fill="#E8E8F2"/><rect x="243.50" y="6.20" width="1.25" height="1.25" fill="#E8E8F2"/><rect x="244.75" y="6.20" width="1.25" height="1.25" fill="#E8E8F2"/><rect x="239.75" y="7.45" width="1.25" height="1.25" fill="#E8E8F2"/><rect x="241.00" y="7.45" width="1.25" height="1.25" fill="#E8E8F2"/><rect x="242.25" y="7.45" width="1.25" height="1.25" fill="#E8E8F2"/><rect x="243.50" y="7.45" width="1.25" height="1.25" fill="#E8E8F2"/><rect x="244.75" y="7.45" width="1.25" height="1.25" fill="#E8E8F2"/><rect x="246.00" y="7.45" width="1.25" height="1.25" fill="#E8E8F2"/><rect x="239.75" y="8.70" width="1.25" height="1.25" fill="#E8E8F2"/><rect x="242.25" y="8.70" width="1.25" height="1.25" fill="#E8E8F2"/><rect x="243.50" y="8.70" width="1.25" height="1.25" fill="#E8E8F2"/><rect x="246.00" y="8.70" width="1.25" height="1.25" fill="#E8E8F2"/><rect x="239.75" y="9.95" width="1.25" height="1.25" fill="#E8E8F2"/><rect x="241.00" y="9.95" width="1.25" height="1.25" fill="#E8E8F2"/><rect x="242.25" y="9.95" width="1.25" height="1.25" fill="#E8E8F2"/><rect x="243.50" y="9.95" width="1.25" height="1.25" fill="#E8E8F2"/><rect x="244.75" y="9.95" width="1.25" height="1.25" fill="#E8E8F2"/><rect x="246.00" y="9.95" width="1.25" height="1.25" fill="#E8E8F2"/><rect x="238.50" y="11.20" width="1.25" height="1.25" fill="#E8E8F2"/><rect x="239.75" y="11.20" width="1.25" height="1.25" fill="#E8E8F2"/><rect x="241.00" y="11.20" width="1.25" height="1.25" fill="#E8E8F2"/><rect x="242.25" y="11.20" width="1.25" height="1.25" fill="#E8E8F2"/><rect x="243.50" y="11.20" width="1.25" height="1.25" fill="#E8E8F2"/><rect x="244.75" y="11.20" width="1.25" height="1.25" fill="#E8E8F2"/><rect x="246.00" y="11.20" width="1.25" height="1.25" fill="#E8E8F2"/><rect x="247.25" y="11.20" width="1.25" height="1.25" fill="#E8E8F2"/><rect x="237.25" y="12.45" width="1.25" height="1.25" fill="#E8E8F2"/><rect x="238.50" y="12.45" width="1.25" height="1.25" fill="#E8E8F2"/><rect x="239.75" y="12.45" width="1.25" height="1.25" fill="#E8E8F2"/><rect x="241.00" y="12.45" width="1.25" height="1.25" fill="#E8E8F2"/><rect x="242.25" y="12.45" width="1.25" height="1.25" fill="#E8E8F2"/><rect x="243.50" y="12.45" width="1.25" height="1.25" fill="#E8E8F2"/><rect x="244.75" y="12.45" width="1.25" height="1.25" fill="#E8E8F2"/><rect x="246.00" y="12.45" width="1.25" height="1.25" fill="#E8E8F2"/><rect x="247.25" y="12.45" width="1.25" height="1.25" fill="#E8E8F2"/><rect x="237.25" y="13.70" width="1.25" height="1.25" fill="#E8E8F2"/><rect x="238.50" y="13.70" width="1.25" height="1.25" fill="#E8E8F2"/><rect x="239.75" y="13.70" width="1.25" height="1.25" fill="#E8E8F2"/><rect x="241.00" y="13.70" width="1.25" height="1.25" fill="#E8E8F2"/><rect x="242.25" y="13.70" width="1.25" height="1.25" fill="#E8E8F2"/><rect x="243.50" y="13.70" width="1.25" height="1.25" fill="#E8E8F2"/><rect x="244.75" y="13.70" width="1.25" height="1.25" fill="#E8E8F2"/><rect x="246.00" y="13.70" width="1.25" height="1.25" fill="#E8E8F2"/><rect x="247.25" y="13.70" width="1.25" height="1.25" fill="#E8E8F2"/><rect x="238.50" y="14.95" width="1.25" height="1.25" fill="#E8E8F2"/><rect x="239.75" y="14.95" width="1.25" height="1.25" fill="#E8E8F2"/><rect x="241.00" y="14.95" width="1.25" height="1.25" fill="#E8E8F2"/><rect x="242.25" y="14.95" width="1.25" height="1.25" fill="#E8E8F2"/><rect x="243.50" y="14.95" width="1.25" height="1.25" fill="#E8E8F2"/><rect x="244.75" y="14.95" width="1.25" height="1.25" fill="#E8E8F2"/><rect x="246.00" y="14.95" width="1.25" height="1.25" fill="#E8E8F2"/><rect x="247.25" y="14.95" width="1.25" height="1.25" fill="#E8E8F2"/><rect x="239.75" y="16.20" width="1.25" height="1.25" fill="#E8E8F2"/><rect x="241.00" y="16.20" width="1.25" height="1.25" fill="#E8E8F2"/><rect x="242.25" y="16.20" width="1.25" height="1.25" fill="#E8E8F2"/><rect x="243.50" y="16.20" width="1.25" height="1.25" fill="#E8E8F2"/><rect x="244.75" y="16.20" width="1.25" height="1.25" fill="#E8E8F2"/><rect x="246.00" y="16.20" width="1.25" height="1.25" fill="#E8E8F2"/><rect x="238.50" y="17.45" width="1.25" height="1.25" fill="#E8E8F2"/><rect x="239.75" y="17.45" width="1.25" height="1.25" fill="#E8E8F2"/><rect x="246.00" y="17.45" width="1.25" height="1.25" fill="#E8E8F2"/><rect x="247.25" y="17.45" width="1.25" height="1.25" fill="#E8E8F2"/><rect x="238.50" y="18.70" width="1.25" height="1.25" fill="#E8E8F2"/><rect x="239.75" y="18.70" width="1.25" height="1.25" fill="#E8E8F2"/><text x="256" y="17.5" font-family="ui-monospace, 'SF Mono', SFMono-Regular, Menlo, Consolas, monospace" font-size="12" fill="#FF9F0A">✋1</text><text x="322" y="17.5" font-family="-apple-system, 'SF Pro Text', 'Segoe UI', system-ui, sans-serif" font-size="12" fill="#6a6a75">🔋 14:32</text></g><text x="410" y="81" font-family="-apple-system, 'SF Pro Text', 'Segoe UI', system-ui, sans-serif" font-size="11.5" fill="#9a9aa8">มีคำขอค้าง</text><rect x="216" y="108" width="330" height="428" rx="9" fill="#232329" stroke="#37373f" stroke-width="1"/><text x="230" y="128" font-family="-apple-system, 'SF Pro Text', 'Segoe UI', system-ui, sans-serif" font-size="11" fill="#8f8f9c">Touch Bar Token Usage v0.3.0</text><rect x="228" y="140" width="306" height="1" fill="#3a3a42"/><text x="230" y="156" font-family="-apple-system, 'SF Pro Text', 'Segoe UI', system-ui, sans-serif" font-size="11" fill="#8f8f9c">Today: 1.28M tokens · $4.32</text><text x="230" y="174" font-family="-apple-system, 'SF Pro Text', 'Segoe UI', system-ui, sans-serif" font-size="11" fill="#8f8f9c">   ↑ in 1.05M · ↓ out 96K</text><text x="230" y="192" font-family="-apple-system, 'SF Pro Text', 'Segoe UI', system-ui, sans-serif" font-size="11" fill="#8f8f9c">   cache write 130K · read 58.4M</text><text x="230" y="210" font-family="-apple-system, 'SF Pro Text', 'Segoe UI', system-ui, sans-serif" font-size="11" fill="#8f8f9c">This month: 24.1M tokens · $61.20</text><text x="230" y="228" font-family="-apple-system, 'SF Pro Text', 'Segoe UI', system-ui, sans-serif" font-size="11" fill="#8f8f9c">Burn rate: 8.1K/m</text><text x="230" y="246" font-family="-apple-system, 'SF Pro Text', 'Segoe UI', system-ui, sans-serif" font-size="11" fill="#8f8f9c">5-hour block: 1.9M / 3M (63% of your max) · ↻1:42</text><text x="230" y="264" font-family="-apple-system, 'SF Pro Text', 'Segoe UI', system-ui, sans-serif" font-size="11" fill="#8f8f9c">Weekly (7d): 12.4M / 21M (60% of your max)</text><text x="230" y="282" font-family="-apple-system, 'SF Pro Text', 'Segoe UI', system-ui, sans-serif" font-size="11" fill="#8f8f9c">Model: claude-sonnet-5</text><rect x="228" y="294" width="306" height="1" fill="#3a3a42"/><text x="230" y="310" font-family="-apple-system, 'SF Pro Text', 'Segoe UI', system-ui, sans-serif" font-size="11" fill="#EDEDF2">Show Touch Bar Widget                        ✓</text><text x="230" y="328" font-family="-apple-system, 'SF Pro Text', 'Segoe UI', system-ui, sans-serif" font-size="11" fill="#EDEDF2">Open Panel on Touch Bar</text><rect x="228" y="340" width="306" height="1" fill="#3a3a42"/><text x="230" y="356" font-family="-apple-system, 'SF Pro Text', 'Segoe UI', system-ui, sans-serif" font-size="11" fill="#8f8f9c">Approval server: listening on 127.0.0.1:43917</text><text x="230" y="374" font-family="-apple-system, 'SF Pro Text', 'Segoe UI', system-ui, sans-serif" font-size="11" fill="#8f8f9c">Claude hook: installed ✓</text><text x="230" y="392" font-family="-apple-system, 'SF Pro Text', 'Segoe UI', system-ui, sans-serif" font-size="11" fill="#EDEDF2">Send Test Approval Request</text><text x="230" y="410" font-family="-apple-system, 'SF Pro Text', 'Segoe UI', system-ui, sans-serif" font-size="11" fill="#EDEDF2">Install / Update Claude Hook</text><rect x="228" y="422" width="306" height="1" fill="#3a3a42"/><text x="230" y="438" font-family="-apple-system, 'SF Pro Text', 'Segoe UI', system-ui, sans-serif" font-size="11" fill="#EDEDF2">Preferences…                                          ⌘,</text><text x="230" y="456" font-family="-apple-system, 'SF Pro Text', 'Segoe UI', system-ui, sans-serif" font-size="11" fill="#EDEDF2">Open GitHub Page</text><rect x="228" y="468" width="306" height="1" fill="#3a3a42"/><text x="230" y="484" font-family="-apple-system, 'SF Pro Text', 'Segoe UI', system-ui, sans-serif" font-size="11" fill="#EDEDF2">Quit Touch Bar Token Usage                    ⌘Q</text><text x="20" y="130" font-family="-apple-system, 'SF Pro Text', 'Segoe UI', system-ui, sans-serif" font-size="11.5" fill="#9a9aa8">คลิก icon →</text></svg>
