<svg xmlns="http://www.w3.org/2000/svg" viewBox="0 0 356 42" width="356" height="42" role="img"><rect x="0" y="0" width="356" height="42" rx="9" fill="#000000"/><rect x="12" y="10" width="34" height="22" rx="5" fill="#FFFFFF" fill-opacity="0.10"/><rect x="54" y="10" width="34" height="22" rx="5" fill="#FFFFFF" fill-opacity="0.10"/><rect x="96" y="10" width="34" height="22" rx="5" fill="#FFFFFF" fill-opacity="0.10"/><g transform="translate(172,6)"><rect x="0" y="1" width="176" height="28" rx="6" fill="#101014"/><rect x="14.00" y="4.00" width="2.00" height="2.00" fill="#64D2FF"/><rect x="16.00" y="4.00" width="2.00" height="2.00" fill="#64D2FF"/><rect x="18.00" y="4.00" width="2.00" height="2.00" fill="#64D2FF"/><rect x="20.00" y="4.00" width="2.00" height="2.00" fill="#64D2FF"/><rect x="12.00" y="6.00" width="2.00" height="2.00" fill="#64D2FF"/><rect x="14.00" y="6.00" width="2.00" height="2.00" fill="#64D2FF"/><rect x="16.00" y="6.00" width="2.00" height="2.00" fill="#64D2FF"/><rect x="18.00" y="6.00" width="2.00" height="2.00" fill="#64D2FF"/><rect x="20.00" y="6.00" width="2.00" height="2.00" fill="#64D2FF"/><rect x="22.00" y="6.00" width="2.00" height="2.00" fill="#64D2FF"/><rect x="12.00" y="8.00" width="2.00" height="2.00" fill="#64D2FF"/><rect x="16.00" y="8.00" width="2.00" height="2.00" fill="#64D2FF"/><rect x="18.00" y="8.00" width="2.00" height="2.00" fill="#64D2FF"/><rect x="22.00" y="8.00" width="2.00" height="2.00" fill="#64D2FF"/><rect x="12.00" y="10.00" width="2.00" height="2.00" fill="#64D2FF"/><rect x="14.00" y="10.00" width="2.00" height="2.00" fill="#64D2FF"/><rect x="16.00" y="10.00" width="2.00" height="2.00" fill="#64D2FF"/><rect x="18.00" y="10.00" width="2.00" height="2.00" fill="#64D2FF"/><rect x="20.00" y="10.00" width="2.00" height="2.00" fill="#64D2FF"/><rect x="22.00" y="10.00" width="2.00" height="2.00" fill="#64D2FF"/><rect x="10.00" y="12.00" width="2.00" height="2.00" fill="#64D2FF"/><rect x="12.00" y="12.00" width="2.00" height="2.00" fill="#64D2FF"/><rect x="14.00" y="12.00" width="2.00" height="2.00" fill="#64D2FF"/><rect x="16.00" y="12.00" width="2.00" height="2.00" fill="#64D2FF"/><rect x="18.00" y="12.00" width="2.00" height="2.00" fill="#64D2FF"/><rect x="20.00" y="12.00" width="2.00" height="2.00" fill="#64D2FF"/><rect x="22.00" y="12.00" width="2.00" height="2.00" fill="#64D2FF"/><rect x="24.00" y="12.00" width="2.00" height="2.00" fill="#64D2FF"/><rect x="8.00" y="14.00" width="2.00" height="2.00" fill="#64D2FF"/><rect x="10.00" y="14.00" width="2.00" height="2.00" fill="#64D2FF"/><rect x="12.00" y="14.00" width="2.00" height="2.00" fill="#64D2FF"/><rect x="14.00" y="14.00" width="2.00" height="2.00" fill="#64D2FF"/><rect x="16.00" y="14.00" width="2.00" height="2.00" fill="#64D2FF"/><rect x="18.00" y="14.00" width="2.00" height="2.00" fill="#64D2FF"/><rect x="20.00" y="14.00" width="2.00" height="2.00" fill="#64D2FF"/><rect x="22.00" y="14.00" width="2.00" height="2.00" fill="#64D2FF"/><rect x="24.00" y="14.00" width="2.00" height="2.00" fill="#64D2FF"/><rect x="8.00" y="16.00" width="2.00" height="2.00" fill="#64D2FF"/><rect x="10.00" y="16.00" width="2.00" height="2.00" fill="#64D2FF"/><rect x="12.00" y="16.00" width="2.00" height="2.00" fill="#64D2FF"/><rect x="14.00" y="16.00" width="2.00" height="2.00" fill="#64D2FF"/><rect x="16.00" y="16.00" width="2.00" height="2.00" fill="#64D2FF"/><rect x="18.00" y="16.00" width="2.00" height="2.00" fill="#64D2FF"/><rect x="20.00" y="16.00" width="2.00" height="2.00" fill="#64D2FF"/><rect x="22.00" y="16.00" width="2.00" height="2.00" fill="#64D2FF"/><rect x="24.00" y="16.00" width="2.00" height="2.00" fill="#64D2FF"/><rect x="10.00" y="18.00" width="2.00" height="2.00" fill="#64D2FF"/><rect x="12.00" y="18.00" width="2.00" height="2.00" fill="#64D2FF"/><rect x="14.00" y="18.00" width="2.00" height="2.00" fill="#64D2FF"/><rect x="16.00" y="18.00" width="2.00" height="2.00" fill="#64D2FF"/><rect x="18.00" y="18.00" width="2.00" height="2.00" fill="#64D2FF"/><rect x="20.00" y="18.00" width="2.00" height="2.00" fill="#64D2FF"/><rect x="22.00" y="18.00" width="2.00" height="2.00" fill="#64D2FF"/><rect x="24.00" y="18.00" width="2.00" height="2.00" fill="#64D2FF"/><rect x="12.00" y="20.00" width="2.00" height="2.00" fill="#64D2FF"/><rect x="14.00" y="20.00" width="2.00" height="2.00" fill="#64D2FF"/><rect x="16.00" y="20.00" width="2.00" height="2.00" fill="#64D2FF"/><rect x="18.00" y="20.00" width="2.00" height="2.00" fill="#64D2FF"/><rect x="20.00" y="20.00" width="2.00" height="2.00" fill="#64D2FF"/><rect x="22.00" y="20.00" width="2.00" height="2.00" fill="#64D2FF"/><rect x="10.00" y="22.00" width="2.00" height="2.00" fill="#64D2FF"/><rect x="12.00" y="22.00" width="2.00" height="2.00" fill="#64D2FF"/><rect x="22.00" y="22.00" width="2.00" height="2.00" fill="#64D2FF"/><rect x="24.00" y="22.00" width="2.00" height="2.00" fill="#64D2FF"/><rect x="10.00" y="24.00" width="2.00" height="2.00" fill="#64D2FF"/><rect x="12.00" y="24.00" width="2.00" height="2.00" fill="#64D2FF"/><text x="36" y="13.0" font-family="-apple-system, 'SF Pro Text', 'Segoe UI', system-ui, sans-serif" font-size="6.5" font-weight="600" fill="#98989D">5h</text><rect x="47" y="8.5" width="30" height="5" rx="2.5" fill="#F2F2F7" fill-opacity="0.16"/><rect x="47" y="8.5" width="18.60" height="5" rx="2.5" fill="#0A84FF"/><text x="80" y="13.0" font-family="ui-monospace, 'SF Mono', SFMono-Regular, Menlo, Consolas, monospace" font-size="6.5" font-weight="600" fill="#F2F2F7">62%</text><text x="36" y="24.0" font-family="-apple-system, 'SF Pro Text', 'Segoe UI', system-ui, sans-serif" font-size="6.5" font-weight="600" fill="#98989D">7d</text><rect x="47" y="19.5" width="30" height="5" rx="2.5" fill="#F2F2F7" fill-opacity="0.16"/><rect x="47" y="19.5" width="10.20" height="5" rx="2.5" fill="#0A84FF"/><text x="80" y="24.0" font-family="ui-monospace, 'SF Mono', SFMono-Regular, Menlo, Consolas, monospace" font-size="6.5" font-weight="600" fill="#F2F2F7">34%</text><text x="108" y="13.5" font-family="ui-monospace, 'SF Mono', SFMono-Regular, Menlo, Consolas, monospace" font-size="9.5" font-weight="600" fill="#F2F2F7">sonnet-5</text><text x="108" y="24.5" font-family="ui-monospace, 'SF Mono', SFMono-Regular, Menlo, Consolas, monospace" font-size="8" fill="#98989D">1.28M · $4.32</text></g></svg>
