<svg xmlns="http://www.w3.org/2000/svg" viewBox="0 0 356 42" width="356" height="42" role="img"><rect x="0" y="0" width="356" height="42" rx="9" fill="#000000"/><rect x="12" y="10" width="34" height="22" rx="5" fill="#FFFFFF" fill-opacity="0.10"/><rect x="54" y="10" width="34" height="22" rx="5" fill="#FFFFFF" fill-opacity="0.10"/><rect x="96" y="10" width="34" height="22" rx="5" fill="#FFFFFF" fill-opacity="0.10"/><rect x="138" y="10" width="34" height="22" rx="5" fill="#FFFFFF" fill-opacity="0.10"/><g transform="translate(251,6)"><rect x="0" y="1" width="97" height="28" rx="6" fill="#101014"/><rect x="10.40" y="6.20" width="1.60" height="1.60" fill="#64D2FF"/><rect x="12.00" y="6.20" width="1.60" height="1.60" fill="#64D2FF"/><rect x="13.60" y="6.20" width="1.60" height="1.60" fill="#64D2FF"/><rect x="15.20" y="6.20" width="1.60" height="1.60" fill="#64D2FF"/><rect x="8.80" y="7.80" width="1.60" height="1.60" fill="#64D2FF"/><rect x="10.40" y="7.80" width="1.60" height="1.60" fill="#64D2FF"/><rect x="12.00" y="7.80" width="1.60" height="1.60" fill="#64D2FF"/><rect x="13.60" y="7.80" width="1.60" height="1.60" fill="#64D2FF"/><rect x="15.20" y="7.80" width="1.60" height="1.60" fill="#64D2FF"/><rect x="16.80" y="7.80" width="1.60" height="1.60" fill="#64D2FF"/><rect x="8.80" y="9.40" width="1.60" height="1.60" fill="#64D2FF"/><rect x="12.00" y="9.40" width="1.60" height="1.60" fill="#64D2FF"/><rect x="13.60" y="9.40" width="1.60" height="1.60" fill="#64D2FF"/><rect x="16.80" y="9.40" width="1.60" height="1.60" fill="#64D2FF"/><rect x="8.80" y="11.00" width="1.60" height="1.60" fill="#64D2FF"/><rect x="10.40" y="11.00" width="1.60" height="1.60" fill="#64D2FF"/><rect x="12.00" y="11.00" width="1.60" height="1.60" fill="#64D2FF"/><rect x="13.60" y="11.00" width="1.60" height="1.60" fill="#64D2FF"/><rect x="15.20" y="11.00" width="1.60" height="1.60" fill="#64D2FF"/><rect x="16.80" y="11.00" width="1.60" height="1.60" fill="#64D2FF"/><rect x="7.20" y="12.60" width="1.60" height="1.60" fill="#64D2FF"/><rect x="8.80" y="12.60" width="1.60" height="1.60" fill="#64D2FF"/><rect x="10.40" y="12.60" width="1.60" height="1.60" fill="#64D2FF"/><rect x="12.00" y="12.60" width="1.60" height="1.60" fill="#64D2FF"/><rect x="13.60" y="12.60" width="1.60" height="1.60" fill="#64D2FF"/><rect x="15.20" y="12.60" width="1.60" height="1.60" fill="#64D2FF"/><rect x="16.80" y="12.60" width="1.60" height="1.60" fill="#64D2FF"/><rect x="18.40" y="12.60" width="1.60" height="1.60" fill="#64D2FF"/><rect x="5.60" y="14.20" width="1.60" height="1.60" fill="#64D2FF"/><rect x="7.20" y="14.20" width="1.60" height="1.60" fill="#64D2FF"/><rect x="8.80" y="14.20" width="1.60" height="1.60" fill="#64D2FF"/><rect x="10.40" y="14.20" width="1.60" height="1.60" fill="#64D2FF"/><rect x="12.00" y="14.20" width="1.60" height="1.60" fill="#64D2FF"/><rect x="13.60" y="14.20" width="1.60" height="1.60" fill="#64D2FF"/><rect x="15.20" y="14.20" width="1.60" height="1.60" fill="#64D2FF"/><rect x="16.80" y="14.20" width="1.60" height="1.60" fill="#64D2FF"/><rect x="18.40" y="14.20" width="1.60" height="1.60" fill="#64D2FF"/><rect x="5.60" y="15.80" width="1.60" height="1.60" fill="#64D2FF"/><rect x="7.20" y="15.80" width="1.60" height="1.60" fill="#64D2FF"/><rect x="8.80" y="15.80" width="1.60" height="1.60" fill="#64D2FF"/><rect x="10.40" y="15.80" width="1.60" height="1.60" fill="#64D2FF"/><rect x="12.00" y="15.80" width="1.60" height="1.60" fill="#64D2FF"/><rect x="13.60" y="15.80" width="1.60" height="1.60" fill="#64D2FF"/><rect x="15.20" y="15.80" width="1.60" height="1.60" fill="#64D2FF"/><rect x="16.80" y="15.80" width="1.60" height="1.60" fill="#64D2FF"/><rect x="18.40" y="15.80" width="1.60" height="1.60" fill="#64D2FF"/><rect x="7.20" y="17.40" width="1.60" height="1.60" fill="#64D2FF"/><rect x="8.80" y="17.40" width="1.60" height="1.60" fill="#64D2FF"/><rect x="10.40" y="17.40" width="1.60" height="1.60" fill="#64D2FF"/><rect x="12.00" y="17.40" width="1.60" height="1.60" fill="#64D2FF"/><rect x="13.60" y="17.40" width="1.60" height="1.60" fill="#64D2FF"/><rect x="15.20" y="17.40" width="1.60" height="1.60" fill="#64D2FF"/><rect x="16.80" y="17.40" width="1.60" height="1.60" fill="#64D2FF"/><rect x="18.40" y="17.40" width="1.60" height="1.60" fill="#64D2FF"/><rect x="8.80" y="19.00" width="1.60" height="1.60" fill="#64D2FF"/><rect x="10.40" y="19.00" width="1.60" height="1.60" fill="#64D2FF"/><rect x="12.00" y="19.00" width="1.60" height="1.60" fill="#64D2FF"/><rect x="13.60" y="19.00" width="1.60" height="1.60" fill="#64D2FF"/><rect x="15.20" y="19.00" width="1.60" height="1.60" fill="#64D2FF"/><rect x="16.80" y="19.00" width="1.60" height="1.60" fill="#64D2FF"/><rect x="7.20" y="20.60" width="1.60" height="1.60" fill="#64D2FF"/><rect x="8.80" y="20.60" width="1.60" height="1.60" fill="#64D2FF"/><rect x="16.80" y="20.60" width="1.60" height="1.60" fill="#64D2FF"/><rect x="18.40" y="20.60" width="1.60" height="1.60" fill="#64D2FF"/><rect x="7.20" y="22.20" width="1.60" height="1.60" fill="#64D2FF"/><rect x="8.80" y="22.20" width="1.60" height="1.60" fill="#64D2FF"/><rect x="28.200000000000003" y="5.5" width="64" height="8" rx="4.0" fill="#F2F2F7" fill-opacity="0.18"/><rect x="28.200000000000003" y="5.5" width="40.32" height="8" rx="4.0" fill="#0A84FF"/><text x="32.2" y="11.5" font-family="-apple-system, 'SF Pro Text', 'Segoe UI', system-ui, sans-serif" font-size="5.5" font-weight="700" fill="#101014">5h</text><text x="88.2" y="11.5" text-anchor="end" font-family="ui-monospace, 'SF Mono', SFMono-Regular, Menlo, Consolas, monospace" font-size="7" font-weight="700" fill="#F2F2F7">63%</text><rect x="28.200000000000003" y="17.0" width="64" height="8" rx="4.0" fill="#F2F2F7" fill-opacity="0.18"/><rect x="28.200000000000003" y="17.0" width="38.40" height="8" rx="4.0" fill="#0A84FF"/><text x="32.2" y="23.0" font-family="-apple-system, 'SF Pro Text', 'Segoe UI', system-ui, sans-serif" font-size="5.5" font-weight="700" fill="#101014">7d</text><text x="88.2" y="23.0" text-anchor="end" font-family="ui-monospace, 'SF Mono', SFMono-Regular, Menlo, Consolas, monospace" font-size="7" font-weight="700" fill="#F2F2F7">60%</text></g></svg>
